<svg width="103" height="126" viewBox="0 0 103 126" fill="none" xmlns="http://www.w3.org/2000/svg">
<path d="M83.6875 63C83.6875 91.556 56.013 110.037 51.9863 112.575C51.6771 112.77 51.3229 112.77 51.0137 112.575C46.987 110.037 19.3125 91.556 19.3125 63C19.3125 39.375 34.9084 23.625 51.5 23.625C68.6667 23.625 83.6875 39.375 83.6875 63Z" fill="#C95300"/>
<path d="M68.1667 63C68.1667 74.4208 60.6152 83.5 51.5 83.5C42.3847 83.5 34.8333 74.4208 34.8333 63C34.8333 51.5792 42.3847 42.5 51.5 42.5C60.6152 42.5 68.1667 51.5792 68.1667 63Z" fill="white" stroke="white"/>
</svg>