<?xml version="1.0" encoding="UTF-8"?>
<svg id="Layer_2" data-name="Layer 2" xmlns="http://www.w3.org/2000/svg" viewBox="0 0 16 16">
  <defs>
    <style>
      .cls-1 {
        fill: #0da34a;
      }

      .cls-2 {
        fill: #fff;
        stroke: #fff;
        stroke-miterlimit: 10;
      }
    </style>
  </defs>
  <g id="Layer_1-2" data-name="Layer 1">
    <circle class="cls-1" cx="8" cy="8" r="8"/>
    <path class="cls-2" d="m4.89,8.45c.03.15.14.26.22.38.14.21.13.36.29.57s.2.5.4.69c.18.17.37.7.45.81.23.28.16.4.34.6.13.15.19.42.34.61.11.13.19.39.3.48.17.13.3.27.38.37.07.09.38.09.53.05.13-.04.17-.21.26-.4.04-.1-.02-.19,0-.36,0-.15,0-.34-.18-.53-.16-.17-.17-.32-.25-.41-.12-.14-.08-.08-.34-.56-.11-.2-.06-.25-.25-.48-.16-.18-.18-.34-.26-.52-.08-.17-.34-.5-.37-.62-.04-.13-.19-.3-.22-.43-.05-.21-.23-.51-.36-.65-.11-.12-.18-.29-.27-.46,0,0,0-.11-.09-.31-.01-.03-.1-.14-.24-.38-.1-.18-.26-.36-.29-.4-.07-.1-.05-.2-.13-.39-.05-.12-.18-.24-.31-.44-.09-.14-.17-.51-.18-.44,0,.03-.14-.23-.19-.34-.09-.22-.15-.3-.21-.42-.02-.04-.07-.12-.2-.26-.03-.04-.19-.13-.27-.2-.02-.02-.12-.08-.24-.08-.09,0-.22.08-.26.11-.06.03-.11.04-.18.21-.03.08.01.18,0,.55,0,.14.08.32.13.46.05.15.14.49.24.6.22.27.23.59.4.8s.18.38.28.54c.04.07.17.19.24.39.05.14.22.47.38.66l.12.19Z"/>
    <path class="cls-2" d="m10.89,6.17c-.05.01-.05.09-.13.22-.05.08-.08.11-.11.19-.06.15-.11.21-.15.27-.07.1-.14.21-.16.24-.07.09-.11.2-.13.24-.08.23-.17.28-.22.41-.08.22-.18.32-.26.41-.09.1-.07.21-.15.28-.1.09-.06.27-.26.49-.1.11-.11.34-.1.52,0,.07,0,.13.03.22.05.12.12.12.2.2.04.04.13.07.18.03.11-.09.13-.02.17-.07.06-.07.18-.13.22-.18.15-.2.19-.18.24-.25.13-.2.17-.18.22-.32.06-.16.09-.17.16-.32.07-.17.12-.1.19-.29q.09-.25.2-.43c.09-.16.1-.15.17-.32.1-.22.16-.22.21-.34.09-.22.18-.3.22-.41.08-.22.23-.35.27-.51.03-.14.21-.31.24-.42.04-.12.2-.4.24-.48.16-.29.19-.21.3-.51.06-.14.3-.44.3-.58,0-.05.06-.24.04-.29-.02-.06-.08-.13-.12-.18-.1-.11-.42.01-.59.05,0,0-.18.05-.26.15-.07.09-.26.2-.28.24-.06.13-.21.23-.24.38s-.14.3-.21.4c-.05.08-.09.21-.11.26-.02.07-.06.14-.09.22-.05.1-.13.14-.18.27l-.08.22Z"/>
  </g>
</svg>