<svg xmlns="http://www.w3.org/2000/svg" width="693.12" height="176.16" viewBox="0 0 183.381 46.609" xmlnsV="https://vecta.io/nano"><path d="M22.674 40.243l-.282-.014-.417-.182-.435-.197c-.01-.008.346-.316.791-.684l.81-.669.797.535.791.552c-.003.009-.193.158-.423.331l-.417.314-.172.018c-.191.02-.614.019-1.043-.002z" fill="#a6be55"/><path d="M24.785 40.176c0-.011.1-.093.22-.182l.219-.162.271.062.271.076c0 .008-.058.043-.129.079-.099.05-.192.072-.399.093l-.362.041c-.051.007-.092.004-.091-.007z" fill="#b9bc4a"/><path d="M19.238 39.712l-.577-.1c-.239-.055-1.191-.37-1.238-.41a1.92 1.92 0 0 0-.218-.126c-.143-.074-.173-.099-.147-.122a107.95 107.95 0 0 1 3.16-1.761c.043.004 2.384 1.031 2.412 1.059.01.01-.359.332-.822.716l-.841.697-.405.042c-.713.073-.875.074-1.325.006z" fill="#92bc63"/><path d="M26.904 39.675c-.26-.029-.607-.094-1.018-.19l-.624-.145-1.018-.686-1.018-.686-1.362-.597-1.446-.637c-.057-.027-.536-.547-1.487-1.614l-1.403-1.575.028-.204.493-3.518.465-3.314 2.375-1.457 2.65-1.563.307-.106c.018 0 1.051.515 2.296 1.145l2.263 1.145 2.044 4.534 2.044 4.534-.778 1.566-.778 1.566-.636.513c-.629.507-.64.515-1.022.695l-.423.215c-.038.034-.723.255-1.132.366-.271.073-.289.073-.82.013z" fill="#80b974"/><path d="M16.11 38.584l-.409-.132c-.049-.002-.528-.254-.968-.51l-.321-.187-.363-.586-.363-.586-.461-1.33-.461-1.33.274-.015 2.202-.025 1.928-.01 1.319 1.48 1.311 1.489a1199.7 1199.7 0 0 1-3.308 1.865c-.007.004-.178-.052-.38-.124zm15.521-1.011c.001-.01.302-.615.669-1.343l.667-1.325 1.178-.729 1.178-.729.007.079a18.37 18.37 0 0 1-.054.899l-.061.82-.295.299-.295.325c0 .027-.437.407-.816.711-.146.117-.379.261-.685.425a4.87 4.87 0 0 1-.971.418l-.52.151z" fill="#6eb389"/><path d="M13.214 36.937c-.145-.111-.134-.128.042-.06.054.021.165.175.125.174-.011 0-.086-.051-.167-.113z" fill="#80b974"/><path d="M12.65 36.16c-.345-.12-.39-.142-.721-.373-.194-.135-.452-.339-.574-.454-.254-.239-.828-.856-.828-.89a4.5 4.5 0 0 0-.237-.382c-.2-.304-.563-.979-.54-1.003.006-.006 2.445.777 2.466.793.012.009.838 2.391.838 2.417s-.001.031-.405-.109z" fill="#549db2"/><path d="M35.76 34.506l.057-.783.042-.618.55-.397.565-.382c.008.008-.007.251-.035.54l-.05.525-.216.278c-.45.579-.834 1.002-.91 1.002-.01 0-.011-.075-.003-.166z" fill="#b9bc4a"/><path d="M30.894 30.009l-1.961-4.378a1242.14 1242.14 0 0 1 9.249-3.347c.013.004.353.551.755 1.214l.731 1.206.094.824.094.824-.065.401-.065.486c0 .087-.135.611-.273 1.061-.044.144-.174.446-.308.715l-.232.466-.45.515-.9 1.06-.45.544-.813.586-2.086 1.374-1.312.803c-.031.012-.422-.836-2.009-4.355z" fill="#a6be55"/><path d="M10.925 32.919l-1.529-.498-.491-.487-.491-.487-.305-.614-.305-.677c0-.035-.061-.512-.136-1.062l-.136-.999 1.047-1.331 1.099-1.384.052-.053 4.128.619 4.14.631c.013.013-.931 6.765-.949 6.783-.012.012-.827.023-3.393.047l-1.202.011z" fill="#60aa9e"/><path d="M37.47 32.491a8.47 8.47 0 0 1 .028-.331l.028-.298.173-.206c.095-.113.176-.196.18-.184s-.007.132-.025.267c-.03.232-.04.258-.17.466-.17.272-.213.33-.214.286z" fill="#cbb742"/><path d="M6.987 27.174l-.29-.429-.059-.304c-.134-.685-.172-1.049-.159-1.528l.012-.446.908-.751.931-.743c.013.004.243.469.511 1.032l.487 1.025-.216.274-1.819 2.292c-.009.003-.147-.188-.307-.423z" fill="#549db2"/><path d="M13.975 25.472l-4.196-.631-.071-.146-.562-1.177-.491-1.031-.28-.954-.28-.954-.073-.752-.195-1.432-.15-1.166-.028-.485.159-.356.295-.627c.13-.259.152-.287.476-.606.303-.298.416-.387 1.04-.821l.7-.487 2.539-.253 6.566-.608a447.26 447.26 0 0 1 2.063 3.156l2.036 3.129.044 1.824.023 1.843c-.012.01-.14.064-.286.12-.229.087-.596.305-2.665 1.574l-2.434 1.47c-.019-.001-1.923-.286-4.23-.633z" fill="#e56a2f"/><path d="M26.354 24.094l-2.236-1.132c-.009-.004-.036-.833-.06-1.842l-.044-1.835 2.778-2.778 2.778-2.778 2.116-.375 2.165-.374c.027.001.593.145 1.259.321l1.209.32.643.314.643.314.2.341.341.597.141.256.264 1.119.381 1.809.117.69-.473 1.36-.473 1.36-4.724 1.717-4.764 1.72c-.022.002-1.039-.503-2.261-1.122z" fill="#cbb742"/><path d="M39.665 23.76l-1.09-1.83a51.95 51.95 0 0 1 .799-2.267c.012-.004.155.193.317.438l.294.445.053.37.083.702c.028.315.026.353-.036.785l-.294 1.54c-.005.005-.061-.077-.126-.183z" fill="#b9bc4a"/><path d="M6.421 23.833a2.14 2.14 0 0 1-.029-.216c-.009-.094-.025-.188-.035-.209-.023-.045.015-1.348.041-1.418a17.32 17.32 0 0 1 1.296-.954c.018-.007.04.031.057.094l.209.724.181.618-.825.68-.854.702c-.019.014-.033.006-.041-.023z" fill="#e04929"/><path d="M6.468 21.219l.072-.483.061-.432c0-.016.157-.149.348-.296l.549-.396c.014.014.083.681.084.808 0 .089-.004.093-.553.485l-.563.395c-.005 0-.005-.036.001-.08z" fill="#e68634"/><path d="M6.773 19.49a13.13 13.13 0 0 1 .111-.445l.111-.428.15-.169c.082-.093.154-.165.159-.16s.038.171.073.37c.057.324.06.364.026.39l-.615.459c-.008 0-.015-.008-.015-.017z" fill="#e29d39"/><path d="M39.609 19.109c-.061-.089-.142-.355-.116-.381.004-.004.035.03.07.076.059.077.157.376.132.402-.006.006-.045-.037-.085-.096z" fill="#deb857"/><path d="M21.815 15.76l-1.981-3.073c-.003-.021.649-1.419 1.449-3.106l1.454-3.067.318-.084c.298-.079.34-.084.662-.079.512.008 1.091.05 1.202.089a5.22 5.22 0 0 0 .417.1c.227.047.334.081.372.118.029.028.257.313.505.633l.451.582.721.648.721.648.533 2.133.533 2.133-2.679 2.681-2.691 2.68a334.93 334.93 0 0 1-1.988-3.034z" fill="#e29d39"/><path d="M9.202 14.01c0-.146.245-.534.721-1.143.165-.211.335-.363.335-.301a9.9 9.9 0 0 1-.252.899 2.75 2.75 0 0 1-.26.194l-.389.272c-.084.06-.153.095-.153.079z" fill="#e68634"/><path d="M36.816 13.323c-.221-.104-.203-.076-.267-.425-.016-.088-.014-.092.029-.065a3.9 3.9 0 0 1 .446.586 9.75 9.75 0 0 1-.208-.097z" fill="#d9ad3d"/><path d="M10.576 13.305c0-.01.079-.317.177-.681l.177-.663.254-.393.332-.475c.103-.108.654-.606.829-.75l.138-.113.537.06 1.751.149 1.22.095a241.72 241.72 0 0 1-1.699 2.416 249.8 249.8 0 0 1-3.648.371c-.037 0-.068-.008-.068-.018z" fill="#e04929"/><path d="M29.128 11.244l-.5-2.027c-.003-.032.231-.146 1.014-.495l1.018-.454.44.112c.418.107.455.121.736.287l.603.376.307.201.213.402.213.402.202 1.222.18 1.241c-.012.011-.883.172-1.936.359l-1.953.35c-.033.009-.118-.306-.536-1.975z" fill="#b9bc4a"/><path d="M35.077 12.788l-.994-.277a55.12 55.12 0 0 1-.363-2.218c.007-.007.135.017.286.052l.274.064.215.187c.386.336.848.821 1.117 1.175l.264.347.098.448.092.465c-.004.009-.448-.1-.988-.242z" fill="#a6be55"/><path d="M14.952 12.872c.011-.029 1.397-1.988 2.596-3.67l1.258-1.619.615-.707c.017-.018.184-.071.371-.118l.476-.131c.145-.049.631-.127 1.142-.182.289-.031.339-.031.551.008.128.023.231.053.228.066-.014.071-2.808 5.937-2.834 5.951-.017.009-.992.106-2.167.215l-2.191.207c-.036.005-.053-.002-.046-.02z" fill="#e68634"/><path d="M15.032 9.971l-1.114-.094c-.006-.006.025-.192.069-.413l.08-.402.359-.22.884-.498c.014 0 .208-.065.43-.144l.403-.144.71.113.718.135c.004.012-.271.412-.612.889l-.62.868-.102-.003-1.205-.086z" fill="#e29d39"/><path d="M13.17 9.821c-.065-.005-.115-.019-.11-.031.014-.041.4-.316.409-.291.005.013-.005.096-.021.183-.033.176-.004.161-.277.14zm14.651-1.558l-.532-.497c-.001-.013.249-.161.556-.328l.558-.303.298.099.658.238c.299.115.397.166.577.302l.219.176a42.17 42.17 0 0 1-1.779.785c-.014 0-.265-.213-.556-.473z" fill="#e68634"/><path d="M17.374 7.759c-.417-.069-.517-.093-.481-.114a1.13 1.13 0 0 0 .11-.079c.066-.054.769-.318 1.168-.439.121-.037.275-.071.341-.075l.12-.008-.049.055-.352.404-.317.347-.541-.09z" fill="#cbb742"/><path d="M26.656 7.074l-.261-.345c-.041-.068.423-.02.875.09l.437.115a6.48 6.48 0 0 1-.794.451c-.009 0-.125-.139-.258-.311z" fill="#d9ad3d"/><path d="M50.003 13.043q.202 0 .304.058.116.043.246.217L63.816 31.05q-.043-.434-.043-.839V13.043h1.287v20.466h-.694q-.188 0-.318-.058-.116-.072-.231-.231L50.524 15.473q.043.434.043.81v17.226h-1.302V13.043h.738z" fill="#4377cd"/><path d="M76.107 18.886q1.215 0 2.256.419 1.041.419 1.808 1.229.767.796 1.201 1.967.448 1.172.448 2.69 0 .318-.087.434-.087.116-.289.116H70.972v.275q0 1.62.376 2.849.376 1.229 1.07 2.068.694.824 1.678 1.244.984.419 2.199.419 1.085 0 1.88-.231.796-.246 1.331-.535.55-.304.868-.535.318-.246.463-.246.188 0 .289.145l.376.463q-.347.434-.926.81-.564.376-1.273.651-.694.26-1.504.419-.796.159-1.605.159-1.475 0-2.69-.506-1.215-.521-2.083-1.504-.868-.984-1.345-2.401-.463-1.432-.463-3.269 0-1.548.434-2.849.448-1.316 1.273-2.256.839-.955 2.039-1.49 1.215-.535 2.748-.535zm.014 1.027q-1.114 0-1.996.347-.882.347-1.533.998-.636.651-1.041 1.562-.391.911-.521 2.039h9.546q0-1.157-.333-2.068-.318-.926-.911-1.562-.593-.636-1.417-.969-.81-.347-1.794-.347z" fill="#5097ba"/><path d="M89.037 26.147l-5.019-7.029h1.316q.202 0 .304.087.101.087.174.202l4.223 6.089q.072-.275.231-.506l3.949-5.569q.087-.13.188-.217.101-.087.26-.087h1.258l-5.019 6.957 5.221 7.434h-1.316q-.202 0-.318-.116-.116-.13-.188-.246l-4.368-6.379q-.072.289-.217.506l-4.166 5.872q-.101.13-.217.246-.101.116-.275.116h-1.244z" fill="#63ac9a"/><path d="M103.06 33.74q-1.461 0-2.285-.81-.81-.81-.81-2.502v-9.835h-2.068q-.159 0-.26-.087-.101-.087-.101-.246v-.535l2.459-.174.347-5.149q.029-.13.116-.231.087-.101.246-.101h.651v5.496h4.542v1.027h-4.542v9.763q0 .593.145 1.027.159.419.419.694.275.275.636.405.362.13.781.13.521 0 .897-.145.376-.159.651-.333.275-.188.448-.333.174-.159.275-.159.116 0 .231.145l.376.607q-.55.607-1.403.984-.839.362-1.75.362z" fill="#7cb879"/><path d="M116.925 20.897q-.116.202-.333.202-.159 0-.405-.174-.246-.188-.665-.405-.405-.231-1.012-.405-.607-.188-1.475-.188-.781 0-1.432.231-.636.217-1.099.593-.448.376-.694.882-.246.492-.246 1.041 0 .68.347 1.128.347.448.897.767.564.318 1.287.55.723.231 1.461.463.752.231 1.475.521.723.275 1.273.694.564.419.911 1.027.347.607.347 1.475 0 .94-.333 1.75-.333.81-.984 1.403-.636.593-1.577.94-.94.347-2.155.347-1.519 0-2.618-.477-1.099-.492-1.967-1.273l.318-.492q.072-.116.159-.174.101-.058.26-.058.188 0 .448.231.275.231.723.506.448.26 1.099.492.665.231 1.634.231.911 0 1.605-.246.694-.26 1.157-.694.463-.434.694-1.012.246-.593.246-1.244 0-.723-.347-1.201-.347-.477-.911-.81-.564-.333-1.287-.564-.709-.231-1.461-.463-.752-.231-1.475-.506-.709-.275-1.273-.694-.564-.419-.911-1.012-.347-.607-.347-1.504 0-.767.333-1.475.333-.709.94-1.244.622-.535 1.504-.853.882-.318 1.982-.318 1.316 0 2.329.376 1.027.376 1.866 1.157z" fill="#9abe5c"/><path d="M125.264 33.74q-1.461 0-2.285-.81-.81-.81-.81-2.502v-9.835H120.1q-.159 0-.26-.087-.101-.087-.101-.246v-.535l2.459-.174.347-5.149q.029-.13.116-.231.087-.101.246-.101h.651v5.496h4.542v1.027h-4.542v9.763q0 .593.145 1.027.159.419.419.694.275.275.636.405.362.13.781.13.521 0 .897-.145.376-.159.651-.333.275-.188.448-.333.174-.159.275-.159.116 0 .231.145l.376.607q-.55.607-1.403.984-.839.362-1.75.362z" fill="#b9bc4a"/><path d="M131.217 33.509V19.117h.738q.246 0 .347.101.101.101.13.347l.101 3.023q.333-.882.752-1.562.434-.694.984-1.172.564-.477 1.244-.723.694-.26 1.533-.26.448 0 .882.087.434.072.767.275l-.116.955q-.072.231-.275.231-.174 0-.535-.101-.347-.101-.926-.101-.839 0-1.49.26-.651.26-1.157.767-.506.492-.897 1.244-.376.738-.694 1.707v9.315z" fill="#d4b13f"/><path d="M150.296 33.509q-.434 0-.535-.405l-.202-1.837q-.593.579-1.186 1.041-.579.463-1.215.781-.636.318-1.374.477-.738.174-1.62.174-.738 0-1.432-.217-.694-.217-1.244-.665-.535-.448-.868-1.143-.318-.709-.318-1.692 0-.911.521-1.692.521-.781 1.634-1.36 1.114-.579 2.849-.926 1.75-.347 4.195-.405v-1.504q0-1.996-.868-3.066-.853-1.085-2.546-1.085-1.041 0-1.779.289-.723.289-1.229.636-.506.347-.824.636-.318.289-.535.289-.159 0-.26-.072-.101-.072-.174-.188l-.246-.419q1.128-1.128 2.372-1.707 1.244-.579 2.82-.579 1.157 0 2.025.376.868.362 1.432 1.056.579.68.868 1.663.289.969.289 2.17v9.373zm-5.786-.767q.839 0 1.533-.174.709-.188 1.302-.506.607-.333 1.128-.781.521-.448 1.027-.969v-3.746q-2.054.058-3.544.318-1.49.246-2.459.68-.955.434-1.417 1.041-.448.593-.448 1.36 0 .723.231 1.258.246.521.636.868.405.333.926.492.521.159 1.085.159z" fill="#e49938"/><path d="M156.989 19.117v14.392h-1.374V19.117zm.593-4.961q0 .26-.116.492-.101.217-.275.391-.174.174-.405.275-.231.101-.492.101-.26 0-.492-.101-.231-.101-.405-.275-.174-.174-.275-.391-.101-.231-.101-.492 0-.26.101-.492.101-.246.275-.419.174-.174.405-.275.231-.101.492-.101.26 0 .492.101.231.101.405.275.174.174.275.419.116.231.116.492z" fill="#e67030"/><path d="M161.897 33.509V19.117h.767q.362 0 .419.362l.13 2.17q.998-1.258 2.3-2.01 1.302-.752 2.922-.752 1.186 0 2.083.376.911.376 1.504 1.085.593.709.897 1.707.304.998.304 2.256v9.199h-1.389V24.31q0-2.025-.926-3.168-.926-1.157-2.82-1.157-1.417 0-2.632.723-1.215.709-2.17 1.982v10.819z" fill="#de3c26"/></svg>