<svg width="103" height="126" viewBox="0 0 103 126" fill="none" xmlns="http://www.w3.org/2000/svg">
<path d="M52.013 112.617C54.0284 111.347 61.9582 106.089 69.3846 97.5771C76.8108 89.0652 83.7375 77.2947 83.7375 63C83.7375 39.3549 68.7013 23.575 51.5 23.575C34.8744 23.575 19.2625 39.3543 19.2625 63C19.2625 77.2947 26.1892 89.0652 33.6154 97.5771C41.0418 106.089 48.9716 111.347 50.987 112.617C51.3125 112.822 51.6875 112.822 52.013 112.617Z" fill="#222222" stroke="#222222" stroke-width="0.1"/>
<path d="M68.1667 63C68.1667 74.4208 60.6153 83.5 51.5 83.5C42.3848 83.5 34.8333 74.4208 34.8333 63C34.8333 51.5792 42.3848 42.5 51.5 42.5C60.6153 42.5 68.1667 51.5792 68.1667 63Z" fill="white" stroke="white"/>
<ellipse cx="51.5" cy="62.5" rx="24.5" ry="29.5" fill="white"/>
<path d="M34.7356 53.5297C34.7261 53.535 34.72 53.5436 34.711 53.5495C34.7037 53.5542 34.6951 53.5549 34.688 53.56C34.6759 53.5687 34.6701 53.5817 34.659 53.5913C34.6268 53.6187 34.5988 53.6481 34.5751 53.6816C34.5622 53.6997 34.5505 53.7171 34.5404 53.7364C34.5216 53.7721 34.5092 53.8093 34.4998 53.8484C34.495 53.868 34.4882 53.8863 34.486 53.9063C34.4808 53.9508 34.4849 53.9957 34.4926 54.0412C34.4951 54.0562 34.4933 54.071 34.4972 54.0858C34.4978 54.0878 34.4973 54.0898 34.4978 54.0917C34.5143 54.1504 34.5426 54.2029 34.5777 54.2503C34.5798 54.2532 34.58 54.2568 34.5823 54.2597L36.6842 56.981C36.71 57.9105 36.8453 66.8942 33.0248 78.3467C32.9742 78.499 33.002 78.665 33.0991 78.7944C33.1968 78.9238 33.3526 79 33.518 79H68.482C68.6474 79 68.8032 78.9238 68.9009 78.7944C68.998 78.665 69.0258 78.499 68.9752 78.3467C64.9639 66.3217 65.3554 57.2309 65.3599 57.1405C65.3609 57.1203 65.3523 57.1027 65.3508 57.083L67.5315 54.2597C67.5338 54.2568 67.534 54.2532 67.5361 54.2503C67.5712 54.2029 67.5995 54.1504 67.616 54.0917C67.6165 54.0898 67.6161 54.0878 67.6166 54.0858C67.6205 54.0711 67.6187 54.0563 67.6212 54.0414C67.629 53.9958 67.633 53.9508 67.6279 53.9062C67.6256 53.8862 67.6188 53.868 67.6141 53.8485C67.6046 53.8093 67.5922 53.7721 67.5734 53.7364C67.5633 53.7171 67.5516 53.6998 67.5388 53.6817C67.515 53.6481 67.487 53.6187 67.4548 53.5912C67.4437 53.5817 67.4379 53.5687 67.4258 53.56C67.4188 53.5549 67.4102 53.5542 67.403 53.5496C67.3939 53.5437 67.3878 53.5351 67.3783 53.5297C67.0044 53.3183 66.4101 53.1088 65.5876 52.8192C62.4092 51.6997 56.5225 49.6201 51.631 43.5452L59.1026 42.3177C59.6176 42.2328 59.9777 41.8216 59.9777 41.3172C59.9777 40.8129 59.6181 40.4012 59.1026 40.3163L51.1457 39.0072C50.996 38.9823 50.8412 39.0228 50.7248 39.1175C50.608 39.2128 50.5407 39.3524 50.5407 39.4999V43.4765C45.6379 49.6062 39.717 51.6954 36.5263 52.8192C35.7038 53.1088 35.1094 53.3183 34.7356 53.5297ZM55.8559 53.4609H46.2548C48.754 51.2001 50.32 47.4845 51.0551 45.3749C51.7914 47.4841 53.3579 51.1992 55.8559 53.4609ZM58.5736 78H43.5423C47.1669 73.5075 49.9596 64.0905 51.0579 59.9703C52.1562 64.0905 54.9489 73.5075 58.5736 78ZM52.731 62.0844C55.9851 67.2417 60.8695 72.4888 62.1104 73.792L59.4876 77.5098C56.5501 73.9668 54.0973 66.7436 52.731 62.0844ZM42.6283 77.5098L40.0055 73.792C41.2463 72.4887 46.1307 67.2417 49.3848 62.0844C48.0185 66.7436 45.5657 73.9668 42.6283 77.5098ZM51.0541 57.3056L48.7696 54.4609H53.3386L51.0541 57.3056ZM59.7637 54.4609L57.4784 57.3056L55.1939 54.4609H59.7637ZM46.9146 54.4609L44.6314 57.3051L42.3499 54.4609H46.9146ZM36.0299 54.4609H40.4949L38.2193 57.2953L36.0299 54.4609ZM37.7178 58.3192L37.7959 58.4203C37.8925 58.5458 38.0448 58.62 38.2062 58.6215C38.3873 58.6166 38.5213 58.5512 38.6204 58.4277L41.4223 54.9379L44.2217 58.4277C44.3198 58.5497 44.4711 58.6215 44.6314 58.6215C44.7918 58.6215 44.943 58.5497 45.0406 58.4277L47.842 54.9379L50.3904 58.1107C47.4779 64.6 39.0541 73.313 38.9675 73.4018C38.8015 73.5727 38.7808 73.832 38.9174 74.0254L41.7211 78H34.2257C37.1757 68.8766 37.6558 61.3665 37.7178 58.3192ZM67.7743 78H60.3947L63.1985 74.0254C63.335 73.832 63.3143 73.5727 63.1484 73.4018C63.0617 73.3129 54.6336 64.5968 51.7228 58.1046L54.2662 54.9374L57.0691 58.4277C57.1673 58.5502 57.318 58.6215 57.4784 58.6215C57.6387 58.6215 57.7895 58.5502 57.8876 58.4277L60.6915 54.9374L63.4934 58.4277C63.5915 58.5502 63.7428 58.6215 63.9026 58.6215C63.9041 58.6215 63.9056 58.6215 63.9077 58.6215C64.0682 58.62 64.2194 58.5461 64.3161 58.4218C64.3583 61.3368 64.7913 68.7777 67.7743 78ZM66.0839 54.4609L63.8945 57.2953L61.619 54.4609H66.0839ZM64.3948 53.4609H57.4936C54.9833 51.802 53.2802 48.2903 52.3644 45.9231C56.67 50.4248 61.4896 52.4117 64.3948 53.4609ZM51.5767 40.0946L58.9286 41.3319L51.5767 42.5394V40.0946ZM49.7456 45.9275C48.831 48.2942 47.1299 51.8022 44.6167 53.4604L44.6162 53.4608H37.719C40.6233 52.412 45.4408 50.4261 49.7456 45.9275Z" fill="black" stroke="black" stroke-width="0.7"/>
</svg>
