<?xml version="1.0" encoding="UTF-8"?><svg id="a" xmlns="http://www.w3.org/2000/svg" viewBox="0 0 1024 768"><g id="b"><path id="c" d="m490.78,223c-9.69-.09-19.43,2.03-28.23,6.3-.76.37-1.54.77-2.33,1.19-19.27,9.97-34.95,21.64-50.27,33.32-13.06,5.86-33.96,11.39-36.11,26.08-.34,2.33-1.47,4.76-2.51,5.4-1.53.94-2.37.54-4.4-2.06-8.22-10.56-29.95-29.06-39.96-34.01-5.42-2.68-7.22-2.99-17.31-2.98-13.66.02-22.42,1.45-36.38,5.94-22.66,7.29-38.99,17.57-43.08,27.11-1.32,3.09-1.4,4.96-.38,10.01,2.4,11.91,11.9,23.87,28.25,35.55,3.36,2.4,22.36,11.9,26.93,13.47,11.68,4,20.95,5.43,35.1,5.42,18.83-.01,31.43-2.8,50.96-11.25-9.32,16-9.98,25.67-8.34,35.64.19,3.85,1.09,8.1,2.69,12.71.21.59.41,1.16.63,1.71,5.97,16.47,15.06,38.49,24.9,64.63,6.91,27.08,16.23,55.4,29.29,89.28l3.09,8.01-3.98,12.14c-5.63,17.16-7.14,26.35-5.44,33.02,1.76,6.88,3.92,10,8.27,11.93,3.11,1.38,7.24,1.65,12.33.84-.29,2.74,1.2,5.24,5.43,7.14,2.42,1.09,11.99,9.47,21.22,12.16,9.39,2.73,43.76,3.78,53.53,2.4,7.32-1.03,20.94-9.84,25.7-11.14,10.38-2.85,12.85-6.7,11.34-10.45,6.9,0,7.75-.33,10.42-3.14,7.01-7.38,6.8-21.58-.64-42.74l-4.26-12.13,7.55-19.47c10.49-27.07,18.99-53.71,25.48-79.94.23-.94.39-1.59.61-2.47,14.02-33.84,21.64-49.78,24.75-62.45,1.23-3.8,1.93-8.01,2.01-12.45.05-2.82-.15-5.35-.58-7.6-.11-1.23-.24-2.5-.4-3.83.88-4.05-12.75-25.88-.98-20.7,20.57,9.05,28.34,8.58,47.87,7.83,15.71-.6,21.67-1.59,32.66-5.43,34.48-12.04,62.02-41.56,54.62-58.53-5.78-13.27-32.45-26.71-63.83-32.18-27.29-4.75-37.31-.35-66.31,29.19-5.15,5.24-10.01,9.53-10.8,9.53s-1.93-2.27-2.58-5.18c-2.63-11.92-7.66-18.45-17.45-22.62-22.29-9.43-32.71-12.6-59.8-31.97-.82-.62-1.57-1.17-2.19-1.56-3.38-2.17-10.16-5.52-15.07-7.45-6.99-2.75-14.49-4.15-22.02-4.22h0Z"/></g></svg>