<?xml version="1.0" encoding="UTF-8"?>
<svg id="Layer_2" data-name="Layer 2" xmlns="http://www.w3.org/2000/svg" xmlns:xlink="http://www.w3.org/1999/xlink" viewBox="0 0 953.77 1046.87">
  <defs>
    <style>
      .cls-1 {
        stroke: #4c7ebf;
        stroke-width: 11px;
      }

      .cls-1, .cls-2, .cls-3 {
        stroke-miterlimit: 10;
      }

      .cls-2 {
        filter: url(#outer-glow-1);
        stroke-width: 5px;
      }

      .cls-2, .cls-3 {
        stroke: #000;
      }

      .cls-3 {
        fill: none;
        stroke-width: 25px;
      }
    </style>
    <filter id="outer-glow-1" filterUnits="userSpaceOnUse">
      <feOffset dx="0" dy="0"/>
      <feGaussianBlur result="blur" stdDeviation="20"/>
      <feFlood flood-color="#4c7ebe" flood-opacity=".75"/>
      <feComposite in2="blur" operator="in"/>
      <feComposite in="SourceGraphic"/>
    </filter>
  </defs>
  <g id="svg8">
    <path class="cls-3" d="M941.25,285.79c.46-37.03-6.55-74.09-21.48-108.04-39.67-90.25-133.35-154.14-231.86-158.11s-197.03,52.15-243.85,138.91c-3.41,6.31-6.73,12.98-12.41,17.37-7.62,5.89-17.9,6.54-27.5,7.28-125.84,9.72-245.84,78.69-317.6,182.53C-29.61,533.83-6.47,766.12,137.41,909.69c51.09,50.98,114.77,89.62,184.34,109.29,138.58,39.18,296.22,2.07,402.77-94.82,106.55-96.89,158.43-250.31,132.55-391.98-2.37-12.96-5.33-26.36-2.13-39.14,3.67-14.65,14.8-26.03,24.55-37.56,39.72-46.95,61-108.28,61.75-169.69Z"/>
    <path class="cls-2" d="M565.85,330.21c-.44,2.6-.06,6.01-1.45,7.69-27.06,32.65-53.93,65.49-81.79,97.35-9.05,10.35-30.16,3.14-50.52-15.06-19.54-17.47-32.23-41-28.87-54.16,.82-3.19,2.85-5.52,5.11-7.44,36.1-30.61,72.65-60.74,108.25-91.87,7.04-6.16,14.65-1.98,28.33,12.17,28.9,29.87,58.43,59.19,92.77,93.86,65.99-65.38,131.48-130.25,196.97-195.13,2.91,2.86,5.82,5.73,8.73,8.59-3.08,4.74-5.44,10.21-9.35,14.11-58.45,58.23-117.13,116.23-175.7,174.34-5.14,5.1-14.38,8.67,10.32,27.39,67.9-67.27,135.9-134.63,205.1-203.18-37.15-37.5-73.43-75.45-111.11-111.61-19.59-18.8-29.03-12.99-36.17-5.88-55.32,55.04-110.81,109.9-166.25,164.81-4.79,4.75-9.58,9.49-14.37,14.24-2.69-2.44-5.38-4.88-8.07-7.32,1.6-3.58,2.34-8.03,4.93-10.61,58.45-58.23,116.96-116.41,175.86-174.18,11.96-11.73,32.7-3.8,59.64,22.8,32.84,32.42,64.86,65.73,97.67,98.19,14.44,14.29,13.98,19.22,8.21,24.86-66.5,64.93-132.76,130.11-198,196.32-8.95,9.08-18.06,4.63-37.01-15.06-38.05-39.54-77.13-78.2-121.62-123.1-14.21,14.08-27,27.8-40.94,40.32-21.47,19.28-43.89,37.56-65.58,56.62-10.84,9.53-6.59,24.09,12.09,42.03,21.61,20.77,32.33,18.87,39.58,10.4,24.96-29.14,49.88-58.33,74.91-87.4,3.4-3.95,7.35-7.36,11.05-11.03,2.42,2.31,4.85,4.62,7.27,6.93Z"/>
    <g id="layer1">
      <path id="path847-8-8-5" class="cls-1" d="M461.9,477.7c-10.54-.09-21.15,2.21-30.72,6.86-.83,.4-1.67,.84-2.53,1.3-20.98,10.85-38.03,23.56-54.71,36.26-14.21,6.37-36.96,12.4-39.3,28.39-.37,2.54-1.6,5.19-2.73,5.88-1.66,1.02-2.58,.59-4.79-2.25-8.94-11.49-32.6-31.63-43.49-37.01-5.9-2.92-7.86-3.26-18.84-3.24-14.86,.02-24.4,1.58-39.6,6.47-24.66,7.93-42.44,19.12-46.88,29.5-1.44,3.37-1.52,5.4-.41,10.9,2.61,12.96,12.95,25.98,30.74,38.7,3.66,2.61,24.34,12.96,29.31,14.66,12.71,4.35,22.8,5.9,38.2,5.89,20.5-.01,34.21-3.04,55.46-12.25-10.14,17.41-10.86,27.94-9.08,38.79,.21,4.2,1.19,8.82,2.93,13.83,.22,.64,.45,1.26,.68,1.86,6.49,17.93,16.39,41.9,27.1,70.34,7.52,29.47,17.66,60.29,31.88,97.17l3.36,8.72-4.34,13.22c-6.13,18.67-7.78,28.68-5.92,35.93,1.91,7.49,4.26,10.88,9,12.98,3.38,1.5,7.89,1.79,13.42,.91-.32,2.98,1.3,5.7,5.91,7.77,2.64,1.18,13.05,10.31,23.09,13.23,10.22,2.97,47.62,4.12,58.27,2.61,7.96-1.12,22.8-10.71,27.97-12.13,11.3-3.1,13.98-7.29,12.34-11.37,7.51,0,8.44-.36,11.34-3.42,7.63-8.03,7.4-23.48-.7-46.52l-4.64-13.2,8.21-21.19c11.42-29.46,20.66-58.46,27.74-87.01,.25-1.02,.43-1.73,.66-2.69,15.25-36.84,23.55-54.18,26.94-67.96,1.33-4.14,2.1-8.72,2.19-13.55,.05-3.07-.16-5.82-.63-8.27-.12-1.34-.26-2.72-.43-4.16,.96-4.4-13.88-28.16-1.06-22.53,22.39,9.84,30.84,9.34,52.1,8.52,17.09-.66,23.58-1.74,35.54-5.91,37.53-13.11,67.5-45.23,59.45-63.71-6.3-14.44-35.32-29.08-69.47-35.03-29.71-5.18-40.61-.38-72.17,31.76-5.6,5.71-10.89,10.38-11.75,10.38s-2.1-2.47-2.8-5.63c-2.87-12.98-8.34-20.08-18.99-24.62-24.26-10.26-35.6-13.71-65.08-34.8-.89-.67-1.71-1.27-2.38-1.7-3.68-2.36-11.06-6.01-16.41-8.11-7.61-2.99-15.77-4.52-23.97-4.59h0Z"/>
    </g>
  </g>
</svg>