<?xml version="1.0" encoding="UTF-8"?><svg id="a" xmlns="http://www.w3.org/2000/svg" xmlns:xlink="http://www.w3.org/1999/xlink" viewBox="0 0 1024 768"><defs><filter id="b" filterUnits="userSpaceOnUse"><feOffset dx="0" dy="0"/><feGaussianBlur result="c" stdDeviation="20"/><feFlood flood-color="#4c7ebe" flood-opacity=".75"/><feComposite in2="c" operator="in"/><feComposite in="SourceGraphic"/></filter></defs><path d="m525,136.68h13.22v8.76h100.67v-8.38h13.3v8.31h100.58v-8.25h13.22v164.92h-13.1v-34.21h-100.61v34.18h-13.33v-34.16h-100.62v34.69h-13.34v-165.87Zm13.29,57.99h100.52v-25.26h-100.52v25.26Zm113.98,0h100.51v-25.27h-100.51v25.27Zm-13.39,24.03h-100.49v25.2h100.49v-25.2Zm13.48-.13v25.34h100.42v-25.34h-100.42Z" filter="url(#b)"/><g id="d"><path id="e" d="m408.93,398.14c-6.11-.06-12.25,1.28-17.8,3.97-.48.23-.97.48-1.47.75-12.15,6.29-22.04,13.65-31.7,21.01-8.24,3.69-21.41,7.18-22.77,16.45-.22,1.47-.93,3-1.58,3.41-.96.59-1.5.34-2.77-1.3-5.18-6.66-18.89-18.33-25.2-21.45-3.42-1.69-4.56-1.89-10.92-1.88-8.61.01-14.14.91-22.94,3.75-14.29,4.6-24.59,11.08-27.17,17.09-.84,1.95-.88,3.13-.24,6.32,1.51,7.51,7.51,15.05,17.81,22.42,2.12,1.51,14.1,7.51,16.98,8.49,7.37,2.52,13.21,3.42,22.13,3.42,11.88,0,19.82-1.76,32.14-7.1-5.87,10.09-6.29,16.19-5.26,22.47.12,2.43.69,5.11,1.7,8.01.13.37.26.73.39,1.08,3.76,10.39,9.5,24.28,15.7,40.76,4.36,17.08,10.23,34.94,18.47,56.3l1.95,5.05-2.51,7.66c-3.55,10.82-4.51,16.62-3.43,20.82,1.11,4.34,2.47,6.31,5.21,7.52,1.96.87,4.57,1.04,7.77.53-.18,1.73.76,3.3,3.43,4.5,1.53.69,7.56,5.97,13.38,7.67,5.92,1.72,27.59,2.39,33.76,1.51,4.61-.65,13.21-6.2,16.21-7.03,6.55-1.8,8.1-4.22,7.15-6.59,4.35,0,4.89-.21,6.57-1.98,4.42-4.65,4.29-13.61-.41-26.95l-2.69-7.65,4.76-12.28c6.62-17.07,11.97-33.87,16.07-50.42.15-.59.25-1,.38-1.56,8.84-21.34,13.64-31.4,15.61-39.38.77-2.4,1.22-5.05,1.27-7.85.03-1.78-.09-3.37-.37-4.79-.07-.78-.15-1.58-.25-2.41.56-2.55-8.04-16.32-.62-13.05,12.97,5.7,17.87,5.41,30.19,4.94,9.9-.38,13.66-1.01,20.59-3.43,21.74-7.59,39.11-26.21,34.45-36.91-3.65-8.37-20.47-16.85-40.25-20.29-17.21-3-23.53-.22-41.82,18.41-3.25,3.31-6.31,6.01-6.81,6.01s-1.22-1.43-1.62-3.26c-1.66-7.52-4.83-11.63-11-14.27-14.06-5.95-20.63-7.95-37.71-20.16-.52-.39-.99-.74-1.38-.99-2.13-1.37-6.41-3.48-9.51-4.7-4.41-1.73-9.14-2.62-13.89-2.66h0Z"/></g></svg>