<?xml version="1.0" encoding="UTF-8"?><svg id="a" xmlns="http://www.w3.org/2000/svg" xmlns:xlink="http://www.w3.org/1999/xlink" viewBox="0 0 1024 768"><defs><filter id="d" filterUnits="userSpaceOnUse"><feOffset dx="0" dy="0"/><feGaussianBlur result="e" stdDeviation="20"/><feFlood flood-color="#4c7ebe" flood-opacity=".75"/><feComposite in2="e" operator="in"/><feComposite in="SourceGraphic"/></filter></defs><g id="b"><path id="c" d="m399,397.97c-6.11-.06-12.25,1.28-17.8,3.97-.48.23-.97.48-1.47.75-12.15,6.29-22.04,13.65-31.7,21.01-8.24,3.69-21.41,7.18-22.77,16.45-.22,1.47-.93,3-1.58,3.41-.96.59-1.5.34-2.77-1.3-5.18-6.66-18.89-18.33-25.2-21.45-3.42-1.69-4.56-1.89-10.92-1.88-8.61.01-14.14.91-22.94,3.75-14.29,4.6-24.59,11.08-27.17,17.09-.84,1.95-.88,3.13-.24,6.32,1.51,7.51,7.51,15.05,17.81,22.42,2.12,1.51,14.1,7.51,16.98,8.49,7.37,2.52,13.21,3.42,22.13,3.42,11.88,0,19.82-1.76,32.14-7.1-5.87,10.09-6.29,16.19-5.26,22.47.12,2.43.69,5.11,1.7,8.01.13.37.26.73.39,1.08,3.76,10.39,9.5,24.28,15.7,40.76,4.36,17.08,10.23,34.94,18.47,56.3l1.95,5.05-2.51,7.66c-3.55,10.82-4.51,16.62-3.43,20.82,1.11,4.34,2.47,6.31,5.21,7.52,1.96.87,4.57,1.04,7.77.53-.18,1.73.76,3.3,3.43,4.5,1.53.69,7.56,5.97,13.38,7.67,5.92,1.72,27.59,2.39,33.76,1.51,4.61-.65,13.21-6.2,16.21-7.03,6.55-1.8,8.1-4.22,7.15-6.59,4.35,0,4.89-.21,6.57-1.98,4.42-4.65,4.29-13.61-.41-26.95l-2.69-7.65,4.76-12.28c6.62-17.07,11.97-33.87,16.07-50.42.15-.59.25-1,.38-1.56,8.84-21.34,13.64-31.4,15.61-39.38.77-2.4,1.22-5.05,1.27-7.85.03-1.78-.09-3.37-.37-4.79-.07-.78-.15-1.58-.25-2.41.56-2.55-8.04-16.32-.62-13.05,12.97,5.7,17.87,5.41,30.19,4.94,9.9-.38,13.66-1.01,20.59-3.43,21.74-7.59,39.11-26.21,34.45-36.91-3.65-8.37-20.47-16.85-40.25-20.29-17.21-3-23.53-.22-41.82,18.41-3.25,3.31-6.31,6.01-6.81,6.01s-1.22-1.43-1.62-3.26c-1.66-7.52-4.83-11.63-11-14.27-14.06-5.95-20.63-7.95-37.71-20.16-.52-.39-.99-.74-1.38-.99-2.13-1.37-6.41-3.48-9.51-4.7-4.41-1.73-9.14-2.62-13.89-2.66h0Z"/></g><path d="m495.39,274.68c-.35,2.01-.05,4.65-1.15,5.95-21.46,25.26-42.76,50.66-64.86,75.31-7.18,8.01-23.91,2.43-40.06-11.65-15.49-13.51-25.55-31.72-22.89-41.9.65-2.47,2.26-4.27,4.05-5.75,28.63-23.68,57.61-46.99,85.84-71.07,5.59-4.77,11.62-1.53,22.47,9.41,22.92,23.11,46.33,45.79,73.57,72.61,52.33-50.58,104.26-100.76,156.2-150.95,2.31,2.22,4.61,4.43,6.92,6.65-2.44,3.67-4.31,7.9-7.42,10.91-46.35,45.04-92.88,89.92-139.33,134.87-4.08,3.95-11.4,6.71,8.19,21.19,53.85-52.04,107.77-104.15,162.64-157.18-29.46-29.01-58.23-58.37-88.11-86.34-15.53-14.55-23.02-10.05-28.68-4.55-43.87,42.58-87.87,85.02-131.83,127.5-3.8,3.67-7.6,7.34-11.4,11.01-2.13-1.89-4.26-3.77-6.4-5.66,1.27-2.77,1.86-6.21,3.91-8.21,46.35-45.04,92.75-90.05,139.46-134.74,9.48-9.07,25.93-2.94,47.29,17.64,26.04,25.08,51.44,50.85,77.45,75.96,11.45,11.05,11.09,14.87,6.51,19.23-52.74,50.23-105.28,100.66-157.01,151.87-7.1,7.03-14.32,3.59-29.35-11.65-30.17-30.59-61.17-60.49-96.44-95.23-11.27,10.89-21.41,21.5-32.47,31.19-17.02,14.91-34.81,29.06-52,43.8-8.6,7.37-5.22,18.64,9.58,32.52,17.14,16.07,25.64,14.6,31.39,8.05,19.8-22.54,39.55-45.12,59.4-67.61,2.7-3.06,5.83-5.7,8.76-8.53,1.92,1.79,3.84,3.57,5.77,5.36Z" filter="url(#d)" stroke="#000" stroke-miterlimit="10" stroke-width="11"/><ellipse cx="633.59" cy="118.76" rx="16.84" ry="16.43" fill="none" stroke="#000" stroke-miterlimit="10" stroke-width="11"/></svg>