<?xml version="1.0" encoding="UTF-8"?>
<svg id="Layer_2" data-name="Layer 2" xmlns="http://www.w3.org/2000/svg" xmlns:xlink="http://www.w3.org/1999/xlink" viewBox="0 0 953.77 1039.94">
  <defs>
    <style>
      .cls-1 {
        stroke: #4c7ebf;
        stroke-width: 11px;
      }

      .cls-1, .cls-2 {
        stroke-miterlimit: 10;
      }

      .cls-3 {
        filter: url(#outer-glow-1);
      }

      .cls-2 {
        fill: none;
        stroke: #000;
        stroke-width: 25px;
      }
    </style>
    <filter id="outer-glow-1" filterUnits="userSpaceOnUse">
      <feOffset dx="0" dy="0"/>
      <feGaussianBlur result="blur" stdDeviation="20"/>
      <feFlood flood-color="#4c7ebe" flood-opacity=".75"/>
      <feComposite in2="blur" operator="in"/>
      <feComposite in="SourceGraphic"/>
    </filter>
  </defs>
  <g id="svg8">
    <path class="cls-2" d="M941.25,278.86c.46-37.03-6.55-74.09-21.48-108.04-39.67-90.25-133.35-154.14-231.86-158.11s-197.03,52.15-243.85,138.91c-3.41,6.31-6.73,12.98-12.41,17.37-7.62,5.89-17.9,6.54-27.5,7.28-125.84,9.72-245.84,78.69-317.6,182.53C-29.61,526.9-6.47,759.19,137.41,902.76c51.09,50.98,114.77,89.62,184.34,109.29,138.58,39.18,296.22,2.07,402.77-94.82,106.55-96.89,158.43-250.31,132.55-391.98-2.37-12.96-5.33-26.36-2.13-39.14,3.67-14.65,14.8-26.03,24.55-37.56,39.72-46.95,61-108.28,61.75-169.69Z"/>
    <path class="cls-3" d="M487.84,155.62h21.4v10.62h162.93v-10.15h21.53v10.07h162.79v-10h21.4v199.82h-21.21v-41.45h-162.83v41.41h-21.58v-41.39h-162.85v42.03h-21.58V155.62Zm21.51,70.26h162.68v-30.61h-162.68v30.61Zm184.47,0h162.68v-30.62h-162.68v30.62Zm-21.67,29.11h-162.64v30.54h162.64v-30.54Zm21.81-.16v30.71h162.53v-30.71h-162.53Z"/>
    <g id="layer1">
      <path id="path847-8-8-5" class="cls-1" d="M454.01,470.77c-10.54-.09-21.15,2.21-30.72,6.86-.83,.4-1.67,.84-2.53,1.3-20.98,10.85-38.03,23.56-54.71,36.26-14.21,6.37-36.96,12.4-39.3,28.39-.37,2.54-1.6,5.19-2.73,5.88-1.66,1.02-2.58,.59-4.79-2.25-8.94-11.49-32.6-31.63-43.49-37.01-5.9-2.92-7.86-3.26-18.84-3.24-14.86,.02-24.4,1.58-39.6,6.47-24.66,7.93-42.44,19.12-46.88,29.5-1.44,3.37-1.52,5.4-.41,10.9,2.61,12.96,12.95,25.98,30.74,38.7,3.66,2.61,24.34,12.96,29.31,14.66,12.71,4.35,22.8,5.9,38.2,5.89,20.5-.01,34.21-3.04,55.46-12.25-10.14,17.41-10.86,27.94-9.08,38.79,.21,4.2,1.19,8.82,2.93,13.83,.22,.64,.45,1.26,.68,1.86,6.49,17.93,16.39,41.9,27.1,70.34,7.52,29.47,17.66,60.29,31.88,97.17l3.36,8.72-4.34,13.22c-6.13,18.67-7.78,28.68-5.92,35.93,1.91,7.49,4.26,10.88,9,12.98,3.38,1.5,7.89,1.79,13.42,.91-.32,2.98,1.3,5.7,5.91,7.77,2.64,1.18,13.05,10.31,23.09,13.23,10.22,2.97,47.62,4.12,58.27,2.61,7.96-1.12,22.8-10.71,27.97-12.13,11.3-3.1,13.98-7.29,12.34-11.37,7.51,0,8.44-.36,11.34-3.42,7.63-8.03,7.4-23.48-.7-46.52l-4.64-13.2,8.21-21.19c11.42-29.46,20.66-58.46,27.74-87.01,.25-1.02,.43-1.73,.66-2.69,15.25-36.84,23.55-54.18,26.94-67.96,1.33-4.14,2.1-8.72,2.19-13.55,.05-3.07-.16-5.82-.63-8.27-.12-1.34-.26-2.72-.43-4.16,.96-4.4-13.88-28.16-1.06-22.53,22.39,9.84,30.84,9.34,52.1,8.52,17.09-.66,23.58-1.74,35.54-5.91,37.53-13.11,67.5-45.23,59.45-63.71-6.3-14.44-35.32-29.08-69.47-35.03-29.71-5.18-40.61-.38-72.17,31.76-5.6,5.71-10.89,10.38-11.75,10.38s-2.1-2.47-2.8-5.63c-2.87-12.98-8.34-20.08-18.99-24.62-24.26-10.26-35.6-13.71-65.08-34.8-.89-.67-1.71-1.27-2.38-1.7-3.68-2.36-11.06-6.01-16.41-8.11-7.61-2.99-15.77-4.52-23.97-4.59h0Z"/>
    </g>
  </g>
</svg>