<svg width="307" height="407" viewBox="0 0 307 407" fill="none" xmlns="http://www.w3.org/2000/svg">
<path d="M95.9375 162.8H115.125C120.214 162.8 125.094 160.656 128.693 156.84C132.291 153.023 134.312 147.847 134.312 142.45C134.312 137.053 132.291 131.877 128.693 128.06C125.094 124.244 120.214 122.1 115.125 122.1H95.9375C90.8487 122.1 85.9683 124.244 82.3699 128.06C78.7715 131.877 76.75 137.053 76.75 142.45C76.75 147.847 78.7715 153.023 82.3699 156.84C85.9683 160.656 90.8487 162.8 95.9375 162.8ZM95.9375 203.5C90.8487 203.5 85.9683 205.644 82.3699 209.46C78.7715 213.277 76.75 218.453 76.75 223.85C76.75 229.247 78.7715 234.423 82.3699 238.24C85.9683 242.056 90.8487 244.2 95.9375 244.2H211.062C216.151 244.2 221.032 242.056 224.63 238.24C228.228 234.423 230.25 229.247 230.25 223.85C230.25 218.453 228.228 213.277 224.63 209.46C221.032 205.644 216.151 203.5 211.062 203.5H95.9375ZM307 141.229C306.8 139.36 306.414 137.518 305.849 135.734V133.903C304.926 131.811 303.696 129.887 302.203 128.205L187.078 6.105C185.492 4.5221 183.678 3.21695 181.706 2.2385C181.133 2.15222 180.552 2.15222 179.979 2.2385C178.03 1.05293 175.877 0.291905 173.647 0H57.5625C42.296 0 27.6547 6.43204 16.8597 17.8811C6.0646 29.3302 0 44.8585 0 61.05V345.95C0 362.141 6.0646 377.67 16.8597 389.119C27.6547 400.568 42.296 407 57.5625 407H249.438C264.704 407 279.345 400.568 290.14 389.119C300.935 377.67 307 362.141 307 345.95V142.45C307 142.45 307 142.45 307 141.229ZM191.875 69.3935L241.571 122.1H211.062C205.974 122.1 201.093 119.956 197.495 116.14C193.897 112.323 191.875 107.147 191.875 101.75V69.3935ZM268.625 345.95C268.625 351.347 266.603 356.523 263.005 360.34C259.407 364.156 254.526 366.3 249.438 366.3H57.5625C52.4737 366.3 47.5932 364.156 43.9949 360.34C40.3965 356.523 38.375 351.347 38.375 345.95V61.05C38.375 55.6528 40.3965 50.4767 43.9949 46.6604C47.5932 42.844 52.4737 40.7 57.5625 40.7H153.5V101.75C153.5 117.941 159.565 133.47 170.36 144.919C181.155 156.368 195.796 162.8 211.062 162.8H268.625V345.95ZM211.062 284.9H95.9375C90.8487 284.9 85.9683 287.044 82.3699 290.86C78.7715 294.677 76.75 299.853 76.75 305.25C76.75 310.647 78.7715 315.823 82.3699 319.64C85.9683 323.456 90.8487 325.6 95.9375 325.6H211.062C216.151 325.6 221.032 323.456 224.63 319.64C228.228 315.823 230.25 310.647 230.25 305.25C230.25 299.853 228.228 294.677 224.63 290.86C221.032 287.044 216.151 284.9 211.062 284.9Z" fill="black"/>
</svg>
