<svg width="106" height="133" viewBox="0 0 106 133" fill="none" xmlns="http://www.w3.org/2000/svg">
<path d="M33.0723 52.9157H39.6867C41.441 52.9157 43.1234 52.2188 44.3639 50.9783C45.6043 49.7379 46.3012 48.0555 46.3012 46.3012C46.3012 44.5469 45.6043 42.8645 44.3639 41.6241C43.1234 40.3836 41.441 39.6867 39.6867 39.6867H33.0723C31.318 39.6867 29.6356 40.3836 28.3952 41.6241C27.1547 42.8645 26.4578 44.5469 26.4578 46.3012C26.4578 48.0555 27.1547 49.7379 28.3952 50.9783C29.6356 52.2188 31.318 52.9157 33.0723 52.9157ZM33.0723 66.1446C31.318 66.1446 29.6356 66.8415 28.3952 68.0819C27.1547 69.3224 26.4578 71.0048 26.4578 72.759C26.4578 74.5133 27.1547 76.1957 28.3952 77.4362C29.6356 78.6766 31.318 79.3735 33.0723 79.3735H72.759C74.5133 79.3735 76.1957 78.6766 77.4362 77.4362C78.6766 76.1957 79.3735 74.5133 79.3735 72.759C79.3735 71.0048 78.6766 69.3224 77.4362 68.0819C76.1957 66.8415 74.5133 66.1446 72.759 66.1446H33.0723ZM105.831 45.9043C105.762 45.2967 105.629 44.6981 105.434 44.1184V43.5231C105.116 42.843 104.692 42.2179 104.178 41.6711L64.491 1.98434C63.9442 1.46984 63.319 1.04562 62.6389 0.72759C62.4415 0.699546 62.2411 0.699546 62.0436 0.72759C61.3717 0.34224 60.6296 0.0948791 59.8608 0H19.8434C14.5806 0 9.53334 2.09064 5.81199 5.81199C2.09064 9.53334 0 14.5806 0 19.8434V112.446C0 117.709 2.09064 122.756 5.81199 126.477C9.53334 130.199 14.5806 132.289 19.8434 132.289H85.9879C91.2507 132.289 96.298 130.199 100.019 126.477C103.741 122.756 105.831 117.709 105.831 112.446V46.3012C105.831 46.3012 105.831 46.3012 105.831 45.9043ZM66.1446 22.5553L83.276 39.6867H72.759C71.0048 39.6867 69.3224 38.9899 68.0819 37.7494C66.8415 36.509 66.1446 34.8266 66.1446 33.0723V22.5553ZM92.6024 112.446C92.6024 114.2 91.9055 115.882 90.6651 117.123C89.4246 118.363 87.7422 119.06 85.9879 119.06H19.8434C18.0891 119.06 16.4067 118.363 15.1662 117.123C13.9258 115.882 13.2289 114.2 13.2289 112.446V19.8434C13.2289 18.0891 13.9258 16.4067 15.1662 15.1662C16.4067 13.9258 18.0891 13.2289 19.8434 13.2289H52.9157V33.0723C52.9157 38.3351 55.0063 43.3823 58.7276 47.1037C62.449 50.825 67.4962 52.9157 72.759 52.9157H92.6024V112.446ZM72.759 92.6024H33.0723C31.318 92.6024 29.6356 93.2993 28.3952 94.5397C27.1547 95.7802 26.4578 97.4626 26.4578 99.2169C26.4578 100.971 27.1547 102.654 28.3952 103.894C29.6356 105.134 31.318 105.831 33.0723 105.831H72.759C74.5133 105.831 76.1957 105.134 77.4362 103.894C78.6766 102.654 79.3735 100.971 79.3735 99.2169C79.3735 97.4626 78.6766 95.7802 77.4362 94.5397C76.1957 93.2993 74.5133 92.6024 72.759 92.6024Z" fill="black"/>
</svg>
