<svg width="103" height="126" viewBox="0 0 103 126" fill="none" xmlns="http://www.w3.org/2000/svg">
<path d="M51.5 25C35.7599 25 23 41.9461 23 62.8501C23 75.5778 28.7309 86.3666 35.3343 93.9671L46.2322 106.511C51.5 113.83 51.5 113.83 56.7678 106.511L67.6657 93.9671C74.2691 86.3666 80 75.5778 80 62.8501C80 41.9461 67.2401 25 51.5 25Z" fill="#575757"/>
<path d="M42.0632 75V71.1222L51.1239 62.7326C51.8945 61.9869 52.5408 61.3157 53.0629 60.7191C53.5932 60.1225 53.995 59.5384 54.2685 58.9666C54.5419 58.3866 54.6786 57.761 54.6786 57.0898C54.6786 56.3441 54.5088 55.7019 54.169 55.1634C53.8293 54.6165 53.3653 54.198 52.777 53.908C52.1887 53.6097 51.5217 53.4606 50.7759 53.4606C49.997 53.4606 49.3176 53.618 48.7376 53.9329C48.1576 54.2478 47.7101 54.6993 47.3952 55.2876C47.0804 55.8759 46.9229 56.5761 46.9229 57.3881H41.8146C41.8146 55.7227 42.1916 54.2768 42.9457 53.0504C43.6997 51.8241 44.7562 50.8754 46.1151 50.2042C47.474 49.533 49.04 49.1974 50.8132 49.1974C52.6361 49.1974 54.2229 49.5206 55.5735 50.1669C56.9324 50.8049 57.9889 51.6915 58.7429 52.8267C59.4969 53.9619 59.8739 55.2628 59.8739 56.7294C59.8739 57.6906 59.6834 58.6393 59.3022 59.5756C58.9293 60.512 58.2623 61.5518 57.3011 62.6953C56.34 63.8305 54.9852 65.1935 53.2369 66.7844L49.5206 70.4261V70.6001H60.2095V75H42.0632Z" fill="white"/>
</svg>
