<svg width="103" height="126" viewBox="0 0 103 126" fill="none" xmlns="http://www.w3.org/2000/svg">
<path d="M49.125 19.4167C33.3849 19.4167 20.625 36.3627 20.625 57.2668C20.625 69.9945 26.3559 80.7833 32.9593 88.3838L43.8572 100.927C49.125 108.246 49.125 108.246 54.3928 100.927L65.2907 88.3838C71.8941 80.7833 77.625 69.9945 77.625 57.2668C77.625 36.3627 64.8651 19.4167 49.125 19.4167Z" fill="#C95300"/>
<path d="M63.5445 56.9911C63.5445 65.2068 57.2321 71.8214 49.5 71.8214C41.7679 71.8214 35.4556 65.2068 35.4556 56.9911C35.4556 48.7754 41.7679 42.1607 49.5 42.1607C57.2321 42.1607 63.5445 48.7754 63.5445 56.9911Z" fill="white" stroke="white"/>
</svg>
