<svg width="103" height="126" viewBox="0 0 103 126" fill="none" xmlns="http://www.w3.org/2000/svg">
<path d="M52.013 112.617C54.0284 111.347 61.9582 106.089 69.3846 97.5771C76.8108 89.0652 83.7375 77.2947 83.7375 63C83.7375 39.3549 68.7013 23.575 51.5 23.575C34.8744 23.575 19.2625 39.3543 19.2625 63C19.2625 77.2947 26.1892 89.0652 33.6154 97.5771C41.0418 106.089 48.9716 111.347 50.987 112.617C51.3125 112.822 51.6875 112.822 52.013 112.617Z" fill="#222222" stroke="#222222" stroke-width="0.1"/>
<path d="M68.1667 63C68.1667 74.4208 60.6152 83.5 51.5 83.5C42.3847 83.5 34.8333 74.4208 34.8333 63C34.8333 51.5792 42.3847 42.5 51.5 42.5C60.6152 42.5 68.1667 51.5792 68.1667 63Z" fill="white" stroke="white"/>
<ellipse cx="51.5" cy="62.5" rx="24.5" ry="29.5" fill="white"/>
<path d="M51.0318 40.9482C50.9219 40.9704 50.8156 41.0144 50.7224 41.0809C50.5358 41.2131 50.4139 41.4192 50.3875 41.6467C50.3786 41.7262 49.4026 49.7731 44.8221 62.1051C44.7639 62.2618 44.6949 62.4383 44.6179 62.6284L49.9036 65.7483C50.6604 64.9214 51.0159 65.0435 51.0215 65.0449C55.1367 66.8036 55.968 67.1868 55.976 67.1899C56.1695 67.2798 56.3924 67.2896 56.5936 67.2163L56.5966 67.2152C56.799 67.1407 58.9104 67.4119 59 67.2163C64.2026 55.9297 64.5847 44.8136 64.6087 44.707C64.6328 44.6005 64.4271 43.8478 63.9939 43.7515L51.3653 40.9507C51.2544 40.9259 51.1418 40.9259 51.0318 40.9482ZM53.3276 45.2484C53.9563 45.0196 54.6519 45.3428 54.8801 45.9698C55.1083 46.5969 54.7833 47.2916 54.1545 47.5204C53.5258 47.7492 52.8303 47.426 52.6021 46.799C52.3738 46.1719 52.6989 45.4773 53.3276 45.2484ZM43.9773 64.1263C42.6045 67.2229 40.2438 72.0423 38.8382 74.9116C38.2666 76.0794 37.8307 76.9675 37.644 77.3665C37.3112 78.0777 37.4434 78.8152 38.02 79.4424C39.2995 80.8361 42.9664 81.6104 43.6794 81.3509C44.6263 81.0062 44.6642 80.0319 44.7081 78.9027C44.7638 77.4965 44.8479 75.3706 46.2108 72.4594L46.4246 71.9946C46.7403 71.3051 47.3024 70.0823 47.6514 69.3755C48.136 68.3938 48.5611 67.642 48.936 67.0536L43.9773 64.1263Z" fill="#222222"/>
</svg>
