<svg xmlns="http://www.w3.org/2000/svg" xml:space="preserve" viewBox="0 0 1148 990"><path fill="#FFF" d="M1149 732v259c-155.357 0-310.713 0-466.408-.378 9.367-1.158 15.645-7.149 19.186-15.293 7.846-18.045 15.003-36.397 22.179-54.726 8.225-21.009 16.168-42.128 24.23-63.2 2.03-5.308 4.043-10.622 6.184-16.248H734.5l-29.49 85.968-10.021-27.884c-6.66-18.529-13.284-37.07-20.072-55.552-.418-1.139-2.1-2.518-3.245-2.567-6.063-.255-12.141-.12-18.607-.12 2.002 5.064 3.801 9.689 5.656 14.29 11.07 27.47 22.242 54.9 33.152 82.433 1.993 5.031 4.96 10.148 1.233 16.018-2.017 3.177-2.698 7.171-4.278 10.663-3.331 7.362-11.329 11.312-19.006 9.48-1.837-.438-3.58-1.274-5.822-2.095 0 3.365.256 6.357-.057 9.288-.532 4.985-.215 9.202 6.057 9.923-127.69 0-255.38 0-383.403-.382 8.08-1.409 15.475-4.653 21.73-10.438 10.159-9.397 13.325-21.84 13.512-34.778.481-33.304.164-66.62.151-99.93 0-1.434-.146-2.867-.218-4.177h-17v13.623c-5.313-8.605-11.98-13.702-20.612-15.112-6.294-1.027-12.849-1.025-19.25-.717-13.294.637-23.607 7.494-30.772 18.082-11.526 17.03-13.412 36.075-8.626 55.804 3.566 14.699 11.565 26.042 25.632 32.72 7.575 3.597 15.499 3.289 23.499 3.344 7.372.052 14.04-2.072 19.96-6.252 3.974-2.807 7.546-6.183 10.555-8.686-.607 5.25-.83 12.178-2.315 18.822-2.061 9.212-7.385 16.322-16.035 20.795-6.88 3.56-14.387 3.118-21.26 1.976-10.501-1.745-18.2-5.872-20.051-16.48-6.113-.007-12.225-.007-18.73-.007.477 1.036 1.046 1.73 1.098 2.462.966 13.517 8.928 21.315 21 25.712 3.664 1.336 7.42 2.42 11.135 3.619H1c0-14.021 0-28.046.468-42.535C7.537 948 13.138 948 19 948V1c80.023 0 160.047 0 240.238.287 1.046 1.914 1.925 3.542 3.387 6.25l-6.329-4.136v11.204l5.302-3.442.464.648-7.945 12.917h8.508c1.347-2.508-1.152-6.298 3.467-8.757v8.86h8.184l-6.96-11.603 1.03-.87 3.529 1.963V3.509l-6.058 4.22L269 1h880c0 216.69 0 433.38-.39 650.394-1.91-4.87-2.462-10.642-5.14-15.149-7.374-12.405-25.7-18.082-41.435-13.828-9.532 2.577-18.308 6.29-24.31 16.39v-55.494h-17.41v148.369H1078c0-20.138-.21-39.96.139-59.773.095-5.392 1.196-11 3.027-16.08 4.046-11.225 13.236-16.301 24.485-17.76 12.994-1.683 25.044 6.827 24.56 20.93-.784 22.806-.215 45.657-.201 68.49 0 1.437.141 2.873.227 4.511H1149M258.994 39.996v13.027l3.932-.373V39.486c-1.106-.382-2.14-.739-3.664-1.674l-.245-2.27h11.667l-4.436 4.452V52.75h3.672V39.326c4.135 1.551 6.666.782 6.328-2.603 2.46-.444 4.492-.81 6.523-1.178-.416-1.78-.296-4.601-1.35-5.146-3.022-1.56-5.11.163-5.682 3.34l-3.368-1.183 1.734-4.257H254.8l1.136 4.047-3.263 2.176c-.806-1.521-1.28-3.823-2.448-4.256-1.379-.51-3.356.594-5.091 1.003-.128-4.054-3.08-3.745-5.593-2.887-.826.283-1.674 3.05-1.206 4.098 1.416 3.172 3.866 3.412 6.062 2.287l7.7 2.55c1.052 2.285 3.202 3.937 6.897 2.68m141.047 215.997c-11.295.61-20.586-4.736-29.73-10.25-11.567-6.973-22.638-14.84-34.532-21.182-11.68-6.229-22.208-5.017-29.215 3.56-2.87 3.514-4.365 8.132-6.606 12.18-6.16 11.131-5.29 13.922 6.283 19.727 1.01.506 1.968 1.113 2.973 1.628 1.208.619 2.44 1.19 3.661 1.78l-1.27 1.736c-31.625 10.021-63.154 10.465-94.702-1.061 3.998-3.231 8.195-5.564 12.221-8.162 3.768-2.43 5.088-5.798 2.867-10.033-2.984-5.688-5.82-11.467-9.1-16.98-1.189-1.999-3.28-3.643-5.29-4.938-8.195-5.284-16.694-3.594-24.42.55-9.9 5.31-19.185 11.758-28.827 17.562-12.018 7.235-23.568 15.98-39.604 13.074 3.573 2.503 7.007 4.36 9.764 6.939 9.861 9.225 20.373 10.35 31.74 3.155 8.43-5.334 16.666-10.983 25.207-16.13 6.491-3.913 13.005-8.136 22.305-8.153-1.54 1.124-2.126 1.584-2.743 1.998-9.293 6.214-10.746 10.648-4.367 20.357 2.129 3.242 3.318 7.258 4.267 11.085 1.96 7.912 5.834 13.94 14.305 15.55 9.833 1.87 19.688 4.242 29.624 4.81 15.555.89 31.18.238 46.4-3.825 7.714-2.06 13.493-5.978 15.93-14.452 1.827-6.355 5.45-12.177 8.016-18.345 1.412-3.393 1.94-6.94-1.354-9.85-2.548-2.253-5.038-4.573-8.358-7.595 10.206.922 17.532 5.686 24.905 10.215 8.362 5.136 16.363 10.9 24.947 15.618 6.605 3.63 14.019 5.8 21.2 1.165 5.279-3.407 10.172-7.41 15.683-11.53l.395-1.006c-.563.243-1.127.486-2.575.803M132.73 167.666c.118.135.236.271.27 1.17-1.667 6.333-3.16 12.718-5.038 18.988-3.252 10.856-5.482 16.493-16.662 13.263-.236 2.625.47 5.937-.868 7.69-5.67 7.435-4.507 14.98-1.735 23.152l5.31-5.785c.2 5.369-5.049 10.736.193 15.492l6.101-3.554c-1.003 3.69-2.097 6.066-2.134 8.46-.023 1.457 1.258 3.43 2.542 4.282 1.49.988 2.499-.046 3.294-1.955.405-.974 3.442-1.64 4.95-1.223 4.923 1.362 9.629 2.965 12.57-2.954 1.429 1.39 2.715 3.322 3.325 3.128 4.939-1.572 2.478-6.057 3.513-10.023 1.062 1.205 1.75 2.25 2.69 2.968.705.538 1.732.656 2.616.96-.009-2.814.878-6.117-.307-8.29-.963-1.767-4.35-2.778-6.773-3.026-2.525-.258-5.664.085-7.682 1.438-3.829 2.564-7.042 2.822-9.445-1.076-1.896-3.075-3.556-6.519-4.33-10.018-1.898-8.574.194-11.347 8.42-15.022 13.42-5.996 25.206-13.682 26.69-30.317.326-3.664.765-7.318 1.16-11.046 6.145 5.183 8.24 13.069 4.826 17.874-4.477 6.298-4.064 6.21-2.594 13.178 1.13 5.354 3.86 9.17 8.684 12.965v-8.064c3.602 5.324 1.937 14.52 11.779 13.418l-1.061-3.307.57-1.338c4.886 5.126 9.683 10.648 17.53 4.13l.733 5.823c5.354-.534 4.629-5.457 6.26-9.356l4.978 4.413c2.86-4.978 2.028-7.519-3.866-12.303-2.255-1.831-9.55-.786-14.172 2.755-4.855-3.896-10.2-7.755-15.026-12.18-4.801-4.405-4.08-7.516.987-11.475 3.019-2.36 6.595-5.202 7.7-8.558 2.159-6.557-.983-12.39-6.894-16.374-3.702-2.495-7.306-5.137-11.317-7.97 5.795-3.896 11.355-3.734 16.918-.925l3.144-6.115c.6 8.294.6 8.294 4.84 6.574l2.192 6.477c3.028-4.48 3.028-4.48 5.82-1.21-1.246 1.006-3.066 1.8-3.7 3.152-.855 1.822-1.816 4.799-.952 6.012 3.375 4.735-.729 3.403-2.726 3.869 1.685 4.678 3.771 5.205 9.69 2.822.114.139.227.278.26 1.128-2.055 2.218-2.88 4.725-2.008 7.735 3.684 12.713 9.128 24.423 18.784 33.84 1.33 1.297 2.627 2.97 3.136 4.705 1.594 5.433 4.78 7.557 10.569 7.008 1.988-.189 4.174.218 6.08.891 10.688 3.78 21.368 8.008 32.942 6.92 8.746-.821 16.335-4.645 22.886-11.913-3.844 0-6.866.654-9.47-.112-11.971-3.521-23.836-7.408-35.713-11.24-2.626-.848-4.19-2.47-2.741-5.458 6.183-.386 8.693-4 7.78-9.868-.52-3.346-.105-6.907.33-10.315.562-4.405 2.046-8.731 2.25-13.133.222-4.773-5.067-8.175-9.728-6.351-6.246 2.443-12.253 3.7-18.66.491-1.148-.575-3.12.494-4.712.803.347 1.19.674 2.384 1.047 3.565.385 1.22 1.113 2.411 1.178 3.642.584 11.038 6.165 18.56 15.862 23.489 1.603.815 2.613 2.797 4.227 4.61-4.076-.868-6.957-1.45-9.82-2.11-.906-.21-2.176-.362-2.577-.99-3.789-5.917-7.719-11.777-10.988-17.981-1.772-3.364-2.343-7.36-3.626-11.637l-2.58 4.319c-.83-4.795-1.68-9.707-2.167-15.016.112-.14.223-.281.896.081l3.504 9.299.496-4.707H263c0 12.328.03 24.305-.017 36.282-.015 4.015 1.537 8.874-5.832 9.41l.827 1.3 15.139 5.055 2.752-7.06c-9.192-.954-9.192-.954-8.648-7.227 1.354.247 2.757.638 4.179.73 1.989.13 4.058-.283 5.976.11 3.982.813 8.125.522 9.877-3.065 1.412-2.892 3.393-3.223 6.08-3.613.145.105.291.21 0 .83-3.47 2.968-6.637 6.445-10.502 8.75-3.357 2.003-5.246 4.351-6.343 7.988-.771 2.558-.333 3.631 2.216 4.193 4.067.897 8.047 2.334 12.153 2.877 5.692.753 10.644-.213 15.054-5.06 8.214-9.03 14.628-19.11 17.8-30.68 2.501-9.124 2.901-18.823 4.275-28.55l12.798 6.194 4.016-5.246c-4.647-8.514-6.121-9.495-12.715-8.176 0-1.504 0-2.986-.073-4.399 0 0-.07.074.673.173 7.432 4.046 8.685 3.945 13.686-1.145 3.284 5.363 8.01 8.435 14.117 10.11 5.181 1.422 9.87 4.165 12.014 9.466-4.46.487-8.825.429-12.873 1.53-6.027 1.641-11.096 4.38-12.828 11.612-1.475 6.157-.34 10.601 4.168 14.871 5.092 4.824 4.366 8.81-2.235 11.3-5.055 1.908-10.458 3.597-15.794 3.916-10.88.65-17.435 7.16-23.848 15.156 2.658 0 5.087-.668 6.844.135 4.022 1.836 7.377.896 10.86-1.079 3.391-1.923 1.594-4.627 1.26-7.146-.03-.237.304-.523.722-1.19 1.25 1.098 2.311 2.367 3.662 3.117 1.17.65 2.934 1.36 3.98.933 9.49-3.875 18.876-8.002 28.3-12.036 2.613-1.12 3.124-2.404.914-4.638-3.412-3.45-3.577-7.847-1.258-11.61 2.19-3.553 6.223-4.563 10.433-4.285.555 11.584 9.45 23.016 20.197 26.349C403 209.01 403 209.01 403 217.59v6.218c-2.61-4.99-7.26-6.889-11.417-4.919-3.03 1.436-5.425 3.502-3.952 7.089.712 1.734 2.576 3.816 4.246 4.162 3.192.66 6.618.192 9.885.192l-14.519 18.546 1.134 1.295c1.356-.322 2.712-.645 4.365-.518.114.139.227.278.602 1.174 1.161.057 2.335.25 3.482.148 6.732-.606 9.554-4.901 7.537-11.227-.187-.586.1-1.629.549-2.023.426-.374 1.683-.504 2.014-.176 3.629 3.593 5.005.38 5.818-2.22.7-2.238.34-4.809.452-7.327 7.639 2.427 12.077-.635 13.23-8.757 6.03 2.828 10.408 2.386 13.991-1.107 3.712-3.619 3.195-7.874 1.231-11.694-1.96-3.814-5.935-5.37-10.145-4.365-7.28 1.737-8.36 7.395-7.6 12.523l-12.113 3.14c.391.62.258.506.257.393-.023-4.166-.025-8.333-.05-12.499-.02-3.286.732-7.43-4.965-4.306-.583.32-1.766-.047-2.477-.442-3.339-1.854-5.259-8.34-3.901-12.11 1.92-5.333 3.65-10.734 5.677-16.745 1.565 4.22 2.696 8.65 4.81 12.546 1.84 3.393 4.256 7.115 7.426 8.928 2.305 1.319 6.254-.238 9.945-.554l-7.391-5.953.781-1.238c4.102 3.303 8.393 2.96 12.153.09 1.687-1.288 2.331-3.942 4.035-7.043l-3.117 1.191c-.317-5.703.14-11.492-1.119-16.88-1.888-8.085-9.19-12.434-14.512-18.139-3.476-3.725-7.177-7.525-9.47-11.966-1.5-2.905-1.537-7.245-.68-10.54 1.635-6.277 7.901-9.283 12.538-6.899-4.046 8.22-1.092 16.2 8.148 20.434 6.385 2.926 12.672 6.066 18.984 9.1.996-7.782-7.198-8.758-12.132-12.96l8.567-.451c-5.624-2.92-6.453-4.146-7.255-11.068-.523-4.523-2.907-7.285-7.098-8.59-2.567-.8-5.25-1.238-7.798-2.086-5.687-1.893-12.372.703-16.259 5.17-6.862 7.886-3.352 21.793 2.37 27.616 4.906 4.992 9.907 9.89 14.828 14.867 3.928 3.973 6.138 8.558 6.013 14.384-.093 4.317-1.643 7.408-5.606 8.75-4.029 1.364-7.606-.019-9.84-3.652-4.207-6.844-8.18-13.832-11.487-19.46 2.134-2.398 4.904-4.202 5.622-6.616 1.13-3.798-1.002-6.961-4.801-8.533-4.578-1.893-7.476.502-9.64 4.41-1.26-1.764-2.323-3.19-3.317-4.661-1.08-1.598-2.147-3.207-3.128-4.865-3.5-5.917-3.876-7.754.728-13.273 4.136-4.958 9.304-9.056 13.437-12.983-.968-2.663-1.53-4.207-2.282-6.28l6.514 3.581.853-15.794 6.109 1.325-3.003-23.822 2.98-1.703-12.716-13.7c-.152-1.622.108-3.889-.458-4.118-5.068-2.056-10.281-3.752-14.537-5.236l-9.904-10.94-1.852 9.142c-4.638-4.748-8.567-8.808-12.54-12.825-4.1-4.148-8.098-8.415-12.411-12.332-3.967-3.603-6.847-8.64-12.822-9.956 4.5 6.936 9.601 13.312 14.667 19.718 5.218 6.599 10.4 13.226 15.334 19.506-5.986 4.199-11.746 8.033-17.28 12.17-7.247 5.418-7.17 5.52-4.962 13.15.486 0 1.009.097 1.48-.018 1.242-.304 2.46-.7 4.083-.692.14.113.279.226-.078.892l-2.225 2.653 6.218 3.97c.392 1.343.657 2.916 1.305 4.31.862 1.857-3.69 15.065-5.395 15.216 1.653-3.118 1.715-6.478-1.64-7.899-2.168-.918-6.304-.77-7.588.664-1.823 2.035-2.406 5.723-2.261 8.643.043.861 4.332 2.073 6.671 2.065 1.58-.006 3.153-1.867 5.328-2.274l-6.618 13.862-3.743-3.155c1.269-5.629-1.671-8.918-7.1-8.307-1.556.175-3.368-.42-4.821-1.144-3.635-1.811-6.221-6.65-11.107-4.657-3.003 1.224-5.746 3.442-8.017 5.784-.432.446 1.894 3.565 2.948 5.451l.682-1.418c2.506 0 6.082-1.058 7.32.195 3.994 4.041 7.127 8.934 11.194 14.292h-11.2l-21.4-23.58c3.622-2.928 5.03-7.051 1.625-12.084-.38-.563-.443-1.648-.176-2.292 1.778-4.283 3.257-8.777 5.678-12.679 2.161-3.483 5.48-6.234 8.127-9.442.641-.777 1.209-2.39.83-3.086-1.037-1.909-1.43-3.072.725-4.636.713-.517.016-3.04-.118-4.64-.091-1.088-.15-2.232-.532-3.233-.757-1.978-1.728-3.873-2.61-5.802.039-4.687-1.417-6.325-5.211-5.617-1.244-1.865-1.968-4.019-3.418-4.769-1.048-.542-3.06.781-3.617.954-1.628-1.173-3.137-2.885-4.92-3.244-.73-.148-2.05 2.627-3.101 4.072l6.84 3.114.573-1.07 9.76 8.676c-3.625 2.517.11 4.432 1.787 6.65l-1.461.17.381 5.407-2.59 6.147L300.628 59l1.593 7.481-.971.337-3.219-5.18-3.316 9.882 5.818-.63c-3.604 3.446-6.83 4.05-10.436 2.13-1.49-.794-2.918-1.702-4.491-2.626l3.048-3.602 1.221 4.332 1.667.248c.485-2.543 1.52-5.148 1.24-7.604-.159-1.4-2.463-2.555-3.277-3.324l-2.373-11.689-2.59-.025-3.177 11.698c-.686.133-3.588.106-3.798.844-.773 2.723-.655 5.699-.872 8.58l1.598.242c.34-.627.53-1.534 1.054-1.816.807-.433 1.845-.436 2.785-.622-.108.994-.064 2.803-.346 2.856-3.318.617-6.76 1.576-10.01 1.168-1.947-.245-3.612-2.736-5.404-4.217l1.051-1.297 6.046 3.971V57.815l-6.036 4.063-.672-.726 5.827-6.696h-16.526l-.524.943 5.87 4.648-1.078 1.081-4.857-3.357v12.72c1.333-1.114 2.24-1.999 3.273-2.698.938-.634 2.012-1.067 3.792-1.983-3.898 5.827-8.467 7.682-13.553 6.151-2.696-.811-3.059-2.76-.885-4.932l3.679 3.94c0-4.18.434-6.989-.248-9.495-.223-.82-3.343-.853-3.686-.929l-4.17-12.89c-4.01 4.845-6.21 8.486-3.624 12.064-1.909 1.522-4.636 2.66-4.747 4.01-.202 2.47 1.145 5.065 1.847 7.607l1.246-.378 1.73-3.862 1.536.46c-.46 1.545-.45 3.605-1.47 4.539-3.248 2.975-7.505 2.46-11.13-1.25l5.508 1.182-3.828-9.668-4.16 4.596-.779-.492 2.421-7.966-7.603 2.78V42.733l4.319-6.068c1.906-.978 3.728-2.33 4.873-4.117.265-.414-1.784-2.31-2.768-3.524l-5.942 5.435c-3.195-.631-3.916.472-2.453 6.077-5.083 1.817-5.614 3.126-3.66 5.82-.55 2.913-1.208 4.877-1.202 6.839.004 1.658.773 3.315 1.212 4.97.284 1.07.272 2.785.925 3.098 6.115 2.93 7.749 9.052 10.123 14.421 1.772 4.007 5.03 7.756 2.201 13.187-1.594 3.06-.507 7.352 3.507 9.532-12.7 8.949-21.034 21.053-25.922 35.671l-3.69-3.017 18.26-28.24-6.599 1.997c-1.347-3.736-2.584-7.146-3.805-10.561-1.274-3.564-2.532-7.133-3.347-10.996.139-.114.278-.227 1.175-.264l4.65-1.573-8.998-10.837 6.725-1.912-2.114.591-11.119-16.478-1.333 2.105 7.32-3.784-9.63-3.126c-.84-4.56-.633-10.2-2.222-10.761-4.171-1.475-9.124-.737-13.766-.88-1.77 6.665-8.152 3.066-12.213 5.397 10.02-1.025 12.946-6.694 10.49-16.378-1.431.887-3.057 1.794-4.548 2.884-.406.297-.406 1.15-.593 1.746-.49-.47-1.135-.86-1.443-1.43-.782-1.447-1.413-2.975-2.105-4.471l-1.362.336-1.248 7.877c-1.63-1.347-2.549-2.475-3.735-3.005-2.01-.9-4.722 1.568-5.14 3.883-.189 1.045-1.5 1.991-2.5 2.705-.225.162-1.251-.867-1.948-1.28-1.281-.76-2.592-1.469-3.89-2.2.036 1.406-.028 2.824.142 4.212.122.994.558 1.949.857 2.932-5.999-1.006-7.168-5.068-5.141-9.236.791-1.626 5.082-1.55 7.915-2.285l.27-3.563c1.288 1.357 2.645 4.032 4.337 4.264 2.262.31 4.232-1.601 3.162-4.678-.064-.183.851-.651 1.238-1.057.917-.963 1.791-1.97 2.297-2.53l-9.746-6.078c-3.166 1.605-4.448 4.464-3.331 9.698-1.685 0-3.293-.265-4.754.083-1.202.286-2.336 1.18-3.305 2.026-.986.862-1.812 1.943-2.562 3.029-.602.871-1.584 2.066-1.366 2.82 1.146 3.966 1.772 8.194 5.953 10.652 2.349 1.38 4.228 3.56 5.939 5.048-1.578 1.444-2.395 2.209-3.231 2.952-1.616 1.436-3.023 3.377-4.911 4.18-4.175 1.778-5.194 3.754-2.706 7.46.944 1.407 2.507 2.4 3.669 3.47l-4.124 19.744c2.169-.93 4.206-1.806 5.79-2.486v20.935c6.12-1.55 5.187-7.435 7.95-11.295-.543 5.73-1.084 11.462-1.728 18.273 2.153-1.795 3.92-3.268 6.007-4.307.118.136.236.27.277 1.201-3.625 9.19-6.735 18.629-11.04 27.487-3.349 6.889-8.073 13.13-12.4 19.515-3.442 5.08-6.698 10.466-11.037 14.687-2.277 2.214-7.003 3.505-10.063 2.795-2.283-.529-5.08-4.917-5.11-7.615-.04-3.721 1.473-8.131 3.801-11.075 5.903-7.465 12.68-14.234 19.011-21.366 4.079-4.596 7.431-9.473 9.007-15.729 1.436-5.7.463-10.702-3.574-14.061-4.435-3.69-10.112-4.295-15.585-1.042-1.217.724-2.768 1.626-4.015 1.44-8.208-1.226-10.42 4.58-13.073 10.373-1.778 3.882-4.324 7.412-6.656 11.318.585.052 2.119.189 4.052.688.142.11.283.22-.044.863-8.776 4.899-10.943 8.35-9.92 14.127 4.1-2.601 8.506-5.623 13.131-8.263 3.889-2.22 8.398-3.497 11.953-6.115 3.232-2.381 6.405-5.624 8.002-9.201 1.31-2.937.267-6.924.267-10.797 7.15-2.036 12.025 1.726 10.175 9.211-.562 2.271-1.584 4.662-3.07 6.43-5.28 6.281-11.026 12.173-16.272 18.481-7.84 9.427-16.78 18.625-10.307 33.332l-5.7-2.413-1.03.912c1.126 1.518 1.987 3.399 3.445 4.46 1.738 1.263 3.923 2.224 6.035 2.564 1.725.277 3.628-.55 5.453-.887l.429 1.34-7.861 3.634c7 5.751 17.613.633 20.932-4.625 2.38-3.77 4.972-7.407 7.787-10.67M771 394.753c-1.878 15.267 7.696 26 14.852 36.278-7.819 6.272-15.231 11.755-22.115 17.835-14.987 13.238-14.036 42.613-.365 56.052 13.174 12.95 29.68 13.728 46.204 11.55 12.587-1.658 23.804-7.667 31.574-18.972 4.564 5.327 8.778 10.317 13.091 15.22.823.935 2.021 2.152 3.072 2.178 7.527.187 15.061.1 23.637.1-8.778-10.037-16.605-19.237-24.733-28.163-3.36-3.692-4.733-6.665-2.006-11.767 4.899-9.166 6.682-19.323 6.81-29.814h-17.018l-4.625 21.618-25.677-31.105c10.964-6.559 20.883-14.047 25.23-26.526 4.688-13.46 2.192-26.993-10.952-36.156-7.55-5.265-16.385-6.179-25.486-6.167-16.126.02-29.189 10.37-31.493 27.84M393.44 407h-11.127v107.683H401c0-21.469-.113-42.622.098-63.772.04-4.127.4-8.724 2.227-12.275 6.976-13.56 18.238-19.833 32.581-16.167 7.71 1.971 12.022 8.847 12.06 17.73.1 23.166.034 46.332.034 69.498v4.94h19c0-22.36.173-44.36-.05-66.355-.208-20.292 17.744-30.341 34.916-25.783 8.024 2.13 11.898 7.196 12.037 17.66.31 23.328.097 46.664.097 69.996v4.497h19c0-27.341.224-54.338-.139-81.327-.106-7.933-2.61-15.39-9.55-20.647-11.81-8.946-24.971-9.33-38.462-5.906-8.809 2.235-16.25 7.152-21.24 15.522-2.67-8.188-8.323-12.976-15.535-15.142-18.574-5.578-34.855-1.586-48.342 14.861V407h-6.292M702 684.5v47.211h20.717V583.286h-20.893v63.428h-77V583.29h-19.54v148.424h19.893v-67.427H702V684.5m-488.946-72.015c-2.916-11.69-9.215-20.933-20.951-24.682-7.905-2.526-16.346-4.32-24.608-4.593-19.8-.65-39.637-.214-59.46-.2-1.271 0-2.543.134-3.785.204V731.75h20.847V671c17.927 0 35.478.378 53.006-.113 15.426-.433 28.656-9.318 33.954-24.498 3.842-11.008 3.687-22.062.997-33.904m-14.495-165.442c-9.525-24.293-19.177-48.538-28.47-72.92-1.969-5.163-4.18-8.178-10.322-7.246-4.234.642-8.656-.052-12.969.233-1.251.083-3.085 1.22-3.52 2.32-6.873 17.42-13.526 34.926-20.3 52.386-9.036 23.285-18.136 46.545-27.2 69.819-2.978 7.646-5.928 15.303-9.05 23.365 6.75 0 12.747.162 18.722-.134 1.233-.06 2.974-1.592 3.474-2.847 4.45-11.158 9.438-22.191 12.67-33.709 1.87-6.661 4.977-7.538 10.84-7.43 17.778.33 35.566.12 53.29.12.855 2.147 1.615 3.927 2.278 5.743 4.343 11.883 8.606 23.795 13.086 35.626.429 1.13 2.141 2.473 3.3 2.514 6.71.239 13.433.116 20.45.116-3.744-9.742-7.302-19.01-10.865-28.274-5-12.997-10.004-25.992-15.414-39.682m-24.016 371.988c-2.125-5.187-4.547-10.279-6.244-15.602-.802-2.518-1.643-3.543-4.279-3.474-5.66.147-11.333-.085-16.988.146-1.258.051-3.162 1.096-3.588 2.157-5.602 13.963-11.01 28.004-16.43 42.04-8.362 21.653-16.664 43.33-25.053 64.973C97 922.072 91.92 934.827 86.735 948c6.519 0 12.515.188 18.482-.146 1.325-.074 3.179-1.737 3.719-3.094 5.367-13.498 10.51-27.084 15.76-40.76 19.33 0 38.65.064 57.967-.073 2.707-.02 3.592 1.11 4.37 3.361 4.29 12.408 8.593 24.816 13.237 37.092.602 1.594 3.142 3.345 4.885 3.457 6.432.41 12.906.163 19.69.163-2.021-4.87-4.014-9.415-5.81-14.036a35787.361 35787.361 0 0 1-29.316-75.681c-4.958-12.842-9.838-25.713-15.176-39.252m155.48-95.557 4.736-3.166c5.215 12.698 11.2 16.292 22.123 13.337 7.118-1.926 7.118-1.926 7.118-9.486v-6.933c-.837-.104-1.326-.268-1.783-.205-8.607 1.181-9.121.633-9.236-8.349-.274-21.405-.464-42.813-1.067-64.21-.259-9.188-9.005-18.152-18.644-20.482-12.166-2.94-24.46-2.896-36.637-.846-9.963 1.677-19.185 5.82-24.229 15.202-3.166 5.89-4.816 12.594-7.369 19.539h18.234c2.85-5.218 4.245-11.668 8.17-14.218 11.377-7.386 24.072-7.995 36.374-1.581 5.315 2.772 6.337 8.156 6.224 13.82-.095 4.848-2.95 7.8-6.994 8.972-6.305 1.826-12.865 2.762-19.303 4.141-8.65 1.853-17.531 3.037-25.87 5.83-12.17 4.074-19.131 13.232-19.73 26.142-.41 8.846 1.007 17.35 8.225 24.086 5.569 5.196 11.935 7.198 19.17 8.197 14.576 2.015 28.131.246 40.488-9.79m581.56-100.528c-9.311.014-18.699-.729-27.918.2-18.718 1.887-31.288 13.723-32.431 34.687.975.055 1.954.156 2.933.16 5.143.016 10.286.007 15.387.007 1.263-10.037 4.356-14.995 12.902-17.586 5.658-1.715 11.88-2.426 17.795-2.192 5.678.225 12.099 1.408 15.542 6.506 6.36 9.417 4.92 19.469-9.77 22.23-10.013 1.881-20.166 3.047-30.134 5.12-14.526 3.022-26.094 9.724-28.526 26.099-1.873 12.613 2.868 27.963 17.527 32.98 10.297 3.525 20.57 3.588 30.867 1.69 9.28-1.711 17.388-6.259 23.081-12.586 2.126 3.435 3.74 7.954 6.892 10.727 6.077 5.348 13.438 3.224 20.386 1.345.777-.21 1.764-1.484 1.798-2.3.18-4.29.085-8.592.085-12.964-10.543 2.03-10.067-.931-10.091-8.38-.068-20.737-.241-41.485-1.023-62.204-.535-14.19-10.567-21.414-25.302-23.539M581.553 517c15.163.799 28.627-2.985 38.393-14.368 1.326 3.317 1.975 6.97 3.984 9.574 5.42 7.024 13.103 5.138 20.334 3.968 1.667-.27 4.389-1.52 4.505-2.558.502-4.472.215-9.032.215-13.75-8.844 2.417-11.019.766-10.998-8.233.045-19.653.19-39.31-.051-58.96-.149-12.113-6.348-21.166-17.963-24.695-11.294-3.43-22.712-3.638-34.38-2.078-11.162 1.492-20.806 5.592-27.516 14.734-4.514 6.15-6.84 13.317-5.86 21.366 4.928 0 9.427-.213 13.893.07 3.393.214 4.67-1.135 4.926-4.343.477-5.977 3.53-10.11 9.004-12.789 8.564-4.191 17.582-4.299 26.497-2.6 11.144 2.123 14.867 12.577 12.51 19.742-1.91 5.807-7.164 6.771-11.859 7.799-10.87 2.378-21.966 3.733-32.813 6.2-21.82 4.963-28.367 16.979-26.118 37.319.526 4.751 3.456 9.708 6.505 13.612 6.437 8.243 15.884 10.067 26.791 9.99m169.412 125.411c-4.971 5.978-7.352 13.076-8.977 20.527-2.211 10.143-1.742 20.341.114 30.383 2.536 13.724 8.95 25.443 20.974 33.142 9.721 6.225 20.693 8.291 32.178 7.53 13.695-.906 26.049-4.668 34.643-16.392 4.433-6.048 7.455-12.627 8.213-20.601-4.828 0-9.307.122-13.775-.043-2.927-.108-4.614.398-5.524 3.787-.843 3.138-2.64 6.424-4.953 8.687-7.716 7.545-17.012 9.371-27.713 7.716-16.08-2.487-26.582-16.134-25.841-33.256h79.542c.956-14.537-2.724-30.382-9.182-40.67-12.465-19.857-29.513-23.63-49.781-20.513-12.478 1.92-22.465 8.609-29.918 19.703M354.528 850.983c-6.399 5.788-10.535 12.968-13.609 20.983-4.908 12.798-4.627 25.843-1.795 38.82 3.417 15.661 10.87 28.794 26.542 35.344 10.013 4.186 20.32 5.246 31.332 4.084 19.745-2.084 35.386-16.068 37.76-36.05h-18.36c-4.368 17.158-16.33 22.097-34.06 19.578-17.485-2.484-27.443-18.87-24.683-33.902h79.876c-.881-7.227-1.278-14.082-2.617-20.747-3.246-16.153-11.192-29.443-26.444-36.728-8.484-4.053-17.724-4.986-27.464-3.608-10.052 1.422-18.425 5.346-26.478 12.226m185.47 21.857c-.333-2.079-.617-4.168-1.007-6.236-1.294-6.872-3.131-13.435-8.408-18.589-6.112-5.97-13.382-8.207-21.778-9.31-8.563-1.124-16.335.005-24.146 3.067-7.02 2.752-12.148 7.733-16.973 14.99v-15.424h-17.374v106.35h18.474c.1-.627.195-.945.196-1.262.01-19.818-.007-39.635.024-59.452.03-18.238 11.513-32.774 31.901-32.14 10.867.339 20.387 9.215 20.181 20.492-.329 17.98-.088 35.97-.088 53.955v18.514h19c0-24.806 0-49.408-.002-74.955M375 637.508v94.208h19c0-21.254.35-42.233-.133-63.193-.284-12.314 9.925-27.824 24.155-29.966 15.136-2.278 28.451 5.77 28.09 22.912-.462 21.983-.116 43.984-.103 65.977 0 1.44.127 2.88.193 4.282H464c0-26.904.281-53.541-.173-80.166-.135-7.931-3.123-15.777-9.24-21.202-10.829-9.606-24.27-9.687-37.509-7.773-10.122 1.464-18.378 6.93-24.304 17.288V624.29H375v13.218M285.477 405c-14.755-.22-27.051 4.575-35.785 18.806v-16.469h-16.354V514.66H251c0-20.499-.082-40.657.075-60.813.029-3.683.666-7.46 1.653-11.019 4.244-15.31 16.725-22.49 33.22-20.942 10.434.98 17.29 10.479 17.15 19.407-.313 20.16-.098 40.327-.098 60.492v13h17.999c0-27.755.488-55.303-.258-82.818-.271-10.021-5.735-18.771-15.595-22.758-5.849-2.366-12.45-2.868-19.669-4.208m290.469 477.46c.69-2.802 1.176-5.676 2.107-8.397 3.688-10.774 15.156-18.587 26.275-19.166 14.9-.776 24.068 5.687 27.785 18.067.362 1.205 1.937 2.842 3.021 2.899 5.59.293 11.202.136 17.155.136-1.622-12.124-5.56-22.27-15.645-29.013-11.86-7.93-24.886-9.909-38.929-8.08-16.092 2.097-28.333 9.65-35.643 24.136-9.688 19.196-9.656 39.35-2.76 59.162 3.832 11.005 11.635 19.361 23.124 24.068 11.094 4.546 22.315 5.686 33.87 3.642 9.633-1.704 18.13-5.681 24.83-13.378 7.1-8.158 10.19-17.723 11.935-28.536-5.31 0-10.44.186-15.55-.067-3.272-.162-4.326 1.378-4.535 4.215-.07.966-.204 1.954-.499 2.871-3.695 11.516-12.127 18.542-26.018 19.205-15.805.754-26.118-10.053-29.578-21.722-2.901-9.78-2.99-19.488-.945-30.041M1028.68 641h17.968v-17.308h-20.956v-31.34h-19.002v31.959h-17.333v17.007H1007c0 21.553-.055 42.709.046 63.863.02 4.247.157 8.599 1.086 12.71 1.316 5.818 3.887 11.22 10.792 12.078 9.186 1.142 18.418 1.92 27.845 2.877V715c-4.686 0-9.15.058-13.612-.016-4.782-.078-7.11-2.145-7.125-6.715-.072-21.49-.053-42.982.04-64.472.005-.934 1.07-1.862 2.608-2.797M509 615.456v-23.163h-18.181v31.878H472.28v16.99H491v5.314c0 22.475-.014 44.95.008 67.426.007 7.439 3.837 14.764 9.81 15.824 9.536 1.692 19.3 2.1 28.835 3.04V715c-4.005 0-7.71-.374-11.309.082-6.48.82-9.377-2.947-9.362-9.235.048-20.31.013-40.622.03-60.933.001-1.262.18-2.524.304-4.15h20.372v-16.988H509v-8.32M247 698.5V583.286h-18.717v148.428H247V698.5m433-243v-88.212h-18.716v147.424H680V455.5m281 272.848c.185 1.606-.874 3.808 2.362 3.697 5.106-.175 10.223-.046 15.398-.046V583.244H961v145.104M361 495.5v-88.214h-17.717v107.428H361V495.5M253.024 256.503c2.303 3.76 4.518 7.58 6.956 11.25.842 1.269 2.197 2.983 3.39 3.042 1.697.085 4.2-.671 5.058-1.945 2.633-3.914 4.647-8.245 6.935-12.475l2.142 2.58c6.417-6.891 4.594-13.16-4.599-15.747v-9.038l-16.911-2.987v11.025c-3.258 2.351-6.919 3.61-7.655 5.838-1.208 3.655-.98 8.09 3.227 10.742.335-.644.63-1.21 1.457-2.285M355.41 367h-12.089v21.676h17.53V367h-5.44m22.47-152.624c.872 3.58 3.594 4.118 6.537 3.558 3.638-.691 4.626-3.679 5.004-6.9.457-3.905-2.193-7.706-5.545-8.033-4.157-.406-6.707 2.106-6.857 6.862-.041 1.31.162 2.63.86 4.513M235.977 27.485c-2.707-.953-5.16-.915-4.826 2.764.12 1.33 1.872 3.466 3.029 3.57 3.615.323 2.697-2.723 2.775-4.864.01-.29-.241-.59-.978-1.47m54.02 3.158-4.328-2.565c-.556 1.253-1.728 2.634-1.502 3.726.247 1.19 1.789 2.113 2.766 3.152 1.022-1.16 2.045-2.32 3.065-4.313m-117.994-7.178 3.752 2.1c-.039-4.238-3.627-8.302-7.765-8.196 1.669 2.176 2.837 3.7 4.013 6.096z"/><path fill="#00AF41" d="M18.53 1C19 316.469 19 631.937 19 948H1.468C1 632.333 1 316.667 1 1h17.53z"/><path d="M260.469 991c-4.184-1.2-7.94-2.283-11.605-3.619-12.071-4.397-20.033-12.195-20.999-25.712-.052-.731-.62-1.426-1.098-2.462 6.505 0 12.617 0 18.73.008 1.85 10.607 9.55 14.734 20.05 16.48 6.874 1.141 14.38 1.582 21.261-1.977 8.65-4.473 13.974-11.583 16.035-20.795 1.486-6.644 1.708-13.571 2.315-18.822-3.009 2.503-6.58 5.88-10.555 8.686-5.92 4.18-12.588 6.304-19.96 6.252-8-.055-15.924.253-23.5-3.343-14.066-6.679-22.065-18.022-25.631-32.72-4.786-19.73-2.9-38.774 8.626-55.805 7.165-10.588 17.478-17.445 30.771-18.082 6.402-.308 12.957-.31 19.251.717 8.632 1.41 15.3 6.507 20.612 15.112v-13.623h17c.072 1.31.218 2.743.218 4.176.013 33.311.33 66.627-.15 99.931-.188 12.937-3.354 25.38-13.514 34.778-6.254 5.785-13.648 9.03-22.194 10.438-8.486.382-16.84.382-25.663.382m36.573-72.444c.63-.762 1.51-1.426 1.855-2.3 4.808-12.161 6.786-24.54 3.129-37.456-4.002-14.134-12.163-22.33-23.853-23.698-16.992-1.988-27.565 6.822-32.418 20.472-3.753 10.558-3.345 21.206-1.478 31.866 1.266 7.222 4.428 14.152 9.867 18.94 12.715 11.195 33.592 8.782 42.898-7.824zM1149 731.531c-6.144.469-12.289.469-18.763.469-.086-1.638-.227-3.074-.227-4.511-.014-22.833-.583-45.684.2-68.49.485-14.103-11.565-22.613-24.56-20.93-11.248 1.459-20.438 6.535-24.484 17.76-1.831 5.08-2.932 10.688-3.027 16.08-.35 19.813-.139 39.635-.139 59.773h-17.686v-148.37h17.41v55.496c6.003-10.101 14.779-13.814 24.311-16.391 15.736-4.254 34.06 1.423 41.434 13.828 2.679 4.507 3.23 10.279 5.142 15.614.389 26.495.389 52.85.389 79.672zM670.46 991c-6.732-.72-7.05-4.938-6.517-9.923.313-2.93.057-5.923.057-9.288 2.243.82 3.985 1.657 5.822 2.095 7.677 1.832 15.675-2.118 19.006-9.48 1.58-3.492 2.261-7.486 4.278-10.663 3.727-5.87.76-10.987-1.233-16.018-10.91-27.533-22.082-54.963-33.152-82.432-1.855-4.602-3.654-9.227-5.656-14.29 6.466 0 12.544-.136 18.607.12 1.145.048 2.827 1.427 3.245 2.566 6.788 18.482 13.411 37.023 20.072 55.552l10.022 27.884 29.489-85.968h19.87c-2.14 5.626-4.153 10.94-6.183 16.247-8.062 21.073-16.005 42.192-24.23 63.201-7.176 18.33-14.333 36.68-22.18 54.726-3.54 8.144-9.818 14.135-19.65 15.293-3.82.378-7.513.378-11.666.378zM268.55 1c-.437 1.876-1.325 3.752-2.733 6.728l6.058-4.219v10.812l-3.53-1.963-1.03.87 6.96 11.604h-8.183v-8.86c-4.619 2.458-2.12 6.248-3.467 8.756h-8.508l7.945-12.917-.464-.648-5.302 3.442V3.4l6.33 4.136c-1.463-2.708-2.342-4.336-2.923-6.25C262.7 1 265.4 1 268.55 1m-.927 11.385-.519-1.327c-.088.382-.175.763.519 1.327z"/><path d="M348.925 71.92c-1.228.36-2.447.755-3.69 1.059-.47.115-.993.018-1.48.018-2.207-7.63-2.284-7.732 4.963-13.15 5.534-4.137 11.294-7.971 17.28-12.17-4.935-6.28-10.116-12.907-15.334-19.506-5.066-6.406-10.168-12.782-14.667-19.718 5.975 1.315 8.855 6.353 12.822 9.956 4.313 3.917 8.31 8.184 12.411 12.332 3.973 4.017 7.902 8.077 12.54 12.825l1.852-9.142 9.904 10.94c4.256 1.484 9.469 3.18 14.537 5.236.566.23.306 2.496.458 4.119l12.716 13.7-2.98 1.702 3.003 23.822-6.109-1.325-.853 15.794-6.514-3.58 2.282 6.28c-4.133 3.926-9.3 8.024-13.437 12.982-4.604 5.52-4.229 7.356-.728 13.273.981 1.658 2.049 3.267 3.128 4.865.994 1.471 2.057 2.897 3.317 4.66 2.164-3.907 5.062-6.302 9.64-4.409 3.8 1.572 5.931 4.735 4.8 8.533-.717 2.414-3.487 4.218-5.621 6.616 3.307 5.628 7.28 12.616 11.487 19.46 2.234 3.633 5.811 5.016 9.84 3.652 3.963-1.342 5.513-4.433 5.606-8.75.125-5.826-2.085-10.41-6.013-14.384-4.92-4.977-9.922-9.875-14.827-14.867-5.723-5.823-9.233-19.73-2.37-27.616 3.886-4.467 10.571-7.063 16.258-5.17 2.548.848 5.23 1.287 7.798 2.086 4.191 1.305 6.575 4.067 7.098 8.59.802 6.922 1.63 8.148 7.255 11.068l-8.567.452c4.934 4.201 13.128 5.177 12.132 12.96-6.312-3.035-12.6-6.175-18.984-9.1-9.24-4.236-12.194-12.214-8.148-20.435-4.637-2.384-10.903.622-12.537 6.9-.858 3.294-.82 7.634.679 10.539 2.293 4.441 5.994 8.241 9.47 11.966 5.323 5.705 12.624 10.054 14.512 18.138 1.259 5.39.802 11.178 1.119 16.881l3.117-1.19c-1.704 3.1-2.348 5.754-4.035 7.042-3.76 2.87-8.051 3.213-12.153-.09l-.781 1.238 7.391 5.953c-3.69.316-7.64 1.873-9.945.554-3.17-1.813-5.587-5.535-7.427-8.928-2.113-3.896-3.244-8.326-4.81-12.546-2.026 6.01-3.756 11.412-5.676 16.745-1.358 3.77.562 10.256 3.9 12.11.712.395 1.895.761 2.478.442 5.697-3.125 4.945 1.02 4.965 4.306.025 4.166.027 8.333.05 12.499 0 .113.134.226-.257-.393l12.114-3.14c-.76-5.128.32-10.786 7.6-12.523 4.209-1.005 8.183.551 10.144 4.365 1.964 3.82 2.48 8.075-1.231 11.694-3.583 3.493-7.96 3.935-13.992 1.107-1.152 8.122-5.59 11.184-13.23 8.757-.112 2.518.25 5.09-.45 7.328-.814 2.599-2.19 5.812-5.819 2.22-.331-.329-1.588-.198-2.014.175-.45.394-.736 1.437-.549 2.023 2.017 6.326-.805 10.62-7.537 11.227-1.147.103-2.32-.091-3.333-.623.19-1.014.23-1.554.271-2.094l-1.318.945-4.07.968-1.133-1.295c4.987-6.37 9.973-12.74 14.52-18.546-3.268 0-6.694.468-9.886-.192-1.67-.346-3.534-2.428-4.246-4.162-1.473-3.587.923-5.653 3.952-7.089 4.156-1.97 8.807-.071 11.417 4.919v-6.218c0-8.58 0-8.58-7.994-11.058-10.747-3.333-19.642-14.765-20.197-26.349-4.21-.278-8.243.732-10.433 4.285-2.32 3.763-2.154 8.16 1.258 11.61 2.21 2.234 1.7 3.519-.914 4.638-9.424 4.034-18.81 8.161-28.3 12.036-1.046.428-2.81-.282-3.98-.933-1.35-.75-2.413-2.02-3.662-3.117-.418.667-.753.953-.721 1.19.333 2.519 2.13 5.223-1.26 7.146-3.484 1.975-6.84 2.915-10.86 1.079-1.758-.803-4.187-.135-6.845-.135 6.413-7.995 12.969-14.505 23.848-15.156 5.336-.32 10.739-2.008 15.794-3.916 6.6-2.49 7.327-6.476 2.235-11.3-4.508-4.27-5.643-8.714-4.168-14.871 1.732-7.232 6.801-9.97 12.828-11.611 4.048-1.102 8.413-1.044 12.873-1.53-2.145-5.302-6.833-8.045-12.014-9.466-6.108-1.676-10.833-4.748-14.117-10.11-5 5.089-6.254 5.19-14.033.686-2.77-6.976-1.343-8.62 8.16-10.481-2.891-.23-5.801-.062-8.683-.276-2.866-.213-5.704-.808-8.554-1.235l-.86 1.228c2.967 3.861 2.847 10.101 9.684 10.98v4.468c6.594-1.319 8.068-.338 12.715 8.176l-4.016 5.246-12.798-6.193c-1.374 9.726-1.774 19.425-4.275 28.549-3.172 11.57-9.586 21.65-17.8 30.68-4.41 4.847-9.362 5.813-15.054 5.06-4.106-.543-8.086-1.98-12.153-2.877-2.549-.562-2.987-1.635-2.216-4.193 1.097-3.637 2.986-5.985 6.343-7.988 3.865-2.305 7.032-5.782 10.974-9.226 7.847-9.825 11.572-20.459 12.144-32.367h-38.825v9.617l5.632-.495c-2.781-1.857-6.212-3.65-3.95-9.095l3.952 4.683c1.799-1.493 3.435-3.842 4.731-3.668 1.514.203 2.73 2.61 4.4 4.41.589-4.284 4.252-3.897 7.95-3.746 3.85.157 7.71.035 11.567.035l.042.586-1.488.556 1.124 9.982-6.418 3.404c5.102 2.676.831 6.251 1.329 10.881l-6.136-4.39-2.975 3.178 7.852 1.058.016.484-3.29.477c.558 1.415 1.01 2.56 1.46 3.707-2.276.74-4.257 1.07-5.67 3.962-1.75 3.587-5.894 3.878-9.876 3.064-1.918-.392-3.987.022-5.976-.108-1.422-.093-2.825-.484-4.18-.73-.543 6.272-.543 6.272 8.649 7.227l-2.752 7.059-15.139-5.055-.827-1.3c7.369-.536 5.817-5.395 5.832-9.41.047-11.977.017-23.954.017-36.282h-39.82l-.497 4.707c-1.46-3.876-2.482-6.587-4.025-9.845-1.857-5.266-3.194-9.985-4.556-14.796l5.054-2.38-1.009 4.81 1.714.56c.644-1.992 2.369-4.46 1.738-5.888-2.328-5.275-5.61-.375-8.95.308.65-1.81 1.075-2.99 1.5-4.17-1.304.523-2.605 1.051-3.911 1.568-.786.31-1.578.604-2.403.919.232.786.222 1.423.532 1.699 4.191 3.73 7.226 7.873 6.798 13.983-.094 1.346 1.785 2.83 2.755 4.25l2.53 14.618 2.58-4.319c1.283 4.276 1.854 8.273 3.626 11.637 3.27 6.204 7.2 12.064 10.988 17.981.401.628 1.671.78 2.576.99 2.864.66 5.745 1.242 9.82 2.11-1.613-1.813-2.623-3.795-4.226-4.61-9.697-4.929-15.278-12.45-15.862-23.49-.065-1.23-.793-2.42-1.178-3.64-.373-1.182-.7-2.377-1.047-3.566 1.592-.31 3.564-1.378 4.713-.803 6.406 3.209 12.413 1.952 18.659-.491 4.661-1.824 9.95 1.578 9.728 6.351-.204 4.402-1.688 8.728-2.25 13.133-.435 3.408-.85 6.969-.33 10.315.913 5.869-1.597 9.482-7.78 9.868-1.45 2.988.115 4.61 2.74 5.458 11.878 3.832 23.743 7.719 35.714 11.24 2.604.766 5.626.112 9.47.112-6.55 7.268-14.14 11.092-22.886 11.914-11.574 1.087-22.254-3.14-32.943-6.92-1.905-.674-4.09-1.08-6.08-.892-5.787.549-8.974-1.575-10.568-7.008-.51-1.735-1.806-3.408-3.136-4.705-9.656-9.417-15.1-21.127-18.784-33.84-.873-3.01-.047-5.517 2.329-8.187.36-.991.4-1.531.441-2.07l-1.318.944c-5.623 2.833-7.71 2.306-9.399-2.376 2.002-.462 6.106.87 2.731-3.865-.864-1.213.097-4.19.952-6.012.634-1.352 2.454-2.146 3.7-3.152-2.792-3.27-2.792-3.27-5.82 1.21l-2.192-6.477c-4.24 1.72-4.24 1.72-4.84-6.574l-3.144 6.115c-5.563-2.81-11.123-2.97-16.918.926 4.011 2.832 7.615 5.474 11.317 7.97 5.911 3.984 9.053 9.816 6.894 16.373-1.105 3.356-4.681 6.199-7.7 8.558-5.067 3.96-5.788 7.07-.987 11.474 4.825 4.426 10.171 8.285 15.026 12.181 4.622-3.54 11.917-4.586 14.172-2.755 5.894 4.784 6.726 7.325 3.866 12.303l-4.979-4.413c-1.63 3.9-.905 8.822-6.259 9.356l-.733-5.824c-7.847 6.519-12.644.997-17.53-4.13l-.57 1.339 1.061 3.307c-9.842 1.102-8.177-8.094-11.78-13.418v8.064c-4.823-3.794-7.553-7.61-8.683-12.965-1.47-6.967-1.883-6.88 2.594-13.178 3.415-4.805 1.319-12.691-4.827-17.874-.394 3.728-.833 7.382-1.16 11.046-1.483 16.635-13.268 24.32-26.689 30.317-8.226 3.675-10.318 6.448-8.42 15.022.774 3.5 2.434 6.943 4.33 10.018 2.403 3.898 5.616 3.64 9.445 1.076 2.018-1.353 5.157-1.696 7.682-1.438 2.424.248 5.81 1.26 6.773 3.026 1.185 2.173.298 5.476.307 8.29-.884-.304-1.91-.422-2.616-.96-.94-.718-1.628-1.763-2.69-2.968-1.035 3.966 1.426 8.451-3.513 10.023-.61.194-1.896-1.737-3.325-3.128-2.941 5.92-7.647 4.316-12.57 2.954-1.508-.418-4.545.249-4.95 1.223-.795 1.909-1.804 2.943-3.294 1.955-1.284-.852-2.565-2.825-2.542-4.282.037-2.394 1.131-4.77 2.134-8.46l-6.101 3.554c-5.242-4.756.007-10.123-.194-15.492l-5.31 5.785c-2.771-8.172-3.933-15.717 1.736-23.151 1.337-1.754.632-5.066.868-7.691 11.18 3.23 13.41-2.407 16.662-13.263 1.878-6.27 3.371-12.655 5.399-19.506.763-1.658 1.164-2.8 1.566-3.941l-.7-.273-1.815 3.128c-2.497 3.696-5.089 7.333-7.469 11.103-3.32 5.258-13.932 10.376-20.932 4.625l7.86-3.635-.428-1.34c-1.825.338-3.728 1.165-5.453.888-2.112-.34-4.297-1.3-6.035-2.564-1.458-1.061-2.32-2.942-3.444-4.46l1.03-.912 5.7 2.413c-6.474-14.707 2.466-23.905 10.306-33.332 5.246-6.308 10.992-12.2 16.272-18.481 1.486-1.768 2.508-4.159 3.07-6.43 1.85-7.485-3.025-11.247-10.175-9.21 0 3.872 1.044 7.859-.267 10.796-1.597 3.578-4.77 6.82-8.002 9.201-3.555 2.618-8.064 3.895-11.953 6.115-4.625 2.64-9.032 5.662-13.131 8.263-1.023-5.777 1.144-9.228 10.41-14.606 1.323-.98 2.156-1.48 2.988-1.982l-.538-.895-3.295 2.131-3.653-.326c2.332-3.906 4.878-7.436 6.656-11.318 2.652-5.793 4.865-11.599 13.073-10.373 1.247.186 2.798-.716 4.015-1.44 5.473-3.253 11.15-2.648 15.585 1.042 4.037 3.359 5.01 8.36 3.574 14.061-1.576 6.256-4.928 11.133-9.007 15.729-6.33 7.132-13.108 13.901-19.01 21.366-2.329 2.944-3.842 7.354-3.801 11.075.029 2.698 2.826 7.086 5.11 7.615 3.059.71 7.785-.58 10.062-2.795 4.34-4.22 7.595-9.607 11.037-14.687 4.327-6.385 9.051-12.626 12.4-19.515 4.305-8.858 7.415-18.298 11.392-28.014.395-1.361.438-2.195.537-4.105l-1.485 2.997-5.688 4.74 1.727-18.272c-2.762 3.86-1.83 9.744-7.949 11.295V83.06l-5.79 2.486 4.124-19.743c-1.162-1.072-2.725-2.064-3.67-3.47-2.487-3.707-1.468-5.683 2.707-7.46 1.888-.804 3.295-2.745 4.91-4.18.837-.744 1.654-1.51 3.232-2.953-1.711-1.489-3.59-3.668-5.939-5.048-4.181-2.458-4.807-6.686-5.953-10.653-.218-.753.764-1.948 1.366-2.82.75-1.085 1.576-2.166 2.562-3.028.97-.847 2.103-1.74 3.305-2.026 1.461-.348 3.069-.083 4.754-.083-1.117-5.234.165-8.093 3.331-9.698l9.746 6.077c-.506.562-1.38 1.568-2.297 2.531-.387.406-1.302.874-1.238 1.057 1.07 3.077-.9 4.987-3.162 4.678-1.692-.232-3.05-2.907-4.337-4.264l-.27 3.563c-2.833.734-7.124.659-7.915 2.285-2.027 4.168-.858 8.23 5.14 9.236-.298-.983-.734-1.938-.856-2.932-.17-1.388-.106-2.806-.143-4.211 1.299.73 2.61 1.44 3.89 2.199.698.413 1.724 1.442 1.95 1.28.999-.714 2.31-1.66 2.499-2.705.418-2.315 3.13-4.782 5.14-3.883 1.186.53 2.105 1.658 3.735 3.005l1.248-7.877 1.362-.336c.692 1.496 1.323 3.024 2.105 4.472.308.57.952.958 1.443 1.43.187-.598.187-1.45.593-1.747 1.491-1.09 3.117-1.997 4.549-2.884 2.455 9.684-.47 15.353-10.491 16.378 4.061-2.33 10.444 1.268 12.213-5.397 4.642.143 9.595-.595 13.766.88 1.589.561 1.383 6.201 2.222 10.761l9.63 3.126c-2.858 1.477-5.09 2.63-7.32 3.784l1.333-2.105 11.12 16.478 2.113-.591-6.725 1.912 8.998 10.837c-1.79.605-3.22 1.089-5.125 1.254-1.015-.358-1.555-.399-2.095-.44l.945 1.32c1.265 3.566 2.523 7.135 3.797 10.699 1.221 3.415 2.458 6.825 3.805 10.561l6.598-1.997-18.259 28.24 3.69 3.017c4.888-14.618 13.221-26.722 25.922-35.671-4.014-2.18-5.101-6.471-3.507-9.532 2.83-5.43-.43-9.18-2.2-13.187-2.375-5.37-4.009-11.492-10.124-14.42-.653-.314-.641-2.03-.925-3.098-.44-1.656-1.208-3.313-1.212-4.971-.006-1.962.652-3.926 1.202-6.84-1.954-2.693-1.423-4.002 3.66-5.819-1.463-5.605-.742-6.708 2.453-6.077l5.942-5.435c.984 1.214 3.033 3.11 2.768 3.524-1.145 1.787-2.967 3.139-4.873 4.117l-4.32 6.068v18.542l7.604-2.779-2.42 7.966.778.492 4.16-4.596 3.828 9.668-5.507-1.182c3.624 3.71 7.88 4.225 11.13 1.25 1.02-.934 1.008-2.994 1.47-4.539l-1.537-.46-1.73 3.862-1.246.378c-.701-2.542-2.049-5.138-1.847-7.606.11-1.352 2.838-2.49 4.747-4.011-2.586-3.578-.387-7.22 3.625-12.063l4.169 12.89c.343.075 3.463.108 3.686.928.682 2.506.248 5.316.248 9.495l-3.679-3.94c-2.174 2.172-1.81 4.12.885 4.932 5.086 1.531 9.655-.324 13.553-6.151-1.78.916-2.854 1.349-3.792 1.983-1.033.7-1.94 1.584-3.273 2.697V57.771l4.857 3.357 1.078-1.08-5.87-4.649.524-.943h16.526l-5.827 6.696.672.726 6.036-4.063v12.321l-6.046-3.971-1.051 1.297c1.792 1.481 3.457 3.972 5.404 4.217 3.25.408 6.692-.55 10.01-1.168.282-.053.238-1.862.346-2.856-.94.186-1.978.19-2.785.622-.525.282-.714 1.189-1.054 1.816l-1.598-.243c.217-2.88.1-5.856.872-8.579.21-.738 3.112-.71 3.798-.844l3.177-11.698 2.59.025 2.373 11.689c.814.769 3.118 1.924 3.278 3.324.279 2.456-.756 5.061-1.24 7.604l-1.668-.248c-.37-1.31-.738-2.62-1.22-4.332l-3.05 3.602c1.574.924 3.003 1.832 4.492 2.625 3.606 1.921 6.832 1.317 10.436-2.129l-5.818.63 3.316-9.882 3.219 5.18.971-.337c-.505-2.374-1.01-4.748-1.593-7.48l5.734 1.446 2.591-6.147-.381-5.408 1.461-.168c-1.677-2.22-5.412-4.134-1.787-6.651l-9.76-8.675-.573 1.07-6.84-3.115c1.051-1.445 2.37-4.22 3.102-4.072 1.782.359 3.291 2.071 4.919 3.244.556-.173 2.569-1.496 3.617-.954 1.45.75 2.174 2.904 3.418 4.769 3.794-.708 5.25.93 5.21 5.617.883 1.929 1.854 3.824 2.61 5.802.384 1 .442 2.145.533 3.234.134 1.599.83 4.122.118 4.639-2.155 1.564-1.762 2.727-.725 4.636.379.696-.189 2.309-.83 3.086-2.646 3.208-5.966 5.959-8.127 9.442-2.421 3.902-3.9 8.396-5.678 12.679-.267.644-.204 1.73.176 2.292 3.405 5.033 1.997 9.156-1.626 12.084l21.402 23.58h11.199c-4.067-5.358-7.2-10.25-11.194-14.292-1.238-1.253-4.814-.195-7.32-.195l-.682 1.418c-1.054-1.886-3.38-5.005-2.948-5.45 2.271-2.343 5.014-4.56 8.017-5.785 4.886-1.993 7.472 2.846 11.107 4.657 1.453.724 3.265 1.319 4.82 1.144 5.43-.61 8.37 2.678 7.101 8.308l3.743 3.154c2.19-4.587 4.404-9.225 6.276-14.122-.342-.26-.445-.175-.445-.175 1.982-.915 6.534-14.123 5.672-15.98-.648-1.394-.913-2.967-1.305-4.31l-6.218-3.97a89.713 89.713 0 0 1 2.751-3.159c2.404-1.206 4.282-1.906 6.16-2.606-.25-.53-.498-1.062-.747-1.593l-6.255 3.446m-115.81 70.792-.685 3.847 1.155.11c.384-1.014.768-2.029 1.696-3.494l2.5-.57-.223-.822c-1.21.379-2.422.758-4.442.93m45.693-13.485 1.812-.35c-.515-.319-1.03-.637-1.624-1.732l.602-5.482 1.538-.413-8.597-4.497-.58 5.954 1.408-.548c.88 1.215 1.74 2.447 2.65 3.642.772 1.015 1.602 1.986 2.791 3.426m36.19.951v-7.352l-12.186 5.66c2.123 6.3 2.123 6.3 5.176 5.698l-1.863-4.123 5.72-2.938c.91 1.707 1.642 3.078 2.848 5.02.763 1.92 2.387 4.007 2.057 5.717-.365 1.888-2.372 3.588-3.946 5.07-1.156 1.09-2.767 1.698-3.704 2.246l16.078 3.846c-3.108-5.569-6.605-11.834-10.18-18.844m-20.006-3.818c-6.73-9.734-16.017-15.017-28.013-16.596l.174 2.823c1.954-.137 3.98-.906 5.355-.27 7.064 3.265 14.131 6.611 19.26 12.866.73.889 2.184 1.183 3.236 2.552 2.475 7.384 4.985 14.756 7.39 22.162.424 1.307 1.025 3.538.466 3.982-1.253.994-3.23 1.652-4.832 1.517-4.285-.363-8.508-1.014-12.44 1.348h21.594c-2.425-7.732-4.418-14.966-7.025-21.97-1.05-2.823-3.446-5.146-5.165-8.414M164.204 66.25c1.437.914 2.761 2.193 4.33 2.678 5.457 1.685 5.527 1.67 2.985 7.061-1.32 2.8.608 6.589 4.038 8.189 3.328 1.552 5.002-.514 5.722-3.048.912-3.208-.244-6.051-3.725-7.08-3.58-1.06-4.004-3.509-3.359-6.534.354-1.657.983-3.254 1.64-5.365l2.857-.376-.313-1.23c-5.635.071-10.532 2.783-16.09 5.642l-.184 3.578c.826-1.668 1.156-2.333 2.099-3.515m227.963 48.744c-1.355-.47-3.122-.57-3.958-1.503-.999-1.116-1.202-2.944-1.75-4.464h3.487l1.655-10.013-.795-.472-5.06 5.444c-2.08-4.646-3.011-1.022-3.59-.384l2.19 4.774-.958.977c-1.766-.58-3.882-.753-5.188-1.871-1.069-.915-1.71-3.005-1.582-4.49.222-2.572 1.619-1.336 2.68-.333.294-.431.897-.92.83-1.284-.377-2.047-.884-4.074-1.452-6.077-.05-.173-.87-.126-1.407-.19l-.694 4.596-2.096-2.294-.967.641 2.413 3.634c-2.02.33-4.165 1.343-5.714.763-1.865-.698-3.223-2.75-4.8-4.216l.906-1.334 6.482 1.017-3.074-4.71 1.402-5.94-1.454-.652-3.864 5.864-4.687-.342 4.09 3.86-.428 1.548c-1.744-.216-3.64-.076-5.193-.739-1.87-.797-3.448-2.276-4.664-3.12l-1.021 3.258c11.765 6.707 23.54 13.284 35.15 20.142 2.65 1.566 3.45-.085 5.165-1.887l.395-1.006c-.563.243-1.127.486-2.45.803M261 149.579c0 .5.121 1.038-.023 1.491-.433 1.363-.969 2.693-1.465 4.036l-3.942-2.153c-2.758.706-7.165 2.464-7.544 1.827-2.18-3.667-5.065-1.708-7.51-1.511-3.305.267-6.538 1.426-9.844 1.698-1.175.096-2.586-1.15-3.647-2.064-.361-.31.02-1.484.063-2.263 1.13.091 2.259.22 3.39.262.744.028 1.492-.067 1.968-.092l-4.25-5.374c1.416-2.76 1.859-4.557 2.997-5.586 1.198-1.084 3.06-1.433 4.834-2.19-.53-.57-1.212-1.254-1.837-1.986-1.626-1.908-3.099-3.94.195-5.47.28-.13 1.807 2.428 2.755 3.737l1.21-.152c-.247-1.872-.456-3.75-.758-5.614-.104-.64-.81-1.536-.597-1.804.489-.616 1.406-1.322 2.09-1.266 1.51.123 2.981.694 5.004 1.221-2.82-4.56-2.518-7.266.287-6.925.85.103.972 1.41 2.174-.134.834-1.072 3.198-.953 4.878-1.367l-.48-.587 9.995-4.955.794 1.496-6.968 4.734 7.995 1.778v-10.134c-20.78-.799-40.928 24.625-39.26 46.521h39.037v-33.316l-.933-.007v6.752l-5.998-1.208-.191.907 6.199 1.549c.124 2.33.514 4.68.276 6.967-.147 1.412-1.031 2.946-2.052 3.949-.31.304-2.407-.747-3.288-1.592-1.476-1.415-1.33-1.54-2.6-.457-.909.773-1.857 1.5-2.894 2.333l11.57 1.83-3.348.705c.6 1.245 1.16 2.403 1.718 4.414m-28.044-61.004c-2.894 3.698.634 5.163 2.205 7 19.66-9.185 39.007-9.594 58.421.204 5.054-4.801 4.76-6.856-1.553-9.767-1.002-.462-2.102-.916-3.18-.978-12.636-.721-25.286-1.97-37.91-1.764-5.842.095-11.635 3.068-17.983 5.305m144.515-12.556c3.78-2.593 7.808-5.022 7.536-9.909-2.66 2.262-5.072 5.768-8.17 6.547-3.254.82-7.165-.973-10.779-1.623-1.154 2.138-2.167 6.563-4.07 6.986-3.46.77-3.087 3.298-4.983 4.609 3.736 2.727 6.591 2.395 9.697.175 3.248-2.322 6.823-4.187 10.77-6.785m-98.883 62.888L272 140.679c0 1.083-.04 3.3.01 5.514.073 3.23 1.718 5.056 5 4.77 4.89-.423 9.728-3.096 14.93-.443l-6.635-7.953-.813.885.586 3.366c-1.532.076-2.843.23-4.146.181a30.26 30.26 0 0 1-4.708-.549c-.11-.022-.147-2.063.14-2.166 1.398-.501 2.919-.662 3.545-.782l2.14-5.388c-1.099.093-2.02.17-3.46.793m149.435 69.858c-1.722 2.823-1.422 5.408 1.46 7.092 1.611.94 4.122 2.093 5.381 1.462 1.787-.895 3.837-3.334 3.858-5.136.024-2.03-1.679-5.241-3.363-5.825-1.895-.656-4.607 1.047-7.336 2.407M244.968 96.55c-3 2.76-2.921 5.7-.306 8.591 2.37 2.62 9.394 3.234 12.278 1.215-.51-1.075-1.71-2.427-1.41-3.177 1.395-3.482-.425-5.758-2.656-7.7-2.428-2.112-4.996-1.11-7.906 1.071m45.718 2.606c-.882-.13-2.32-.66-2.558-.328-2.214 3.093-4.221 6.333-6.288 9.531l1.166 1.101 5.565-5.813.856 4.5 3.505-.63-2.772 6.852 1.28.456 7.977-10.96-8.113.533c-.12-1.645-.223-3.072-.618-5.242m18.702 89.88 6.03 1.577.238-1.276-5.953-3.034 10.617-5.135-12.86-4.562-.654 1.578 6.09 3.444c-1.732.674-3.383 1.253-4.98 1.956-1.437.632-2.815 1.399-5.22 2.611 2.79 1.307 4.35 2.037 6.692 2.84m-98.83-5.993c2.02 1.985 3.775 4.498 6.185 5.712 1.053.53 4.49-1.215 4.993-2.6.823-2.267.858-5.434-.166-7.548-.705-1.457-4.41-2.995-5.626-2.346-2.389 1.275-3.978 4.049-5.387 6.782m11.39-50.47c1.055-.733 2.66-1.252 3.045-2.244.72-1.856 1.57-4.407.825-5.899-.937-1.877-3.406-4.087-5.241-4.111-1.837-.025-4.412 2.084-5.418 3.935-2.249 4.138.104 7.17 6.79 8.319M259 96.547c0 1.158.097 2.325-.018 3.471-.39 3.894 2.528 5.668 5.23 5.675 1.877.004 4.428-2.382 5.443-4.34.954-1.84.374-4.523.267-6.825-.024-.525-.877-1.01-1.349-1.514-.523.62-1.418 1.195-1.498 1.868-.215 1.794.184 3.685-.183 5.427-.21 1.002-1.435 1.791-2.204 2.676-.895-.925-2.253-1.714-2.572-2.806-.446-1.524.008-3.289-.172-4.923-.085-.775-.745-1.487-1.145-2.228-.6.87-1.2 1.739-1.799 3.52M232.544 205c-1.315 4.012-5.622 7.52-2.133 13.083 1.181-4.997 2.028-9.603 9.457-6.57l-3.018-6.282 6.698-4.94-.967-1.392c-3.097 2.024-6.195 4.047-10.037 6.101m-10.105-2.04 9.348-7.252-7.477-.963 2.66-7.44c-4.294 2.82-7.556 4.933-10.748 7.148-.168.117.124 1.221.472 1.641.234.283 1.18.415 1.409.196 3.217-3.06 4.39-.162 5.937 1.52-.467 2.175-6.03 1.478-1.601 5.15m73.687-87.615-2.856 1.798c6.694-.092 7.147 4.568 7.813 10.348l6.835-15.452c-2.913.738-4.472 1.11-6.017 1.53-1.691.462-3.37.968-5.775 1.776m25.859 46.821c1.97-5.133 1.334-6.125-3.98-6.163-2.627-.018-5.253-.003-7.88-.003l-.498 1.786 3.828 1.397c1.856 2.228 2.826 4.051 4.343 4.94.775.453 2.532-.772 4.187-1.957m-5.982 10.4 3.282-2.727-1.397 5.627c2.149.087 2.149.087 3.937-5.947-9.035-4.363-11.75-3.467-13.463 5.906l5.04-5.675c.31.705.59 1.027.541 1.287-.228 1.202-.549 2.387-1.223 5.18 1.806-1.545 2.542-2.175 3.283-3.65m-20.02 24.972-5.015 4.938.64.98 5.66-2.234.56 1.131-2.668 3.442.901 1.134 3.717-2.816 1.05.726-1.7 4.846.879.787 3.55-6.324c-1.438-1.443-4.243-4.255-7.574-6.61m3.462-4.494 2.765 5.242 6.224-2.725c-.6 1.46-.917 1.984-1.022 2.547-.157.838-.163 1.704-.234 2.557.823-.274 2.19-.355 2.368-.858.544-1.537 1.381-3.794.693-4.72-.735-.987-3.073-.959-4.725-1.024-1.091-.044-2.207.53-3.311.827l-1.14-1.478 3.526-2.311-.813-1.15c-1.266.861-2.532 1.723-4.33 3.093m-58.432-13.524-6.056-8.192c1.63 9.959 5.852 16.107 11.97 17.583-1.953-3.22-3.666-6.046-5.914-9.39m-5.53-67.534-4.2-7.695-5.582 5.837c6.628-2.998 6.326 4.661 10.589 5.752-.103-1.2-.197-2.289-.807-3.894m4.06 31.026 1.672 5.658 2.659-4.779h5.86c-1.264-1.628-2.38-3.065-3.497-4.5-2.348.987-4.696 1.974-6.694 3.62m45.314 27.664-7.63 2.46c1.036 1.135 2.113 2.506 3.403 3.632.513.448 1.768.746 2.219.435 1.303-.9 2.37-2.143 4.188-3.88-.255-.494-.956-1.85-2.18-2.647m99.145 17.78c1.305.84 2.981 2.632 3.83 2.301 1.335-.521 2.444-2.355 2.974-3.87.228-.649-1.236-1.891-1.93-2.865-1.625 1.21-3.25 2.42-4.874 4.435m7.002 35.945c2.935 4.63 4.66 4.736 8.075.325-2.331-2.925-4.813-4.296-8.075-.325m9.022-51.95-.24-5.101c-1.258.37-3.028.364-3.648 1.205-.838 1.135-.793 2.923-1.127 4.43 1.486.01 2.971.02 5.015-.534m15.374 48.628c-.783 2.905-.68 5.45 3.256 3.792 1.421-.598 2.114-2.927 3.14-4.466-1.937.044-3.874.087-6.396.674m-166.005-2.163c1.627.35 3.314 1.097 4.853.865.651-.098 1.545-2.38 1.307-3.44-.211-.942-2.48-2.39-2.729-2.195-1.448 1.133-2.567 2.685-3.431 4.77m86.78-84.63-2.082 2.185c.662.716 1.197 1.709 2.015 2.089 1.365.632 2.902 1.084 4.387 1.153.464.022 1.597-1.768 1.384-2.154-.626-1.134-1.693-2.086-2.751-2.895-.576-.44-1.484-.445-2.953-.377M276.997 98.46l.446-4.465c-4.15 1.699-5.648 8.423-2.77 13.178.824-2.837 1.557-5.356 2.324-8.713m128.966 51.878c-1.361-2.743-2.963-5.088-7.932-3.753l5.02 7.693c1.295-1.72 1.897-2.521 2.912-3.94M278.505 155c-3.702-1.06-8.073 2.703-11.321-1.625v3.056h16.792l.002-1.431h-5.473M156.161 61.692c4.752.23 5.792-.908 5.127-5.75l-8.461 3.218c1.244.855 2.032 1.397 3.334 2.532m16.785-10.672c-.153.058-.323.092-.454.182-.084.058-.173.276-.152.293 1.544 1.288 3.099 2.564 5.248 4.33l4.237-8.55c-3.628 1.662-5.877 2.693-8.879 3.745m106.082 139.173c.854.072 2.29.472 2.464.163.847-1.506 1.357-3.202 2.127-5.196-2.33-4.935-5.348.489-7.282.146.758 1.167 1.712 2.634 2.69 4.887m-27.994-12.808c-2.425-2.761-2.79-7.544-8.11-8.587l9.36 13.242.991-.59c-.597-1.156-1.195-2.312-2.24-4.065m-2.525-9.405 4.934 6.945.902-.401-1.709-6.52 2.513-2.221-.381-.708c-2.173.736-4.346 1.472-6.259 2.905m-26.915-52.924 9.378 7.438c-.696-3.72-6.352-9.01-8.873-8.993-.334.002-.662.684-.505 1.555m48.555 110.92 3.736-3.392c-2.055-1.06-3.452-2.01-4.994-2.418-.396-.104-1.906 1.671-1.747 2.284.332 1.287 1.432 2.375 3.005 3.526M240.45 173.95l2.542 1.692c-1.361-3.904-1.361-3.904-2.542-1.692m3.895 2.008-1.293 1.163 1.362 1.181c.178-.557.355-1.114-.07-2.344m6.083 9.702.083 2.213 1.259-.364c-.17-.54-.339-1.08-1.342-1.85m-2.991-3.974c.15.812.29 1.626.485 2.426.011.044.498-.029.764-.048-.123-.709-.246-1.418-1.249-2.378m-2-3c.15.812.29 1.626.485 2.426.011.044.498-.029.764-.048-.123-.709-.246-1.418-1.249-2.378m-12.986 41.229 1.187-.363c-.103-.203-.223-.588-.307-.58-.461.043-.914.181-.88.943m15.742-30.088-1.07.214c.075.243.192.702.219.697.495-.096.98-.248.851-.911m184.512-7.881 1.218-.79c-.568.053-1.137.107-1.218.79m-232.542-55.153-.924-.228.087 1.168c.37-.054.738-.108.837-.94m38.646 44.382 1.07-.214c-.075-.243-.192-.702-.219-.697-.495.096-.98.248-.851.911zM771 394.293c2.304-17.01 15.367-27.36 31.493-27.38 9.1-.012 17.936.902 25.486 6.167 13.144 9.163 15.64 22.695 10.951 36.156-4.346 12.48-14.265 19.967-25.23 26.526l25.678 31.105 4.625-21.618h17.018c-.128 10.49-1.911 20.648-6.81 29.814-2.727 5.102-1.354 8.075 2.006 11.767 8.128 8.926 15.955 18.126 24.733 28.163-8.576 0-16.11.087-23.637-.1-1.051-.026-2.249-1.243-3.072-2.179-4.313-4.902-8.527-9.892-13.09-15.22-7.771 11.306-18.988 17.315-31.575 18.973-16.524 2.178-33.03 1.4-46.204-11.55-13.671-13.439-14.622-42.814.365-56.052 6.884-6.08 14.296-11.563 22.115-17.835-7.156-10.278-16.73-21.011-14.852-36.737m46.972 75.16c-6.319-7.653-12.584-15.353-19.031-22.897-.727-.85-2.957-1.556-3.694-1.085-7.306 4.674-15.087 8.77-19.33 17.07-5.636 11.029-5.186 22.793 4.46 31.157 16.802 14.569 41.039 5.778 49.71-10.016-3.833-4.52-7.726-9.11-12.115-14.229m-27.998-69.583c.947 9.713 8.146 15.75 13.096 23.12 8.089-4.523 14.836-9.709 18.077-18.444 3.315-8.934-1.934-18.578-10.091-20.496-12.118-2.85-19.413 2.418-21.082 15.82zM393.925 407h5.807v15.013c13.487-16.447 29.768-20.44 48.342-14.861 7.212 2.166 12.864 6.954 15.535 15.142 4.99-8.37 12.431-13.287 21.24-15.522 13.49-3.423 26.651-3.04 38.463 5.906 6.94 5.257 9.443 12.714 9.55 20.647.362 26.989.138 53.986.138 81.327h-19v-4.497c0-23.332.213-46.668-.097-69.996-.139-10.464-4.013-15.53-12.037-17.66-17.172-4.558-35.124 5.491-34.917 25.783.224 21.995.051 43.995.051 66.355h-19v-4.94c0-23.166.066-46.332-.034-69.497-.038-8.884-4.35-15.76-12.06-17.731-14.343-3.666-25.605 2.608-32.58 16.167-1.827 3.55-2.187 8.148-2.228 12.275-.211 21.15-.098 42.303-.098 63.772h-18.687V407h11.612zM702 684v-19.714h-76.823v67.427h-19.893V583.29h19.54v63.425h77v-63.428h20.893v148.425H702v-47.71zM213.344 612.798c2.4 11.53 2.555 22.583-1.287 33.59-5.298 15.181-18.528 24.066-33.954 24.499-17.528.49-35.08.113-53.006.113v60.75H104.25V583.214c1.242-.07 2.514-.204 3.786-.205 19.822-.013 39.658-.45 59.459.201 8.262.272 16.703 2.067 24.608 4.593 11.736 3.75 18.035 12.992 21.241 24.995m-30.938 37.298c9.493-5.527 11.87-14.121 11.747-24.554-.154-12.982-8.546-22.337-19.76-23.211-16.253-1.267-32.679-.325-49.17-.325V654c13.678 0 27.149.31 40.593-.153 5.382-.185 10.705-2.074 16.59-3.75zM198.763 447.39c5.206 13.343 10.21 26.338 15.21 39.335 3.563 9.265 7.12 18.532 10.864 28.274-7.016 0-13.739.123-20.449-.116-1.159-.041-2.871-1.384-3.3-2.514-4.48-11.83-8.743-23.743-13.086-35.626-.663-1.816-1.423-3.596-2.277-5.743-17.725 0-35.513.21-53.29-.12-5.864-.108-8.971.769-10.84 7.43-3.233 11.518-8.22 22.551-12.67 33.709-.501 1.255-2.242 2.786-3.475 2.847-5.975.296-11.973.134-18.722.134 3.122-8.062 6.072-15.72 9.05-23.365 9.064-23.274 18.164-46.534 27.2-69.82 6.774-17.459 13.427-34.965 20.3-52.385.435-1.1 2.269-2.237 3.52-2.32 4.313-.285 8.735.41 12.97-.233 6.141-.932 8.352 2.083 10.32 7.246 9.294 24.382 18.946 48.627 28.675 73.267M144.516 453h34.636l-23.814-66.618L131.098 453h13.418zM174.754 819.371c5.127 13.199 10.007 26.07 14.965 38.912a35787.361 35787.361 0 0 0 29.316 75.68c1.796 4.622 3.789 9.167 5.81 14.037-6.784 0-13.258.247-19.69-.163-1.743-.112-4.283-1.863-4.885-3.457-4.644-12.276-8.946-24.684-13.236-37.092-.779-2.251-1.664-3.38-4.37-3.361-19.318.137-38.638.073-57.967.073-5.25 13.676-10.394 27.262-15.761 40.76-.54 1.357-2.394 3.02-3.72 3.094-5.966.334-11.962.146-18.481.146 5.184-13.173 10.264-25.928 15.226-38.729 8.39-21.643 16.69-43.32 25.053-64.973 5.42-14.036 10.828-28.077 16.43-42.04.426-1.061 2.33-2.106 3.588-2.157 5.655-.231 11.327.001 16.988-.146 2.636-.069 3.477.956 4.28 3.474 1.696 5.323 4.118 10.415 6.454 15.942m-7.719 33.93-11.603-33.675-24.446 67.136h48.37c-4.043-11.157-7.96-21.968-12.32-33.462zM329.763 723.737c-12.097 9.773-25.652 11.542-40.229 9.527-7.234-1-13.6-3.001-19.169-8.197-7.218-6.735-8.634-15.24-8.224-24.086.598-12.91 7.559-22.068 19.728-26.143 8.34-2.792 17.22-3.976 25.87-5.829 6.439-1.38 13-2.315 19.304-4.141 4.045-1.172 6.899-4.124 6.994-8.972.113-5.664-.909-11.048-6.224-13.82-12.302-6.414-24.997-5.805-36.373 1.581-3.926 2.55-5.32 9-8.171 14.218h-18.234c2.553-6.945 4.203-13.65 7.37-19.54 5.043-9.381 14.265-13.524 24.228-15.201 12.177-2.05 24.471-2.095 36.637.846 9.639 2.33 18.385 11.294 18.644 20.483.603 21.396.793 42.804 1.067 64.209.115 8.982.629 9.53 9.236 8.349.457-.063.946.101 1.783.205v6.933c0 7.56 0 7.56-7.118 9.486-10.924 2.955-16.908-.64-22.123-13.337-1.586 1.06-3.16 2.113-4.996 3.429m-19.43-40.74c-6.667 1.652-13.61 2.619-19.927 5.146-6.567 2.626-9.825 10.872-8.392 17.72 1.127 5.39 6.933 10.527 13.334 11.052 5.116.42 10.378.676 15.427-.038 10.658-1.51 20.692-8.964 22.875-19.613 1.256-6.131.227-12.731.227-19.477-1.45.542-2.315.993-3.233 1.186a804.953 804.953 0 0 1-20.31 4.024zM912.028 622.971c14.29 2.1 24.322 9.325 24.857 23.514.782 20.72.955 41.467 1.023 62.204.024 7.449-.452 10.41 10.09 8.38 0 4.372.096 8.673-.084 12.963-.034.817-1.02 2.091-1.798 2.301-6.948 1.879-14.309 4.003-20.386-1.345-3.152-2.773-4.766-7.292-6.892-10.727-5.693 6.327-13.8 10.875-23.08 12.586-10.297 1.898-20.57 1.835-30.868-1.69-14.659-5.017-19.4-20.367-17.527-32.98 2.432-16.375 14-23.077 28.526-26.099 9.968-2.073 20.121-3.239 30.133-5.12 14.692-2.761 16.132-12.813 9.771-22.23-3.443-5.098-9.864-6.281-15.542-6.506-5.915-.234-12.137.477-17.795 2.192-8.546 2.59-11.64 7.55-12.902 17.586-5.1 0-10.244.009-15.387-.008-.98-.003-1.958-.104-2.933-.159 1.143-20.964 13.713-32.8 32.431-34.686 9.22-.93 18.607-.187 28.363-.176M919 693.255v-14.432c-9.152 1.453-17.782 2.554-26.289 4.267-5.924 1.192-12.022 2.5-17.423 5.063-6.682 3.171-9.498 9.405-8.213 16.806 1.056 6.085 4.957 9.898 10.963 11.636 7.613 2.203 15.282 1.94 22.443-.928 9.654-3.866 17.702-9.717 18.519-22.412zM581.067 517c-10.422.077-19.87-1.747-26.306-9.99-3.05-3.904-5.98-8.86-6.505-13.612-2.249-20.34 4.298-32.356 26.118-37.319 10.847-2.467 21.944-3.822 32.813-6.2 4.695-1.028 9.95-1.992 11.86-7.799 2.356-7.165-1.367-17.619-12.51-19.742-8.916-1.699-17.934-1.591-26.498 2.6-5.475 2.679-8.527 6.812-9.004 12.79-.256 3.207-1.533 4.556-4.926 4.341-4.466-.282-8.965-.069-13.893-.069-.98-8.05 1.346-15.215 5.86-21.366 6.71-9.142 16.354-13.242 27.516-14.734 11.668-1.56 23.086-1.353 34.38 2.078 11.615 3.529 17.814 12.582 17.963 24.695.241 19.65.096 39.307.05 58.96-.02 9 2.155 10.65 10.999 8.233 0 4.718.287 9.278-.215 13.75-.116 1.038-2.838 2.289-4.505 2.558-7.231 1.17-14.913 3.056-20.334-3.968-2.01-2.603-2.658-6.257-3.984-9.574-9.766 11.383-23.23 15.167-38.88 14.368m-7.959-19.367c11.58 5.846 23.232 4.526 33.939-1.445 12.885-7.186 14.33-18.877 12.26-34.766-3.369.856-6.736 1.846-10.161 2.555-9.924 2.054-19.957 3.645-29.786 6.07-11.8 2.91-16.93 17.82-6.252 27.586zM750.996 642.043c7.42-10.726 17.408-17.415 29.886-19.335 20.268-3.118 37.316.656 49.781 20.513 6.458 10.288 10.138 26.133 9.182 40.67h-79.542c-.741 17.122 9.761 30.769 25.841 33.256 10.7 1.655 19.997-.171 27.713-7.716 2.313-2.263 4.11-5.55 4.953-8.687.91-3.389 2.597-3.895 5.524-3.787 4.468.165 8.947.043 13.775.043-.758 7.974-3.78 14.553-8.213 20.601-8.594 11.724-20.948 15.486-34.643 16.393-11.485.76-22.457-1.306-32.178-7.53-12.023-7.7-18.438-19.419-20.974-33.143-1.856-10.042-2.325-20.24-.114-30.383 1.625-7.451 4.006-14.55 9.009-20.895m68.887 24.528c-1.075-16.128-12.893-27.588-28.157-28.454-16.918-.96-29.48 10.774-31.542 28.854 19.648 0 39.26 0 59.7-.4zM354.777 850.72c7.804-6.617 16.177-10.541 26.229-11.963 9.74-1.378 18.98-.445 27.464 3.608 15.252 7.285 23.198 20.575 26.444 36.728 1.34 6.665 1.736 13.52 2.617 20.747h-79.876c-2.76 15.032 7.198 31.418 24.683 33.902 17.73 2.519 29.692-2.42 34.06-19.577h18.36c-2.374 19.98-18.015 33.965-37.76 36.05-11.011 1.161-21.319.1-31.332-4.085-15.672-6.55-23.125-19.683-26.542-35.343-2.832-12.978-3.113-26.023 1.795-38.82 3.074-8.016 7.21-15.196 13.858-21.247M402.495 884h14.43c-1.644-17.257-14.45-31.23-34.711-28.887-14.108 1.631-25.198 15.044-24.642 28.887h44.923z"/><path d="M401.776 256.58c-5.066 3.737-9.96 7.74-15.238 11.147-7.181 4.636-14.595 2.465-21.2-1.165-8.584-4.717-16.585-10.482-24.947-15.618-7.373-4.53-14.7-9.293-24.905-10.215 3.32 3.022 5.81 5.342 8.358 7.595 3.294 2.91 2.766 6.457 1.354 9.85-2.565 6.168-6.189 11.99-8.016 18.345-2.437 8.474-8.216 12.393-15.93 14.452-15.22 4.063-30.845 4.715-46.4 3.825-9.936-.568-19.79-2.94-29.624-4.81-8.471-1.61-12.345-7.638-14.305-15.55-.949-3.827-2.138-7.843-4.267-11.085-6.38-9.709-4.926-14.143 4.367-20.357.617-.414 1.203-.874 2.743-1.998-9.3.017-15.814 4.24-22.305 8.153-8.54 5.147-16.777 10.796-25.207 16.13-11.367 7.194-21.879 6.07-31.74-3.155-2.757-2.58-6.19-4.436-9.764-6.939 16.036 2.907 27.586-5.84 39.604-13.074 9.642-5.804 18.926-12.252 28.827-17.562 7.726-4.144 16.225-5.834 24.42-.55 2.01 1.295 4.101 2.94 5.29 4.937 3.28 5.514 6.116 11.293 9.1 16.981 2.221 4.235.9 7.603-2.867 10.033-4.026 2.598-8.223 4.931-12.221 8.162 31.548 11.526 63.077 11.082 94.702 1.061l1.27-1.736c-1.221-.59-2.453-1.161-3.66-1.78-1.006-.515-1.965-1.122-2.974-1.628-11.573-5.805-12.443-8.596-6.283-19.726 2.241-4.05 3.736-8.667 6.606-12.18 7.007-8.578 17.534-9.79 29.215-3.561 11.894 6.342 22.965 14.209 34.532 21.183 9.144 5.513 18.435 10.858 30.377 10.387.794.24.94.344 1.088.448m-180.756-1.106c1.01-.493 2.22-.778 2.992-1.519 2.094-2.008 4.003-4.21 5.986-6.334-2.44-1.87-4.712-4.056-7.39-5.478-1.358-.722-3.944-.75-5.115.098-3.437 2.487-6.329 5.71-9.651 8.374-2.79 2.236-2.203 4.733-.565 6.867 1.64 2.136 3.997 3.722 5.18 4.78 3.176-2.508 5.576-4.404 8.563-6.788m80.497-3.463c4.675 3.562 11.791 3.954 13.89 10.915.747-.645 1.338-1.23 2-1.715 6.84-5.014 6.74-8.694 1.459-12.845a348.375 348.375 0 0 1-4.934-3.946c-4.519-3.686-10.3-3.21-14.078 1.24-1.99 2.345-2.147 4.443 1.663 6.35m-42.506 32.156 5.255 1.024 2.84-2.294c2.533 2.282-1.432 6.953 3.724 8.345v-15.923l-7.533 6.47-7.022-7.306v16.809c4.494-.926 1.971-4.282 2.736-7.125m23.206-8.165c-.999.004-2.078-.239-2.983.055-3.683 1.198-6.435 3.437-6.162 7.672.23 3.584 4.105 6.32 7.997 6.295 4.22-.028 7.04-2.32 7.768-6.072.803-4.143-2.244-6.461-6.62-7.95m19.86 9.986c.58-.176 1.64-.291 1.67-.536.554-4.428.984-8.872 1.441-13.313l-2.075-.504-2.541 9.219-8.28-7.75-1.471 15.64 1.935.631 2.892-9.84c2.127 2.365 3.885 4.321 6.428 6.453m47.945-45.97c-.769.59-1.552 1.163-2.303 1.775-2.363 1.927-4.148 4.45-2.06 7.176 1.622 2.116 4.31 4.576 6.616 4.673 2.201.092 5.311-2.177 6.632-4.28 2.944-4.691-1.088-9.139-8.885-9.344m-9.262 6.94c.407-.382 1.16-.759 1.166-1.146.045-3.011-.338-6.04 2.987-7.95.482-.277.42-2.717-.208-3.515-3.942-5.014-5.85-4.75-8.727.912-.436.857-.958 1.679-1.309 2.568-.607 1.542-1.11 3.123-1.658 4.688 1.323-.987 2.636-1.987 3.978-2.948.222-.159.568-.145 1.166-.281.627 2.418 1.252 4.828 2.605 7.671m-19.792-16.664-2.75 6.524c1.884.539 3.799 1.124 5.734 1.633 3.554.934 7.697-1.478 8.953-5.173 1.231-3.62-1.222-6.182-6.495-8.38-5.534-2.306-3.91 2.755-5.442 5.396m-160.22 33.73c.923-.624 1.805-1.324 2.777-1.86 3.638-2.002 4.606-4.977 2.37-8.358-1.934-2.927-4.545-5.203-8.542-2.873-1.649.96-3.454 1.651-5.884 2.79 2.963 3.659 5.795 7.154 9.278 10.301m66.89 19.93-.59-2.242h4.69l.625-1.01-5.521-3.694.27-1.03 5.663.374c-.839-3.05-1.756-3.495-8.454-4.056-1.307 13.297-1.006 13.875 8.333 15.636 1.372-4.302-2.993-2.49-5.016-3.979M190.97 236.64c1.81 1.786 3.453 4.737 5.475 5.024 1.958.278 6.22-2.319 6.142-3.419-.293-4.16-1.939-8.224-3.079-12.324l-2.65.884c.9 2.408 2.103 4.758 2.582 7.248.284 1.474-.576 3.168-.921 4.763-1.53-.746-3.14-1.37-4.548-2.299-.556-.366-.522-1.526-1.004-2.126-1.15-1.431-2.449-2.744-3.687-4.104.246 1.637.474 3.277.756 4.908.05.295.322.551.934 1.445m-7.964 7.903 3.383-4.763-.776-.566-5.122 2.842-1.033-1.15 4.242-4.587-.389-1.19-7.824 3.48 7.209 11.721 7.354-4.62c-1.201-.957-2.252-1.03-3.287-.938-1.247.112-2.481.366-3.757-.229M239 286.17l1.915 3.728 1.22-.456v-11.603c1.724.41 3.064.73 4.436 1.055-.144-2.576-.144-2.576-12.054-4.192 4.979 2.32 4.77 6.432 4.483 11.468m132.562-24.217 3.313-5.28 5.849.847c-7.43-6.691-9.69-7.512-11.657-5.309 7.504 5.016-2.388 7.457-1.184 12.647a110.529 110.529 0 0 0 3.68-2.905m-4.609-12.46c-.445-3.219-1.962-2.558-3.197-.66-2.037 3.133-3.765 6.468-5.623 9.717 1.549.515 2.696.268 3.19-.437 1.826-2.61 3.436-5.372 5.63-8.62m-197.38-6.376-2.214 1.346c2.002 3.144 3.918 6.312 6.028 9.343.454.652 1.611.815 2.444 1.203-.087-.97.13-2.12-.316-2.88-1.697-2.903-3.607-5.68-5.942-9.012zM539.999 873.312v74.483H521V929.28c0-17.986-.24-35.976.088-53.955.206-11.277-9.314-20.153-20.18-20.492-20.39-.634-31.873 13.902-31.902 32.14-.031 19.817-.013 39.634-.024 59.452 0 .317-.096.635-.196 1.263h-18.474V841.338h17.374v15.424c4.825-7.257 9.953-12.238 16.973-14.99 7.81-3.062 15.583-4.191 24.146-3.067 8.396 1.103 15.666 3.34 21.778 9.31 5.277 5.154 7.114 11.717 8.408 18.589.39 2.068.674 4.157 1.008 6.708zM375 637.01v-12.72h17.774v15.585c5.926-10.358 14.182-15.824 24.304-17.288 13.24-1.914 26.68-1.833 37.51 7.773 6.116 5.425 9.104 13.27 9.239 21.202.454 26.625.173 53.262.173 80.166h-17.798c-.066-1.402-.192-2.841-.193-4.282-.013-21.993-.36-43.994.103-65.977.361-17.142-12.954-25.19-28.09-22.912-14.23 2.142-24.439 17.652-24.155 29.966.483 20.96.133 41.939.133 63.193h-19v-94.707zM285.955 405c6.74 1.34 13.342 1.842 19.19 4.208 9.861 3.987 15.325 12.737 15.596 22.758.746 27.515.258 55.063.258 82.818H303v-13c0-20.165-.215-40.333.099-60.492.139-8.928-6.717-18.427-17.152-19.407-16.494-1.548-28.975 5.633-33.22 20.942-.986 3.559-1.623 7.336-1.652 11.02-.157 20.155-.075 40.313-.075 60.812h-17.662V407.337h16.354v16.469c8.734-14.231 21.03-19.026 36.263-18.806zM575.65 882.79c-1.75 10.224-1.66 19.931 1.24 29.712 3.461 11.669 13.774 22.476 29.58 21.722 13.89-.663 22.322-7.689 26.017-19.205.295-.917.428-1.905.5-2.87.208-2.838 1.262-4.378 4.534-4.216 5.11.253 10.24.067 15.55.067-1.745 10.813-4.834 20.378-11.936 28.536-6.7 7.697-15.196 11.674-24.828 13.378-11.556 2.044-22.777.904-33.871-3.642-11.489-4.707-19.292-13.063-23.123-24.068-6.897-19.812-6.929-39.966 2.759-59.162 7.31-14.485 19.55-22.039 35.643-24.135 14.043-1.83 27.069.148 38.93 8.079 10.085 6.743 14.022 16.889 15.644 29.013-5.953 0-11.566.157-17.155-.136-1.084-.057-2.659-1.694-3.02-2.9-3.718-12.379-12.886-18.842-27.786-18.066-11.119.58-22.587 8.392-26.275 19.166-.931 2.721-1.417 5.595-2.402 8.726zM1028.196 641.002c-1.054.933-2.12 1.861-2.123 2.795-.094 21.49-.113 42.981-.04 64.472.014 4.57 2.342 6.637 7.124 6.715 4.462.074 8.926.016 13.612.016v17.847c-9.427-.957-18.659-1.735-27.845-2.877-6.905-.858-9.476-6.26-10.792-12.077-.93-4.112-1.066-8.464-1.086-12.71-.1-21.155-.046-42.31-.046-63.864h-17.643v-17.007h17.333v-31.958h19.002v31.339h20.956V641c-5.8 0-11.884 0-18.452.002zM509 615.948v7.828h20.688v16.989h-20.372c-.124 1.625-.303 2.887-.304 4.149-.017 20.311.018 40.622-.03 60.933-.015 6.288 2.881 10.055 9.362 9.235 3.6-.456 7.304-.082 11.309-.082v17.764c-9.535-.938-19.3-1.347-28.836-3.04-5.972-1.06-9.802-8.384-9.81-15.823-.02-22.476-.007-44.95-.007-67.426v-5.314h-18.72v-16.99h18.539v-31.878H509v23.655zM247 699v32.714h-18.717V583.286H247V699zM680 456v58.712h-18.716V367.288H680V456zM961 727.863V583.244h17.76V732c-5.175 0-10.292-.13-15.398.046-3.236.111-2.177-2.09-2.362-4.182zM361 496v18.714h-17.717V407.286H361V496z"/><path d="M252.757 256.758c-.56.82-.855 1.386-1.19 2.03-4.207-2.652-4.435-7.087-3.227-10.742.736-2.227 4.397-3.487 7.655-5.838v-11.025l16.911 2.987v9.038c9.193 2.587 11.016 8.856 4.599 15.747l-2.142-2.58c-2.288 4.23-4.302 8.56-6.935 12.475-.857 1.274-3.361 2.03-5.058 1.945-1.193-.06-2.548-1.773-3.39-3.041-2.438-3.672-4.653-7.49-7.223-10.996m3.213-3.051c.685 2.124 1.156 4.356 2.15 6.324.462.913 1.895 1.631 2.982 1.79.462.068 1.417-1.455 1.7-2.39.4-1.323.385-2.772.547-4.168.915.112 2.577.1 2.62.357.236 1.421.075 2.908.055 4.372-.007.493-.001.987-.001 1.571 5.465 2.042 5.199-3.13 5.715-5.356.914-3.933 2.844-4.42 6.352-3.227l.606-1.152-3.71-4.805c-1.481 1.304-3.594 2.338-4.295 3.976-1.047 2.448-1.834 3.96-5.29 2.1 2.052-4.885 6.875-10.605-1.373-13.895-8.615 4.146-.531 9.765-1.833 15.082-1.824-.91-2.963-2.203-4.192-3.402-1.362-1.329-2.807-2.571-4.216-3.851l-3.638 5.365c2.6.308 3.997.474 5.82 1.309zM355.898 367h4.953v21.676h-17.53V367h12.577zM258.922 39.077c-3.623 2.177-5.773.525-6.825-1.76l-7.7-2.55c-2.196 1.125-4.646.885-6.062-2.287-.468-1.048.38-3.815 1.206-4.098 2.512-.858 5.465-1.167 5.593 2.887 1.735-.409 3.712-1.514 5.09-1.003 1.168.433 1.643 2.735 2.449 4.256l3.263-2.176-1.136-4.047h19.305l-1.734 4.257 3.368 1.183c.572-3.177 2.66-4.9 5.681-3.34 1.055.545.935 3.365 1.351 5.146l-6.523 1.178c.338 3.385-2.193 4.154-6.328 2.603v13.425h-3.672V39.994l4.436-4.453h-11.667c.08.74.162 1.505.277 2.725-.103.573-.237.692-.372.81zM349.013 99.955c-1.534.979-3.107 2.84-4.687 2.846-2.34.008-6.628-1.204-6.671-2.065-.145-2.92.438-6.608 2.26-8.643 1.285-1.434 5.421-1.582 7.59-.664 3.354 1.42 3.292 4.781 1.5 8.281-.138.382-.035.296.008.245zM377.577 214.092c-.395-1.6-.598-2.918-.557-4.23.15-4.755 2.7-7.267 6.857-6.861 3.352.327 6.002 4.128 5.545 8.033-.378 3.221-1.366 6.209-5.004 6.9-2.943.56-5.665.021-6.841-3.842m5.912-7.994c-.4.281-.802.56-1.2.843-2.226 1.59-3.278 3.607-1.211 5.868.696.761 2.368.63 3.595.906.146-2.018.343-4.034.388-6.055.008-.339-.643-.693-1.572-1.562z"/><path d="M259.538 38.555c1.248.192 2.282.55 3.388.93V52.65l-3.932.373c0-4.553 0-8.79-.036-13.486.099-.58.233-.698.58-.982zM236.28 27.777c.434.588.685.888.675 1.178-.078 2.14.84 5.187-2.775 4.864-1.157-.104-2.909-2.24-3.03-3.57-.333-3.68 2.12-3.717 5.13-2.472zM289.999 31.06c-1.021 1.575-2.044 2.736-3.066 3.896-.977-1.04-2.52-1.961-2.766-3.152-.226-1.092.946-2.473 1.502-3.726 1.443.855 2.886 1.71 4.33 2.981zM172 23.029c-1.172-1.96-2.34-3.484-4.009-5.66 4.138-.106 7.726 3.958 7.765 8.197-1.514-.848-2.633-1.474-3.756-2.537zM401.13 256.095c.359-.418.923-.66 1.486-.904-.131.336-.263.67-.618 1.197-.37.088-.516-.015-.868-.293z"/><path fill="#FFF" d="M297.008 918.934c-9.272 16.228-30.149 18.641-42.864 7.446-5.44-4.788-8.601-11.718-9.867-18.94-1.867-10.66-2.275-21.308 1.478-31.866 4.853-13.65 15.426-22.46 32.418-20.472 11.69 1.368 19.851 9.564 23.853 23.698 3.657 12.916 1.68 25.295-3.13 37.455-.345.875-1.223 1.539-1.888 2.679zM267.232 12.293c-.303-.472-.216-.853-.128-1.235.173.443.346.885.128 1.235zM261 149.153c-.559-1.585-1.118-2.743-1.718-3.988l3.348-.704-11.57-1.831c1.037-.833 1.985-1.56 2.893-2.333 1.272-1.083 1.125-.958 2.601.457.881.845 2.978 1.896 3.288 1.592 1.02-1.003 1.905-2.537 2.052-3.95.238-2.285-.152-4.637-.276-6.966l-6.2-1.55.192-.906 5.998 1.208v-6.752l.933.007v33.316h-39.038c-1.667-21.896 18.48-47.32 39.26-46.521v10.134l-7.994-1.778 6.968-4.734-.794-1.496-9.995 4.955.48.587c-1.68.414-4.044.295-4.878 1.367-1.202 1.544-1.324.237-2.174.134-2.805-.34-3.106 2.365-.287 6.925-2.023-.527-3.495-1.098-5.003-1.22-.685-.056-1.602.649-2.091 1.265-.213.268.493 1.163.597 1.804.302 1.863.511 3.742.757 5.614l-1.209.152c-.948-1.31-2.476-3.867-2.755-3.737-3.294 1.53-1.821 3.562-.195 5.47.625.732 1.307 1.416 1.837 1.986-1.774.757-3.636 1.106-4.834 2.19-1.138 1.029-1.581 2.826-2.997 5.586l4.25 5.374c-.476.025-1.224.12-1.967.092-1.132-.043-2.26-.17-3.39-.262-.043.78-.425 1.952-.064 2.263 1.061.914 2.472 2.16 3.647 2.064 3.306-.272 6.539-1.431 9.844-1.698 2.445-.197 5.33-2.156 7.51 1.511.379.637 4.786-1.12 7.544-1.827l3.942 2.153c.496-1.343 1.032-2.673 1.465-4.036.144-.453.023-.991.023-1.917zM233.222 88.29c6.082-1.952 11.875-4.925 17.716-5.02 12.625-.206 25.275 1.043 37.912 1.764 1.077.062 2.177.516 3.18.978 6.311 2.91 6.606 4.966 1.552 9.767-19.414-9.798-38.76-9.39-58.42-.204-1.572-1.837-5.1-3.302-1.94-7.284zM393.776 115.58c-1.27 1.42-2.07 3.07-4.72 1.504-11.61-6.858-23.385-13.435-35.15-20.142l1.02-3.259c1.217.845 2.796 2.324 4.665 3.121 1.554.663 3.45.523 5.193.74l.428-1.55-4.09-3.859 4.687.342 3.864-5.864 1.454.651-1.402 5.941 3.074 4.71-6.482-1.017-.906 1.334c1.577 1.466 2.935 3.518 4.8 4.216 1.549.58 3.694-.433 5.714-.763l-2.413-3.634.967-.641 2.096 2.294.694-4.596c.536.064 1.357.017 1.407.19.568 2.003 1.075 4.03 1.452 6.077.067.365-.536.853-.83 1.284-1.061-1.003-2.458-2.239-2.68.332-.129 1.486.513 3.576 1.582 4.49 1.306 1.12 3.422 1.291 5.188 1.872l.958-.977-2.19-4.774c.579-.638 1.51-4.262 3.59.384l5.06-5.444.795.472-1.655 10.013h-3.486c.547 1.52.75 3.348 1.75 4.464.835.934 2.602 1.034 4.541 1.64.731.242.878.345 1.025.449zM293.127 192.098c-.656-1.321-1.107-2.467-1.664-3.882l3.289-.477-.016-.484-7.852-1.058c1.36-1.455 2.21-2.363 2.975-3.179l6.136 4.391c-.498-4.63 3.773-8.205-1.33-10.88l6.419-3.405-1.124-9.982 1.488-.556-.042-.586c-3.856 0-7.717.122-11.566-.035-3.699-.15-7.362-.538-7.951 3.745-1.67-1.799-2.886-4.206-4.4-4.41-1.296-.173-2.932 2.176-4.73 3.669l-3.954-4.683c-2.261 5.445 1.17 7.238 3.95 9.095l-5.63.495v-9.617h38.824c-.572 11.908-4.297 22.542-11.926 32.109-.399.114-.545.01-.896-.27zM377.215 76.286c-3.69 2.331-7.265 4.196-10.513 6.518-3.106 2.22-5.96 2.552-9.697-.175 1.896-1.31 1.522-3.839 4.983-4.609 1.903-.423 2.916-4.848 4.07-6.986 3.614.65 7.525 2.442 10.78 1.623 3.097-.78 5.509-4.285 8.168-6.547.273 4.887-3.754 7.316-7.791 10.176zM162.918 65.928c4.929-2.6 9.826-5.312 15.461-5.384l.313 1.231-2.857.376c-.657 2.11-1.286 3.708-1.64 5.365-.645 3.025-.22 5.475 3.359 6.533 3.481 1.03 4.637 3.873 3.725 7.081-.72 2.534-2.394 4.6-5.722 3.048-3.43-1.6-5.358-5.39-4.038-8.189 2.542-5.392 2.472-5.376-2.985-7.061-1.569-.485-2.893-1.764-4.797-2.636-.584-.094-.702-.229-.82-.364zM278.848 138.635c1.18-.35 2.102-.428 3.202-.52l-2.141 5.387c-.626.12-2.147.281-3.545.782-.287.103-.25 2.144-.14 2.166a30.26 30.26 0 0 0 4.708.55c1.303.049 2.614-.106 4.146-.182l-.586-3.366.813-.885 6.634 7.953c-5.2-2.653-10.04.02-14.929.444-3.282.285-4.927-1.54-5-4.77-.05-2.215-.01-4.432-.01-5.515 3.06-.823 4.825-1.298 6.848-2.044zM428.21 208.424c2.543-1.019 5.255-2.722 7.15-2.066 1.684.584 3.387 3.794 3.363 5.825-.02 1.802-2.071 4.24-3.858 5.136-1.26.631-3.77-.521-5.38-1.462-2.883-1.684-3.183-4.269-1.275-7.433z"/><path fill="#FFF" d="M294.929 127.08c1.783 2.55 4.178 4.872 5.229 7.694 2.607 7.005 4.6 14.239 7.025 21.971h-21.594c3.932-2.362 8.155-1.71 12.44-1.348 1.603.135 3.58-.523 4.832-1.517.56-.444-.042-2.675-.466-3.982-2.405-7.406-4.915-14.778-7.393-22.527-.003-.365-.073-.292-.073-.292zM245.245 96.27c2.633-1.9 5.201-2.903 7.629-.79 2.231 1.94 4.051 4.217 2.656 7.699-.3.75.9 2.102 1.407 3.178-2.88 2.018-9.905 1.405-12.275-1.216-2.615-2.892-2.694-5.83.583-8.87m5.047.763c-3.097.086-4.84 1.877-4.063 4.703.298 1.086 3.373 2.513 4.507 2.067 4.126-1.626 2.54-4.11-.444-6.77zM218.102 155.876c-1.152-1.221-3.03-2.705-2.937-4.05.428-6.111-2.607-10.255-6.798-13.984-.31-.276-.3-.913-.532-1.7.825-.314 1.617-.608 2.403-.918 1.306-.517 2.607-1.045 3.91-1.568l-1.5 4.17c3.342-.683 6.623-5.583 8.951-.308.63 1.428-1.094 3.896-1.738 5.887l-1.714-.558 1.009-4.81-5.054 2.379c1.362 4.81 2.699 9.53 4.275 14.544.129.436.018.577-.275.916zM290.832 99.527c.249 1.799.352 3.226.472 4.871l8.113-.532-7.978 10.96-1.279-.457 2.772-6.853-3.505.632-.856-4.5-5.565 5.812-1.166-1.101c2.067-3.198 4.074-6.438 6.288-9.531.237-.331 1.676.198 2.704.7zM315.078 130.923l10.101 18.1-16.078-3.846c.937-.548 2.548-1.156 3.704-2.246 1.574-1.482 3.581-3.182 3.946-5.07.33-1.71-1.294-3.797-2.073-6.156.123-.553.261-.668.4-.782zM308.996 188.999c-1.95-.767-3.51-1.497-6.3-2.804 2.405-1.212 3.783-1.979 5.22-2.611 1.597-.703 3.248-1.282 4.98-1.956l-6.09-3.444.655-1.578 12.86 4.562-10.618 5.135 5.953 3.034-.238 1.276c-2.01-.526-4.02-1.052-6.422-1.614zM210.301 182.752c1.665-2.443 3.254-5.217 5.643-6.492 1.217-.65 4.92.89 5.626 2.346 1.024 2.114.99 5.281.166 7.549-.503 1.384-3.94 3.13-4.993 2.599-2.41-1.214-4.165-3.727-6.442-6.002m4.81 2.883c1.621-.52 3.966-.596 4.644-1.697.592-.962-.228-3.816-1.28-4.482-1.09-.69-3.21.243-4.88.466.318 1.702.637 3.405 1.517 5.713zM332.049 140.959c-6.8-.914-6.681-7.154-9.649-11.015l.86-1.228c2.85.427 5.689 1.022 8.555 1.235 2.882.214 5.792.047 8.684.276-9.504 1.861-10.931 3.505-8.533 10.432-.023.408.046.334.083.3zM221.613 132.77c-6.351-1.348-8.704-4.379-6.455-8.517 1.006-1.851 3.581-3.96 5.418-3.935 1.835.024 4.304 2.234 5.241 4.111.745 1.492-.106 4.043-.825 5.9-.385.991-1.99 1.51-3.38 2.44m2.383-6.236c-1.04-2.267-2.18-5.078-5.12-2.63-1.04.866-1.476 4.334-.675 5.177 2.406 2.533 4.22.217 5.795-2.547zM259 96.092c.6-1.325 1.2-2.195 1.799-3.064.4.74 1.06 1.453 1.145 2.228.18 1.634-.274 3.399.172 4.923.32 1.092 1.677 1.881 2.572 2.806.769-.885 1.994-1.674 2.204-2.676.367-1.742-.032-3.633.183-5.427.08-.673.975-1.248 1.498-1.868.472.503 1.325.99 1.35 1.514.106 2.302.686 4.985-.268 6.824-1.015 1.959-3.566 4.345-5.442 4.34-2.703-.006-5.622-1.78-5.23-5.674.114-1.146.017-2.313.017-3.926zM232.916 204.985c3.47-2.039 6.568-4.062 9.665-6.086l.967 1.392-6.698 4.94 3.018 6.282c-7.429-3.033-8.276 1.573-9.457 6.57-3.489-5.563.818-9.071 2.505-13.098zM222.075 202.964c-4.065-3.676 1.498-2.98 1.965-5.155-1.547-1.68-2.72-4.58-5.937-1.519-.23.219-1.175.087-1.41-.196-.347-.42-.639-1.524-.471-1.64 3.192-2.216 6.454-4.328 10.748-7.15l-2.66 7.441 7.477.963c-3.4 2.637-6.374 4.944-9.712 7.256zM296.487 115.184a137.346 137.346 0 0 1 5.414-1.614c1.545-.421 3.104-.793 6.017-1.53l-6.835 15.45c-.666-5.779-1.12-10.439-7.813-10.347 1.584-.998 2.22-1.398 3.217-1.959zM321.814 162.525c-1.484.826-3.241 2.05-4.016 1.597-1.517-.888-2.487-2.711-4.343-4.94l-3.828-1.396.498-1.786c2.627 0 5.253-.015 7.88.003 5.314.038 5.95 1.03 3.809 6.522zM316 172.99c-.738 1.052-1.474 1.682-3.28 3.227.674-2.793.995-3.978 1.223-5.18.05-.26-.231-.582-.54-1.287l-5.04 5.675c1.712-9.373 4.427-10.27 13.462-5.906-1.788 6.034-1.788 6.034-3.937 5.947l1.397-5.627c-1.8 1.495-2.54 2.111-3.285 3.15z"/><path fill="#FFF" d="M295.035 126.971c-1.082-.604-2.536-.898-3.265-1.787-5.13-6.255-12.197-9.601-19.261-12.867-1.376-.635-3.4.134-5.355.271l-.174-2.823c11.996 1.58 21.282 6.862 27.98 16.955-.031.36.039.286.075.251zM296.246 197.31c3.068 2.584 5.873 5.396 7.312 6.839l-3.551 6.324-.878-.787 1.7-4.846-1.051-.726-3.717 2.816-.901-1.134 2.667-3.442a79904 79904 0 0 0-.559-1.131l-5.66 2.233-.64-.979a861.02 861.02 0 0 1 5.278-5.167zM314.44 131.42c-.952-1.218-1.683-2.59-2.594-4.296l-5.72 2.938 1.863 4.123c-3.053.602-3.053.602-5.176-5.699l12.187-5.66c0 2.792 0 5.072.039 7.725-.1.486-.238.6-.598.868zM299.712 192.79c1.532-1.115 2.798-1.977 4.064-2.838l.813 1.15-3.527 2.31 1.14 1.48c1.105-.298 2.22-.872 3.312-.828 1.652.065 3.99.037 4.725 1.025.688.925-.149 3.182-.693 4.72-.178.502-1.545.583-2.367.857.07-.853.076-1.72.233-2.557.105-.563.422-1.087 1.022-2.547l-6.224 2.725c-.873-1.655-1.819-3.449-2.498-5.496zM241.281 179.78c1.981 3.086 3.694 5.912 5.646 9.132-6.117-1.476-10.338-7.624-11.969-17.583 2.45 3.315 4.253 5.754 6.323 8.451zM278.424 128.779c-.804-.991-1.634-1.962-2.406-2.977-.91-1.195-1.77-2.427-2.65-3.642l-1.408.548.58-5.954 8.597 4.497-1.538.413c-.2 1.827-.401 3.655-.735 6.077-.235.743-.337.89-.44 1.038zM235.742 112.246c.352 1.347.446 2.436.549 3.636-4.263-1.09-3.961-8.75-10.589-5.752l5.582-5.837c1.538 2.817 2.869 5.256 4.458 7.953zM239.37 142.684c2.172-1.317 4.52-2.304 6.87-3.292l3.495 4.501h-5.86l-2.659 4.78c-.71-2.405-1.191-4.032-1.847-5.99zM285.12 170.397c.962 1.076 1.663 2.433 1.918 2.927-1.818 1.737-2.885 2.98-4.188 3.88-.45.31-1.706.013-2.219-.435-1.29-1.126-2.367-2.497-3.403-3.632 1.97-.635 4.8-1.548 7.891-2.74zM384.002 188.056c1.625-1.612 3.25-2.822 4.874-4.033.695.974 2.159 2.216 1.931 2.866-.53 1.514-1.639 3.348-2.975 3.87-.848.33-2.524-1.461-3.83-2.703zM391.024 224.004c3.243-3.572 5.725-2.2 8.056.724-3.414 4.411-5.14 4.305-8.056-.724zM399.748 172.735c-1.765.272-3.25.262-4.736.253.334-1.508.289-3.296 1.127-4.431.62-.841 2.39-.835 3.647-1.205.08 1.7.16 3.4-.038 5.383zM415.694 220.809c2.23-.315 4.166-.358 6.102-.402-1.025 1.54-1.718 3.868-3.139 4.466-3.935 1.658-4.04-.887-2.963-4.064zM249.212 218.581c1.048-1.748 2.167-3.3 3.615-4.433.25-.195 2.518 1.253 2.73 2.195.237 1.06-.657 3.342-1.308 3.44-1.54.232-3.226-.514-5.037-1.202zM336.531 134.154c1.114.067 2.022.072 2.598.512 1.058.81 2.125 1.761 2.751 2.895.213.386-.92 2.176-1.384 2.154-1.485-.07-3.022-.52-4.387-1.153-.818-.38-1.353-1.373-2.015-2.09.72-.754 1.401-1.469 2.437-2.318zM276.98 98.88c-.75 2.938-1.483 5.457-2.307 8.294-2.878-4.755-1.38-11.48 2.77-13.178-.154 1.537-.3 3.001-.463 4.884zM405.757 150.648c-.809 1.11-1.411 1.91-2.706 3.631l-5.02-7.693c4.969-1.335 6.57 1.01 7.726 4.062zM278.969 155h5.01l-.003 1.43h-16.792v-3.055c3.248 4.328 7.619.565 11.785 1.625zM155.904 61.395c-1.045-.838-1.833-1.38-3.077-2.235l8.461-3.219c.665 4.843-.375 5.982-5.384 5.454zM173.323 51.009c2.625-1.041 4.874-2.072 8.502-3.733l-4.237 8.549c-2.15-1.766-3.704-3.042-5.248-4.33-.02-.017.068-.235.152-.293.13-.09.3-.124.83-.193zM279.015 189.8c-.966-1.86-1.92-3.327-2.678-4.494 1.934.343 4.952-5.08 7.282-.146-.77 1.994-1.28 3.69-2.127 5.196-.174.31-1.61-.09-2.477-.556zM251.258 177.683c.821 1.455 1.419 2.611 2.016 3.768l-.992.59c-2.96-4.188-5.918-8.376-9.359-13.243 5.32 1.043 5.685 5.826 8.335 8.885zM248.379 167.631c2.043-1.084 4.216-1.82 6.389-2.556l.38.708-2.512 2.22 1.709 6.52-.902.402c-1.645-2.315-3.29-4.63-5.064-7.294zM221.35 114.804c.087-.619.415-1.3.749-1.303 2.521-.018 8.177 5.273 8.873 8.993a1074.22 1074.22 0 0 1-9.622-7.69zM269.754 225.985c-1.178-1.16-2.278-2.248-2.61-3.535-.159-.613 1.351-2.388 1.747-2.284 1.542.408 2.94 1.358 4.994 2.418-1.679 1.524-2.708 2.458-4.13 3.401zM349.122 72.103c1.888-1.332 3.973-2.48 6.058-3.629l.747 1.593c-1.878.7-3.756 1.4-5.912 2.33-.417.116-.556.003-.893-.294zM234.738 143.626l-1.153 3.043-1.155-.11c.228-1.282.457-2.564 1.288-3.56.74.4.88.514 1.02.627zM240.241 173.585c1.39-1.847 1.39-1.847 2.75 2.057-1.147-.765-1.844-1.228-2.75-2.057zM132.57 167.449c.446-1.26 1.051-2.303 1.656-3.345l.7.273c-.402 1.141-.803 2.283-1.524 3.56-.437 0-.555-.136-.832-.488zM99.125 125.1c.898-.89 1.997-1.6 3.095-2.31l.538.894c-.832.502-1.665 1.003-2.753 1.716-.398.102-.54-.008-.88-.3zM244.646 176.295c.123.893-.054 1.45-.232 2.007l-1.362-1.181c.43-.388.862-.776 1.594-.826zM250.844 185.774c.586.655.755 1.195.925 1.735l-1.26.364c-.027-.738-.054-1.475.335-2.099zM247.876 181.811c.563.834.686 1.543.809 2.252-.266.019-.753.092-.764.048-.196-.8-.334-1.614-.045-2.3zM245.876 178.811c.563.834.686 1.543.809 2.252-.266.019-.753.092-.764.048-.196-.8-.334-1.614-.045-2.3zM234.122 143.103c1.014-.562 2.225-.941 3.436-1.32l.223.823c-.833.19-1.666.38-2.772.794-.41.113-.55 0-.887-.297z"/><path fill="#FFF" d="M278.904 128.13c.688.11 1.202.43 1.717.748-.604.116-1.208.233-2.004.125-.09-.372.012-.52.287-.874zM163.43 66.55c-.17.882-.499 1.547-1.325 3.215.099-1.91.142-2.744.499-3.708.431.006.55.141.826.494zM155.57 106.45c.17-.882.499-1.547 1.325-3.215-.099 1.91-.142 2.744-.499 3.708-.431-.006-.55-.141-.826-.494zM205.594 168.43c.291-.54.73-.855 1.17-1.17-.04.54-.08 1.08-.401 1.716-.394-.043-.507-.182-.769-.546zM232.205 219.586c.211-.434.664-.572 1.125-.615.084-.008.204.377.307.58-.396.121-.792.242-1.432.035zM206.43 83.406c-.54-.291-.855-.73-1.17-1.17.54.04 1.08.08 1.716.401-.043.394-.182.507-.546.769zM248.5 190.087c-.18.402-.664.554-1.16.65-.026.005-.143-.454-.218-.697.357-.072.714-.143 1.378.047zM392.594 249.43c.291-.54.73-.855 1.17-1.17-.04.54-.08 1.08-.401 1.716-.394-.043-.507-.182-.769-.546zM393.13 115.095c.359-.418.923-.66 1.486-.904-.131.336-.263.67-.618 1.197-.37.088-.516-.015-.868-.293zM432.46 181.63c.325-.368.894-.422 1.462-.475-.406.264-.812.527-1.461.475zM200.297 127.181c-.234.443-.603.497-.972.551l-.087-1.168c.308.076.616.152 1.06.617zM238.5 170.913c.18-.402.664-.554 1.16-.65.026-.005.143.454.218.697-.357.072-.714.143-1.378-.047zM818.22 469.717c4.141 4.854 8.034 9.445 11.867 13.965-8.671 15.794-32.908 24.585-49.71 10.016-9.646-8.364-10.096-20.128-4.46-31.157 4.243-8.3 12.024-12.396 19.33-17.07.737-.47 2.967.235 3.694 1.085 6.447 7.544 12.712 15.244 19.279 23.16zM789.813 399.493c1.83-13.025 9.125-18.293 21.243-15.443 8.157 1.918 13.406 11.562 10.09 20.496-3.24 8.735-9.987 13.921-18.076 18.443-4.95-7.369-12.15-13.406-13.257-23.496zM182.139 650.378c-5.618 1.395-10.941 3.284-16.323 3.47-13.444.462-26.915.152-40.594.152v-51.994c16.492 0 32.918-.942 49.17.325 11.215.874 19.607 10.229 19.76 23.21.124 10.434-2.253 19.028-12.013 24.837zM144.02 453h-12.922l24.24-66.618L179.152 453H144.02zM167.257 853.642c4.139 11.152 8.056 21.963 12.1 33.12h-48.37l24.445-67.136c4.026 11.684 7.815 22.68 11.825 34.016zM310.785 682.98c6.923-1.342 13.397-2.648 19.86-4.007.917-.193 1.781-.644 3.232-1.186 0 6.746 1.03 13.346-.227 19.477-2.183 10.65-12.217 18.104-22.875 19.613-5.05.714-10.31.457-15.427.038-6.4-.525-12.207-5.662-13.334-11.052-1.433-6.848 1.825-15.094 8.392-17.72 6.317-2.527 13.26-3.494 20.38-5.164zM919 693.72c-.817 12.23-8.865 18.08-18.519 21.947-7.16 2.868-14.83 3.13-22.443.928-6.006-1.738-9.907-5.551-10.963-11.636-1.285-7.401 1.531-13.635 8.213-16.806 5.4-2.563 11.5-3.871 17.423-5.063 8.507-1.713 17.137-2.814 26.289-4.267v14.897zM572.85 497.346c-10.42-9.48-5.29-24.39 6.509-27.3 9.83-2.424 19.862-4.015 29.786-6.07 3.425-.708 6.792-1.698 10.162-2.554 2.07 15.889.624 27.58-12.261 34.766-10.707 5.971-22.36 7.291-34.197 1.158zM819.47 666.771c-20.025.2-39.638.2-59.286.2 2.063-18.08 14.624-29.814 31.542-28.854 15.264.866 27.082 12.326 27.744 28.654zM401.996 884h-44.424c-.556-13.843 10.534-27.256 24.642-28.887 20.26-2.342 33.067 11.63 34.712 28.887h-14.93zM220.726 255.718c-2.693 2.14-5.093 4.036-8.268 6.544-1.184-1.058-3.541-2.644-5.181-4.78-1.638-2.134-2.224-4.63.565-6.867 3.322-2.664 6.214-5.887 9.65-8.374 1.172-.847 3.758-.82 5.117-.098 2.677 1.422 4.949 3.608 7.389 5.478-1.983 2.125-3.892 4.326-5.986 6.334-.773.741-1.982 1.026-3.286 1.763zM301.25 251.746c-3.543-1.643-3.386-3.741-1.396-6.085 3.777-4.45 9.56-4.927 14.078-1.24a348.375 348.375 0 0 0 4.934 3.945c5.28 4.15 5.38 7.831-1.459 12.845-.662.486-1.253 1.07-2 1.715-2.099-6.96-9.215-7.353-14.158-11.18zM259.006 284.59c-.76 2.42 1.763 5.775-2.731 6.7v-16.808l7.022 7.306 7.533-6.47v15.923c-5.156-1.392-1.191-6.063-3.723-8.345l-2.841 2.294c-2.113-.411-3.684-.718-5.26-.6zM282.623 276.01c3.97 1.48 7.017 3.798 6.214 7.941-.728 3.753-3.548 6.044-7.768 6.072-3.892.025-7.767-2.711-7.997-6.295-.273-4.235 2.479-6.474 6.162-7.672.905-.294 1.984-.05 3.389-.046m-3.8 10.956c1.975-.459 4.433-.38 5.756-1.566.87-.782.746-3.856-.118-5.036-.78-1.065-3.378-1.653-4.812-1.228-4.581 1.356-2.782 4.557-.827 7.83zM301.684 285.9c-2.15-2.045-3.91-4.001-6.036-6.367l-2.892 9.841-1.935-.632 1.472-15.638 8.279 7.749 2.541-9.22 2.075.505c-.457 4.44-.887 8.885-1.441 13.313-.03.245-1.09.36-2.063.448zM350.426 240.009c7.392.213 11.424 4.66 8.48 9.351-1.32 2.104-4.43 4.373-6.632 4.28-2.307-.096-4.994-2.556-6.615-4.672-2.09-2.727-.304-5.249 2.06-7.176a14.29 14.29 0 0 1 2.707-1.783M352.47 243l-4.43 4.166c1.473 1.23 2.804 3.056 4.474 3.454.917.218 2.712-1.777 3.577-3.119 2.044-3.173-.701-3.719-3.621-4.5zM340.395 246.74c-.989-2.627-1.614-5.037-2.24-7.455-.599.136-.945.122-1.167.281-1.342.96-2.655 1.961-3.978 2.948.547-1.565 1.051-3.146 1.658-4.688.35-.89.873-1.71 1.309-2.568 2.877-5.662 4.785-5.926 8.727-.912.627.798.69 3.238.208 3.515-3.325 1.91-2.942 4.939-2.987 7.95-.006.387-.759.764-1.53.93zM320.984 229.894c1.516-2.243-.11-7.304 5.425-4.998 5.273 2.198 7.726 4.76 6.495 8.38-1.256 3.695-5.4 6.107-8.953 5.173-1.935-.509-3.85-1.094-5.735-1.633 1.01-2.395 1.88-4.46 2.768-6.922m7.484 5.115c2.706-5.773 2.113-6.761-4.076-6.744l-2.384 7.343c2.246 0 4.076 0 6.46-.599zM160.42 264.197c-3.157-3.322-5.989-6.817-8.952-10.476 2.43-1.139 4.235-1.83 5.884-2.79 3.997-2.33 6.608-.054 8.543 2.873 2.235 3.381 1.267 6.356-2.37 8.359-.973.535-1.855 1.235-3.105 2.034m-.04-11.195-4.687 1.473c1.113 1.832 1.707 3.169 2.628 4.217.806.917 1.98 1.51 2.992 2.246.89-1.581 2.255-3.099 2.481-4.77.124-.912-1.682-2.085-3.414-3.166zM228.052 283.975c1.607 1.465 5.972-.347 4.6 3.955-9.339-1.761-9.64-2.34-8.333-15.636 6.698.56 7.615 1.007 8.454 4.056l-5.663-.375-.27 1.03 5.521 3.695-.625 1.01h-4.69c.196.747.393 1.494 1.006 2.265zM190.748 236.33c-.391-.584-.662-.84-.713-1.135-.282-1.63-.51-3.271-.756-4.908 1.238 1.36 2.536 2.673 3.687 4.104.482.6.448 1.76 1.004 2.126 1.409.93 3.018 1.553 4.548 2.299.345-1.595 1.205-3.29.921-4.763-.479-2.49-1.682-4.84-2.581-7.248l2.65-.884c1.139 4.1 2.785 8.165 3.078 12.324.077 1.1-4.184 3.697-6.142 3.42-2.022-.288-3.666-3.24-5.696-5.335zM183.023 244.937c1.258.201 2.492-.053 3.74-.165 1.034-.093 2.085-.019 3.286.937l-7.354 4.621-7.21-11.72 7.825-3.481.39 1.19-4.243 4.587 1.033 1.15 5.122-2.842.776.566c-1.128 1.588-2.255 3.175-3.365 5.157zM239 285.722c.288-4.588.496-8.7-4.483-11.02 11.91 1.616 11.91 1.616 12.054 4.192l-4.436-1.055v11.603l-1.22.456c-.638-1.242-1.277-2.485-1.915-4.176zM371.298 262.2c-1.22.979-2.178 1.711-3.415 2.658-1.204-5.19 8.688-7.631 1.185-12.647 1.967-2.203 4.226-1.382 11.656 5.31l-5.85-.848a186.944 186.944 0 0 1-3.576 5.527zM366.703 249.765c-1.943 2.976-3.553 5.737-5.38 8.348-.493.705-1.64.952-3.19.437 1.859-3.25 3.587-6.584 5.624-9.717 1.235-1.898 2.752-2.559 2.946.932zM169.826 243.371c2.083 3.078 3.993 5.855 5.69 8.757.446.762.229 1.91.316 2.88-.833-.387-1.99-.55-2.444-1.202-2.11-3.031-4.026-6.199-6.028-9.343.636-.387 1.425-.867 2.466-1.092zM255.756 253.372c-1.61-.5-3.008-.666-5.607-.974l3.638-5.365c1.409 1.28 2.854 2.522 4.216 3.85 1.23 1.2 2.368 2.492 4.192 3.403 1.302-5.317-6.782-10.936 1.833-15.082 8.248 3.29 3.425 9.01 1.372 13.895 3.457 1.86 4.244.348 5.291-2.1.7-1.638 2.814-2.672 4.295-3.976l3.71 4.805-.606 1.152c-3.508-1.192-5.438-.706-6.352 3.227-.516 2.226-.25 7.398-5.715 5.356 0-.584-.006-1.078.001-1.571.02-1.464.18-2.95-.055-4.372-.043-.257-1.705-.245-2.62-.357-.162 1.396-.147 2.845-.548 4.168-.282.935-1.237 2.458-1.699 2.39-1.087-.159-2.52-.877-2.982-1.79-.994-1.968-1.465-4.2-2.364-6.659zM383.78 206.359c.638.608 1.29.962 1.281 1.301-.045 2.02-.242 4.037-.388 6.055-1.227-.276-2.9-.145-3.595-.906-2.067-2.26-1.015-4.278 1.212-5.868.397-.284.8-.562 1.49-.582z"/><path d="M250.63 97.248c2.646 2.445 4.232 4.93.106 6.556-1.134.446-4.209-.981-4.507-2.067-.776-2.826.966-4.617 4.4-4.49zM214.831 185.332c-.599-2.005-.918-3.708-1.236-5.41 1.67-.223 3.79-1.157 4.88-.466 1.052.666 1.872 3.52 1.28 4.482-.678 1.1-3.023 1.176-4.924 1.394zM223.979 126.926c-1.56 2.371-3.373 4.687-5.78 2.154-.8-.843-.363-4.311.676-5.177 2.94-2.448 4.08.363 5.104 3.023zM278.44 286.765c-1.573-3.072-3.372-6.273 1.21-7.63 1.433-.424 4.031.164 4.811 1.23.864 1.179.989 4.253.118 5.035-1.323 1.186-3.78 1.107-6.138 1.365zM352.871 243c2.518.782 5.263 1.328 3.219 4.501-.865 1.342-2.66 3.337-3.577 3.119-1.67-.398-3-2.224-4.473-3.454 1.476-1.389 2.952-2.777 4.831-4.165zM328.19 235.309c-2.106.299-3.936.299-6.182.299l2.384-7.343c6.189-.017 6.782.971 3.799 7.044zM160.779 253.015c1.333 1.068 3.139 2.241 3.015 3.153-.226 1.671-1.59 3.189-2.48 4.77-1.012-.736-2.187-1.329-2.993-2.246-.921-1.048-1.515-2.385-2.628-4.217 1.632-.512 3.16-.993 5.086-1.46z"/></svg>