<svg width="186" height="158" viewBox="0 0 186 158" fill="none" xmlns="http://www.w3.org/2000/svg">
<g clip-path="url(#clip0_720_1333)">
<path fill-rule="evenodd" clip-rule="evenodd" d="M8.2041 0H177.796C182.307 0 186 3.76044 186 8.3531V149.647C186 154.24 182.307 158 177.796 158H8.2041C3.69336 158 0 154.24 0 149.647V8.3531C0 3.76044 3.69336 0 8.2041 0ZM12.8359 36.3406H57.6709C58.9121 36.3406 59.9111 37.3732 59.9111 38.6215V53.6633C59.9111 54.9116 58.897 55.9442 57.6709 55.9442H12.8359C11.6099 55.9442 10.5957 54.9116 10.5957 53.6633V38.6215C10.5806 37.3732 11.5947 36.3406 12.8359 36.3406ZM128.329 126.915H173.179C174.42 126.915 175.419 127.947 175.419 129.196V144.237C175.419 145.486 174.405 146.518 173.179 146.518H128.329C127.103 146.518 126.089 145.486 126.089 144.237V129.196C126.074 127.947 127.088 126.915 128.329 126.915ZM70.8398 126.915H115.16C116.401 126.915 117.4 127.947 117.4 129.196V144.237C117.4 145.486 116.386 146.518 115.16 146.518H70.8398C69.6138 146.518 68.5996 145.486 68.5996 144.237V129.196C68.5845 127.947 69.5986 126.915 70.8398 126.915ZM12.8359 126.915H57.6709C58.9121 126.915 59.9111 127.947 59.9111 129.196V144.237C59.9111 145.486 58.897 146.518 57.6709 146.518H12.8359C11.6099 146.518 10.5957 145.486 10.5957 144.237V129.196C10.5806 127.947 11.5947 126.915 12.8359 126.915ZM128.329 96.7234H173.179C174.42 96.7234 175.419 97.756 175.419 99.0043V114.046C175.419 115.294 174.405 116.327 173.179 116.327H128.329C127.103 116.327 126.089 115.294 126.089 114.046V99.0043C126.074 97.756 127.088 96.7234 128.329 96.7234ZM70.8398 96.7234H115.16C116.401 96.7234 117.4 97.756 117.4 99.0043V114.046C117.4 115.294 116.386 116.327 115.16 116.327H70.8398C69.6138 116.327 68.5996 115.294 68.5996 114.046V99.0043C68.5845 97.756 69.5986 96.7234 70.8398 96.7234ZM12.8359 96.7234H57.6709C58.9121 96.7234 59.9111 97.756 59.9111 99.0043V114.046C59.9111 115.294 58.897 116.327 57.6709 116.327H12.8359C11.6099 116.327 10.5957 115.294 10.5957 114.046V99.0043C10.5806 97.756 11.5947 96.7234 12.8359 96.7234ZM128.329 66.532H173.179C174.42 66.532 175.419 67.5646 175.419 68.8129V83.8547C175.419 85.103 174.405 86.1356 173.179 86.1356H128.329C127.103 86.1356 126.089 85.103 126.089 83.8547V68.8129C126.074 67.5646 127.088 66.532 128.329 66.532ZM70.8398 66.532H115.16C116.401 66.532 117.4 67.5646 117.4 68.8129V83.8547C117.4 85.103 116.386 86.1356 115.16 86.1356H70.8398C69.6138 86.1356 68.5996 85.103 68.5996 83.8547V68.8129C68.5845 67.5646 69.5986 66.532 70.8398 66.532ZM12.8359 66.532H57.6709C58.9121 66.532 59.9111 67.5646 59.9111 68.8129V83.8547C59.9111 85.103 58.897 86.1356 57.6709 86.1356H12.8359C11.6099 86.1356 10.5957 85.103 10.5957 83.8547V68.8129C10.5806 67.5646 11.5947 66.532 12.8359 66.532ZM128.329 36.3406H173.179C174.42 36.3406 175.419 37.3732 175.419 38.6215V53.6633C175.419 54.9116 174.405 55.9442 173.179 55.9442H128.329C127.103 55.9442 126.089 54.9116 126.089 53.6633V38.6215C126.074 37.3732 127.088 36.3406 128.329 36.3406ZM70.8398 36.3406H115.16C116.401 36.3406 117.4 37.3732 117.4 38.6215V53.6633C117.4 54.9116 116.386 55.9442 115.16 55.9442H70.8398C69.6138 55.9442 68.5996 54.9116 68.5996 53.6633V38.6215C68.5845 37.3732 69.5986 36.3406 70.8398 36.3406Z" fill="#00A33B"/>
</g>
<defs>
<clipPath id="clip0_720_1333">
<rect width="186" height="158" fill="white"/>
</clipPath>
</defs>
</svg>
