<svg width="103" height="126" viewBox="0 0 103 126" fill="none" xmlns="http://www.w3.org/2000/svg">
<path d="M52.013 112.617C54.0284 111.347 61.9582 106.089 69.3846 97.5771C76.8108 89.0652 83.7375 77.2947 83.7375 63C83.7375 39.3549 68.7013 23.575 51.5 23.575C34.8744 23.575 19.2625 39.3543 19.2625 63C19.2625 77.2947 26.1892 89.0652 33.6154 97.5771C41.0418 106.089 48.9716 111.347 50.987 112.617C51.3125 112.822 51.6875 112.822 52.013 112.617Z" fill="#222222" stroke="#222222" stroke-width="0.1"/>
<path d="M68.1667 63C68.1667 74.4208 60.6153 83.5 51.5 83.5C42.3848 83.5 34.8333 74.4208 34.8333 63C34.8333 51.5792 42.3848 42.5 51.5 42.5C60.6153 42.5 68.1667 51.5792 68.1667 63Z" fill="white" stroke="white"/>
<ellipse cx="51.5" cy="62.5" rx="24.5" ry="29.5" fill="white"/>
<path d="M49.5847 57.4726H56.9068V62.8483H50.433C50.3496 64.1127 50.1026 65.2526 49.6829 66.2707C49.3466 67.0426 48.784 67.8477 47.9952 68.6833C48.8941 68.5007 49.668 68.4066 50.3109 68.4066C51.1354 68.4066 52.204 68.5533 53.5226 68.8438C55.3263 69.2256 56.7669 69.4192 57.8474 69.4192C58.7284 69.4192 59.4964 69.3501 60.1453 69.2117C60.8031 69.0734 61.6603 68.7829 62.714 68.3402L66 75.0467C64.4106 75.7826 63.0086 76.2945 61.7972 76.5795C60.5947 76.8617 59.3029 77 57.9159 77C56.4008 77 54.6774 76.7538 52.7249 76.2641C50.171 75.6139 48.5905 75.2376 47.9714 75.1297C47.3612 75.0301 46.7034 74.9775 45.995 74.9775C43.9204 74.9775 41.6285 75.6498 39.1253 77L36 70.6117C39.3932 68.3596 41.0898 66.1103 41.0898 63.8582C41.0898 63.7364 41.0719 63.3989 41.0392 62.8483H36V57.4726H39.6075C38.9973 55.5055 38.6431 54.3573 38.5687 54.0419C38.4705 53.566 38.4199 52.9767 38.4199 52.274C38.4199 50.4065 38.9557 48.7298 40.0272 47.2441C41.0898 45.7584 42.4977 44.6794 44.2449 44.0126C45.9921 43.3375 48.3405 43 51.2962 43C54.0643 43 56.255 43.2905 57.8682 43.866C59.4845 44.4387 60.8537 45.396 61.9639 46.7295C63.083 48.0686 63.851 49.6844 64.2707 51.5851L55.0287 52.9242C54.5673 51.3305 54.0316 50.2737 53.4303 49.7535C52.8291 49.2334 52.1445 48.9733 51.3795 48.9733C50.4479 48.9733 49.6978 49.2555 49.1233 49.8227C48.5459 50.3899 48.2572 51.1922 48.2572 52.2353C48.2572 52.7941 48.3137 53.3226 48.4298 53.8344C48.537 54.3545 48.9239 55.5664 49.5847 57.4726Z" fill="#222222"/>
</svg>
