<svg width="103" height="126" viewBox="0 0 103 126" fill="none" xmlns="http://www.w3.org/2000/svg">
<circle cx="52" cy="63" r="38.5" fill="#00A33B" stroke="#00A33B"/>
<path d="M44.1222 75V71.0114L53.4418 62.3821C54.2344 61.6151 54.8991 60.9247 55.4361 60.3111C55.9815 59.6974 56.3949 59.0966 56.6761 58.5085C56.9574 57.9119 57.098 57.2685 57.098 56.5781C57.098 55.8111 56.9233 55.1506 56.5739 54.5966C56.2244 54.0341 55.7472 53.6037 55.142 53.3054C54.5369 52.9986 53.8509 52.8452 53.0838 52.8452C52.2827 52.8452 51.5838 53.0071 50.9872 53.331C50.3906 53.6548 49.9304 54.1193 49.6065 54.7244C49.2827 55.3295 49.1207 56.0497 49.1207 56.8849H43.8665C43.8665 55.1719 44.2543 53.6847 45.0298 52.4233C45.8054 51.1619 46.892 50.1861 48.2898 49.4957C49.6875 48.8054 51.2983 48.4602 53.1222 48.4602C54.9972 48.4602 56.6293 48.7926 58.0185 49.4574C59.4162 50.1136 60.5028 51.0256 61.2784 52.1932C62.054 53.3608 62.4418 54.6989 62.4418 56.2074C62.4418 57.196 62.2457 58.1719 61.8537 59.1349C61.4702 60.098 60.7841 61.1676 59.7955 62.3438C58.8068 63.5114 57.4134 64.9134 55.6151 66.5497L51.7926 70.2955V70.4744H62.7869V75H44.1222Z" fill="white"/>
</svg>
