<svg width="63" height="93" viewBox="0 0 63 93" fill="none" xmlns="http://www.w3.org/2000/svg">
<path d="M61.6998 23.3499C62.5096 19.8464 62.9193 16.0897 62.9193 12.1803V3.68603C62.9195 1.6493 61.2421 0 59.1712 0H44.9882C42.9204 0 41.2399 1.6493 41.2399 3.68603V6.85257H21.6795V3.68603C21.6795 1.6493 19.9991 0 17.9313 0H3.74658C1.67713 0 0 1.6493 0 3.68603V12.1803C0 17.3489 0.724787 22.2515 2.15404 26.7575C4.08108 32.8295 7.28186 38.2924 11.939 43.4626C12.8515 44.4747 13.8243 45.4803 14.8759 46.5018C10.4315 50.83 7.10251 55.2367 4.72275 59.9489C3.17529 63.0258 1.99557 66.2885 1.21943 69.6503C0.409678 73.1567 0 76.9137 0 80.8168V89.3156C0 91.3476 1.67713 93 3.74658 93H17.9313C19.9991 93 21.6795 91.3476 21.6795 89.3156V86.1474H41.2399V89.3156C41.2399 91.3476 42.9204 93 44.9882 93H59.1712C61.2421 93 62.9195 91.3476 62.9195 89.3156V80.8168C62.9195 75.6308 62.193 70.7252 60.7637 66.2427C58.8369 60.1706 55.6376 54.7078 50.9802 49.5407C50.0665 48.5255 49.0981 47.523 48.0465 46.5016C52.5375 42.131 55.7846 37.8279 58.1932 33.067C59.7377 30.0027 60.9174 26.7368 61.6998 23.3499ZM14.3254 78.8667C14.2902 79.4994 14.2758 80.1527 14.2758 80.8168V85.7195H7.40358V80.8168C7.40358 77.3716 7.76376 74.1938 8.43904 71.2649C9.11451 68.3345 10.1147 65.6462 11.3567 63.1768C13.8533 58.2363 17.3312 54.2008 21.1978 50.6109C21.6941 50.1499 22.1982 49.6918 22.712 49.2509C24.0837 50.3731 25.439 51.4292 26.7209 52.4257C27.1867 52.786 27.6622 53.1542 28.1502 53.5398C26.1417 55.2616 24.282 57.0086 22.6304 58.8423C21.7198 59.8575 20.8748 60.8899 20.097 61.9665H37.4505C38.8206 63.5326 39.9424 65.0733 40.8628 66.6488H17.2909C16.7085 67.8448 16.2059 69.1039 15.7833 70.4293C15.4008 71.6144 15.0918 72.8624 14.8535 74.1877H29.3055H43.7575C44.0807 75.6735 44.2774 77.2236 44.3624 78.8667H14.3254ZM53.6978 68.4115C54.8773 72.1086 55.519 76.2209 55.519 80.8168V85.7195H48.6435V80.8168C48.6435 80.1527 48.6274 79.4994 48.5971 78.8667C48.5186 77.2047 48.3378 75.6497 48.0672 74.1877C47.9841 73.7045 47.8833 73.2261 47.7776 72.7632C47.2638 70.5378 46.5388 68.5201 45.6346 66.6488C45.5626 66.493 45.4872 66.3355 45.4089 66.1813C44.6551 64.7049 43.7957 63.3058 42.8225 61.9665C41.1708 59.6844 39.2167 57.5754 37.005 55.5263C35.2878 53.9304 33.4265 52.377 31.466 50.8141C30.7682 50.2632 30.0576 49.7125 29.3389 49.1567C28.2091 48.2801 27.0839 47.4004 25.9699 46.5016C22.9579 44.0589 20.0707 41.5062 17.4813 38.6337C13.9427 34.7084 10.9819 30.138 9.2198 24.5885C8.04673 20.8916 7.4034 16.7791 7.4034 12.1801V7.27761H14.2758V12.1803C14.2758 12.8491 14.2902 13.4975 14.3254 14.1302C14.4038 15.7986 14.5814 17.3519 14.8535 18.8125C14.9352 19.2957 15.0375 19.7725 15.1417 20.2369C15.6555 22.4608 16.3805 24.4784 17.2909 26.3513C17.3661 26.5088 17.4383 26.6614 17.5183 26.8189C18.2625 28.2952 19.1267 29.6959 20.0966 31.0306C21.7482 33.3127 23.7087 35.4248 25.9141 37.4739C27.6313 39.0698 29.4991 40.6232 31.4595 42.1829C32.1574 42.737 32.8663 43.2877 33.5866 43.845C34.715 44.7201 35.8417 45.6014 36.9557 46.5016C39.9612 48.938 42.8485 51.4908 45.4411 54.3678C48.978 58.2914 51.9374 62.8618 53.6978 68.4115ZM55.519 12.1801C55.519 15.6284 55.1588 18.806 54.4802 21.7351C53.8049 24.6657 52.8094 27.3538 51.5628 29.8248C49.0659 34.7637 45.5883 38.7992 41.7281 42.386C41.2303 42.8503 40.7246 43.3098 40.2109 43.7491C38.8345 42.6269 37.4837 41.5708 36.1987 40.5714C35.7312 40.2158 35.256 39.846 34.7695 39.4634C36.7795 37.7447 38.6409 35.9977 40.2892 34.1546C41.2 33.1427 42.0499 32.107 42.8291 31.0306H25.4756C24.0992 29.4676 22.9804 27.9269 22.0602 26.3513H45.6315C46.2141 25.1554 46.7135 23.8977 47.1359 22.5708C47.5185 21.3875 47.8304 20.1378 48.0737 18.8125H33.6171H19.1605C18.8452 17.3236 18.6452 15.7766 18.5604 14.1302H48.5973C48.6276 13.4975 48.6437 12.8491 48.6437 12.1803V7.27761H55.5192L55.519 12.1801Z" fill="#00A33B"/>
</svg>
