<svg width="96" height="96" xmlns="http://www.w3.org/2000/svg" xmlns:xlink="http://www.w3.org/1999/xlink" overflow="hidden"><defs><clipPath id="clip0"><rect x="0" y="0" width="96" height="96"></rect></clipPath></defs><g clip-path="url('#clip0')"><path d="M70 48C70 36.6 62.4 30.6 54.3 26 62.4 21.3 70 15.4 70 4L64 4C64 5.8 63.7 7.5 63.2 9L32.8 9C32.3 7.5 32 5.8 32 4L26 4C26 15.4 33.6 21.3 41.7 26 33.6 30.6 26 36.6 26 48 26 59.5 33.6 65.5 41.7 70.1 33.6 74.7 26 80.6 26 92L32 92C32 90.1 32.3 88.5 32.8 87L63.2 87C63.7 88.5 64 90.1 64 92L70 92C70 80.6 62.4 74.7 54.3 70.1 62.4 65.5 70 59.5 70 48ZM32 48C32 46.2 32.3 44.5 32.8 43L63.3 43C63.8 44.5 64.1 46.2 64.1 48 64.1 49.8 63.8 51.5 63.3 53L32.8 53C32.3 51.5 32 49.8 32 48ZM36.6 15 59.3 15C56.4 17.9 52.3 20.2 47.9 22.6 43.6 20.2 39.5 17.9 36.6 15ZM48 29.4C52.4 31.8 56.5 34.1 59.4 37L36.6 37C39.5 34.1 43.6 31.7 48 29.4ZM48 73.5C52.4 75.8 56.4 78.1 59.3 81L36.7 81C39.6 78.1 43.6 75.8 48 73.5ZM48 66.7C43.5 64.3 39.4 62 36.5 59L59.5 59C56.6 62 52.5 64.3 48 66.7Z"></path></g></svg>