<?xml version="1.0" encoding="UTF-8" standalone="no"?>
<svg
   xmlns:dc="http://purl.org/dc/elements/1.1/"
   xmlns:cc="http://creativecommons.org/ns#"
   xmlns:rdf="http://www.w3.org/1999/02/22-rdf-syntax-ns#"
   xmlns:svg="http://www.w3.org/2000/svg"
   xmlns="http://www.w3.org/2000/svg"
   width="8.5in"
   height="11in"
   viewBox="0 0 215.9 279.4"
   version="1.1"
   id="svg8">
  <defs
     id="defs2" />
  <metadata
     id="metadata5">
    <rdf:RDF>
      <cc:Work
         rdf:about="">
        <dc:format>image/svg+xml</dc:format>
        <dc:type
           rdf:resource="http://purl.org/dc/dcmitype/StillImage" />
        <dc:title></dc:title>
      </cc:Work>
    </rdf:RDF>
  </metadata>
  <g
     id="layer1">
    <path
       id="path847-8-8-5"
       style="fill:#000000;stroke-width:0.425765"
       d="m 108.0252,60.242243 c -3.73892,-0.03367 -7.50051,0.782204 -10.89522,2.431584 -0.293832,0.14279 -0.593887,0.29679 -0.898289,0.460771 -7.439564,3.848388 -13.489244,8.354143 -19.403474,12.86052 -5.040661,2.260744 -13.107356,4.395944 -13.938644,10.068174 -0.132041,0.90078 -0.568058,1.83914 -0.969125,2.08534 -0.589113,0.36157 -0.916019,0.2085 -1.698207,-0.79643 C 57.051039,83.277972 48.660336,76.13564 44.79935,74.224727 c -2.091091,-1.03495 -2.788718,-1.154826 -6.68133,-1.149712 -5.270817,0.0068 -8.652483,0.559278 -14.043407,2.29327 -8.746166,2.813167 -15.050381,6.780257 -16.627202,10.462857 -0.5111158,1.19347 -0.5384787,1.91364 -0.1449128,3.86542 0.9266743,4.59638 4.5940748,9.21222 10.9028928,13.723468 1.296628,0.92718 8.631088,4.59499 10.395102,5.19839 4.50815,1.54213 8.086983,2.09404 13.547721,2.09064 7.270186,-0.005 12.131838,-1.0789 19.669261,-4.34426 -3.595797,6.17529 -3.851269,9.90829 -3.219876,13.75606 0.07501,1.48797 0.420503,3.1284 1.039621,4.90457 0.07928,0.22811 0.160086,0.44685 0.241493,0.65989 2.303004,6.35722 5.811938,14.85856 9.609589,24.94798 2.668526,10.45283 6.263128,21.38338 11.306006,34.46196 l 1.192632,3.09321 -1.53795,4.68786 c -2.172839,6.62249 -2.75786,10.17228 -2.100894,12.74421 0.678874,2.65723 1.512037,3.86015 3.190638,4.60504 1.199195,0.5322 2.796474,0.63543 4.758252,0.32246 -0.112265,1.05716 0.462186,2.02289 2.096375,2.75711 0.935114,0.42015 4.627064,3.65585 8.189019,4.69225 3.62529,1.05482 16.89018,1.46016 20.66421,0.92726 2.82401,-0.39878 8.0846,-3.79705 9.92107,-4.30064 4.00684,-1.0987 4.95917,-2.58591 4.37602,-4.03236 2.6618,-0.003 2.99151,-0.12771 4.02201,-1.21228 2.70604,-2.84782 2.62386,-8.32802 -0.24822,-16.4969 l -1.64587,-4.6821 2.91343,-7.515 c 4.05031,-10.44867 7.32815,-20.73186 9.83667,-30.85823 0.0898,-0.36244 0.15114,-0.61247 0.23562,-0.95324 5.40993,-13.06387 8.35174,-19.2166 9.55324,-24.10396 0.47301,-1.46652 0.74604,-3.09315 0.77503,-4.80458 0.0179,-1.08815 -0.0571,-2.0655 -0.22342,-2.9342 -0.0409,-0.47657 -0.091,-0.96526 -0.15353,-1.47701 0.34089,-1.56178 -4.92209,-9.98783 -0.37643,-7.98942 7.94147,3.49142 10.93776,3.31307 18.47799,3.02318 6.06256,-0.23307 8.36317,-0.6156 12.60562,-2.09724 13.30955,-4.64819 23.94078,-16.040698 21.08404,-22.593458 -2.23285,-5.12188 -12.52728,-10.311807 -24.63841,-12.421787 -10.53515,-1.835405 -14.40125,-0.133627 -25.59448,11.265457 -1.98761,2.0241 -3.86295,3.67997 -4.16701,3.67997 -0.31029,0 -0.7463,-0.87647 -0.99402,-1.99769 -1.01652,-4.60259 -2.9586,-7.12078 -6.73546,-8.73212 -8.60432,-3.639035 -12.62624,-4.863676 -23.08153,-12.340278 -0.31599,-0.239089 -0.60744,-0.450619 -0.84501,-0.60305 -1.30379,-0.836291 -3.92236,-2.130967 -5.81867,-2.877378 -2.69742,-1.061657 -5.59201,-1.601934 -8.50007,-1.628103 z" />
  </g>
</svg>
